<?xml version="1.0" standalone="no"?>
<!DOCTYPE svg PUBLIC "-//W3C//DTD SVG 1.1//EN" "http://www.w3.org/Graphics/SVG/1.1/DTD/svg11.dtd" >
<svg xmlns="http://www.w3.org/2000/svg" xmlns:xlink="http://www.w3.org/1999/xlink" version="1.1">
<metadata>
Created by FontForge 20170731 at Thu Jan 28 17:32:48 2021
 By Aleksey,,,
Copyright (c) 2015 Monotype Imaging Inc. All rights reserved.
</metadata>
<defs>
<font id="RNHouseSans-Thin" horiz-adv-x="1155" >
  <font-face 
    font-family="RN House Sans Thin"
    font-weight="250"
    font-stretch="normal"
    units-per-em="2048"
    panose-1="2 11 3 4 2 2 3 2 2 4"
    ascent="1526"
    descent="-522"
    x-height="993"
    cap-height="1454"
    bbox="-395 -522 2195 1935"
    underline-thickness="102"
    underline-position="-307"
    unicode-range="U+0020-FDFC"
  />
<missing-glyph horiz-adv-x="1024" 
d="M0 1434h1024v-1434h-1024v1434zM860 1331h-696l348 -522zM102 195l349 522l-349 522v-1044zM922 195v1044l-349 -522zM860 102l-348 523l-348 -523h696z" />
    <glyph glyph-name="fi" unicode="fi" horiz-adv-x="874" 
d="M375 1513q101 0 162 -61l-54 -45q-43 35 -100 35q-80 0 -112.5 -48t-32.5 -175v-226h278v-71h-278v-922h-76v922h-115v71h115v248q0 149 57 210.5t156 61.5zM709 1485q28 0 48.5 -18.5t20.5 -51.5q0 -35 -20 -53.5t-49 -18.5t-49.5 18.5t-20.5 53.5q0 33 20.5 51.5
t49.5 18.5zM670 0v993h75v-993h-75z" />
    <glyph glyph-name="fl" unicode="fl" horiz-adv-x="874" 
d="M375 1513q101 0 162 -61l-54 -45q-43 35 -100 35q-80 0 -112.5 -48t-32.5 -175v-226h278v-71h-278v-922h-76v922h-115v71h115v248q0 149 57 210.5t156 61.5zM670 0v1495h75v-1495h-75z" />
    <glyph glyph-name="uniFDFC" unicode="&#xfdfc;" horiz-adv-x="1769" arabic-form="isolated" 
d="M735 119q0 -95 -28.5 -167.5t-77.5 -115t-108.5 -63.5t-127.5 -21q-143 0 -230 90.5t-87 259.5q0 93 28 185l76 -21q-24 -76 -24 -157q0 -135 63.5 -205t173.5 -70q52 0 97 16t82.5 49.5t59 92.5t21.5 137v1255h82v-1265zM915 469q0 -114 51 -171.5t138 -57.5
q99 0 170.5 69t71.5 185q0 103 -54 190l70 41q61 -107 61 -231q0 -155 -95 -244.5t-226 -89.5q-119 0 -193.5 77t-74.5 226v921h81v-915zM1544 575q150 -186 150 -376q0 -156 -106 -285t-324 -211l-31 76q190 75 281.5 183.5t91.5 236.5q0 161 -131 323zM981 41q30 0 50 -18
t20 -54q0 -65 -70 -65q-68 0 -68 65q0 37 18.5 54.5t49.5 17.5zM1202 41q30 0 49 -18t19 -54q0 -65 -68 -65q-69 0 -69 67q0 35 19 52.5t50 17.5z" />
    <glyph glyph-name=".notdef" horiz-adv-x="1024" 
d="M0 1434h1024v-1434h-1024v1434zM860 1331h-696l348 -522zM102 195l349 522l-349 522v-1044zM922 195v1044l-349 -522zM860 102l-348 523l-348 -523h696z" />
    <glyph glyph-name=".null" horiz-adv-x="0" 
 />
    <glyph glyph-name="nonmarkingreturn" horiz-adv-x="682" 
 />
    <glyph glyph-name="space" unicode=" " horiz-adv-x="634" 
 />
    <glyph glyph-name="exclam" unicode="!" horiz-adv-x="565" 
d="M326 1454v-221v-193t-0.5 -145t-1.5 -145.5t-3 -121.5t-5 -146t-7 -150h-53q-5 97 -8 183.5t-5 146t-2.5 164.5t-0.5 159v216v253h86zM293 145q40 0 62 -22t22 -60q0 -40 -22 -61.5t-62 -21.5t-62 21.5t-22 61.5q0 38 22 60t62 22z" />
    <glyph glyph-name="quotedbl" unicode="&#x22;" horiz-adv-x="641" 
d="M178 870v613h66v-613h-66zM418 870v613h65v-613h-65z" />
    <glyph glyph-name="numbersign" unicode="#" horiz-adv-x="1413" 
d="M999 489h230l-8 -53h-230l-69 -436h-60l70 436h-545l-70 -436h-59l70 436h-230l8 53h230l78 498h-230l9 53h229l65 414h60l-66 -414h545l66 414h59l-66 -414h230l-8 -53h-230zM473 987l-78 -498h545l78 498h-545z" />
    <glyph glyph-name="dollar" unicode="$" horiz-adv-x="1107" 
d="M981 367q0 -179 -100.5 -283t-274.5 -113v-164h-71v166q-151 9 -255 89.5t-153 213.5l76 31q57 -127 143.5 -192.5t222.5 -65.5q148 0 239 80t91 238q0 61 -19 109.5t-48.5 81.5t-81 61t-101.5 46.5t-125 39.5q-58 17 -102.5 34.5t-93 47.5t-80 66.5t-52 91t-20.5 120.5
q0 163 95 252.5t264 95.5v164h71v-166q232 -19 340 -217l-72 -37q-59 93 -133 135.5t-180 42.5q-136 0 -219.5 -67t-83.5 -201q0 -58 22 -104.5t52.5 -75.5t81.5 -53.5t89 -36.5t95 -27q83 -22 147 -51.5t120 -76t86 -116t30 -159.5z" />
    <glyph glyph-name="percent" unicode="%" horiz-adv-x="1546" 
d="M100 0l1250 1454h96l-1249 -1454h-97zM406 1454q134 0 211 -82.5t77 -216.5t-77 -216.5t-211 -82.5q-133 0 -210 82.5t-77 216.5t77 216.5t210 82.5zM406 1386q-97 0 -155 -63.5t-58 -167.5q0 -107 58 -169t155 -62q99 0 157 62t58 169q0 105 -58.5 168t-156.5 63z
M1149 598q133 0 210 -82.5t77 -216.5t-77 -216.5t-210 -82.5q-134 0 -211.5 82.5t-77.5 216.5t77.5 216.5t211.5 82.5zM1147 530q-99 0 -156 -63t-57 -168q0 -107 56.5 -169t156.5 -62q97 0 156 62.5t59 168.5q0 104 -59 167.5t-156 63.5z" />
    <glyph glyph-name="ampersand" unicode="&#x26;" horiz-adv-x="1314" 
d="M1290 512q-159 -233 -252 -336l219 -221h-114l-160 162q-209 -199 -436 -199q-175 0 -292.5 98.5t-117.5 270.5q0 74 23 137t67.5 114.5t91.5 89t113 79.5q-168 223 -168 399q0 66 21 125.5t62.5 108t111 77.5t159.5 29q151 0 244.5 -79.5t93.5 -221.5q0 -62 -23 -118.5
t-49 -93t-88.5 -85t-96 -70t-118.5 -71.5q-19 -11 -28 -17q49 -60 123 -139.5t133.5 -141t173.5 -176.5q25 28 48.5 57.5t53.5 71t43 59.5t51.5 73t43.5 63zM612 1374q-61 0 -109 -17.5t-77 -44.5t-47.5 -63.5t-25.5 -70.5t-7 -70q0 -151 158 -356q156 92 192 116
q135 93 167 195q11 38 11 78q0 104 -69.5 168.5t-192.5 64.5zM537 -10q202 0 389 184q-327 327 -447 475q-127 -78 -195.5 -160.5t-68.5 -197.5q0 -132 87 -216.5t235 -84.5z" />
    <glyph glyph-name="quotesingle" unicode="'" horiz-adv-x="401" 
d="M168 870v613h65v-613h-65z" />
    <glyph glyph-name="parenleft" unicode="(" horiz-adv-x="555" 
d="M471 1487q-114 -209 -172.5 -467.5t-58.5 -530.5t59 -527t172 -454h-61q-126 180 -191 439.5t-65 544.5q0 287 65.5 549.5t190.5 445.5h61z" />
    <glyph glyph-name="parenright" unicode=")" horiz-adv-x="555" 
d="M145 1487q125 -183 190.5 -445.5t65.5 -549.5q0 -285 -65 -544.5t-191 -439.5h-61q113 199 172 454t59 527t-58.5 530.5t-172.5 467.5h61z" />
    <glyph glyph-name="asterisk" unicode="*" horiz-adv-x="892" 
d="M123 1217l287 -93l-9 297h88l-4 -297l283 93l29 -82l-289 -80l184 -244l-71 -53l-172 254l-173 -254l-71 51l182 246l-291 80z" />
    <glyph glyph-name="plus" unicode="+" horiz-adv-x="1236" 
d="M662 481v-481h-87v481h-479v82h479v481h87v-481h479v-82h-479z" />
    <glyph glyph-name="comma" unicode="," horiz-adv-x="526" 
d="M375 57q0 -102 -56.5 -187.5t-140.5 -137.5l-26 39q123 91 153 229q-50 0 -73 19.5t-23 62.5q0 41 22 62.5t62 21.5q82 0 82 -109z" />
    <glyph glyph-name="hyphen" unicode="-" horiz-adv-x="823" 
d="M104 530v82h615v-82h-615z" />
    <glyph glyph-name="period" unicode="." horiz-adv-x="471" 
d="M236 145q40 0 61.5 -21.5t21.5 -60.5q0 -40 -21.5 -61.5t-61.5 -21.5t-62 21.5t-22 61.5q0 38 22 60t62 22z" />
    <glyph glyph-name="slash" unicode="/" horiz-adv-x="634" 
d="M-20 0l593 1454h82l-594 -1454h-81z" />
    <glyph glyph-name="zero" unicode="0" 
d="M578 1483q222 0 336 -192.5t114 -563.5t-114 -563.5t-336 -192.5t-336.5 192.5t-114.5 563.5t114.5 563.5t336.5 192.5zM578 1401q-185 0 -275 -163.5t-90 -510.5t90 -510.5t275 -163.5t274.5 163.5t89.5 510.5t-89.5 510.5t-274.5 163.5z" />
    <glyph glyph-name="one" unicode="1" 
d="M874 82v-82h-569v82h242v1214q-38 -65 -106 -114.5t-142 -77.5l-12 76q194 93 284 274h62v-1372h241z" />
    <glyph glyph-name="two" unicode="2" 
d="M1010 0h-887v63q102 113 216.5 236t181 193.5t138 149.5t108.5 127.5t69.5 103.5t44.5 102t12 100q0 147 -93 236.5t-249 89.5q-57 0 -101.5 -8.5t-91 -30.5t-87 -66t-74.5 -110l-68 47q112 250 438 250q190 0 301 -110.5t111 -291.5q0 -63 -15 -121.5t-50 -120.5
t-74.5 -116t-109.5 -130.5t-132 -141.5t-163.5 -171t-184.5 -198h760v-82z" />
    <glyph glyph-name="three" unicode="3" 
d="M743 768q122 -38 192.5 -143.5t70.5 -247.5q0 -184 -119 -295t-316 -111q-155 0 -269 72.5t-179 212.5l70 43q122 -246 376 -246q162 0 256.5 91t94.5 247q0 161 -100 243.5t-298 82.5h-114v78h86q183 0 284 80.5t101 226.5q0 139 -89.5 219t-246.5 80q-107 0 -181 -44.5
t-133 -144.5l-67 48q109 223 389 223q187 0 300.5 -102t113.5 -271q0 -118 -58.5 -208t-163.5 -134z" />
    <glyph glyph-name="four" unicode="4" 
d="M877 365v-365h-86v365h-689v100l656 989h119v-1008h149v-81h-149zM791 1374l-613 -928h613v928z" />
    <glyph glyph-name="five" unicode="5" 
d="M567 924q223 0 341 -119.5t118 -343.5q0 -229 -121 -359.5t-332 -130.5q-135 0 -239.5 54.5t-190.5 169.5l64 49q86 -101 172.5 -146t195.5 -45q172 0 268.5 108.5t96.5 301.5q0 379 -385 379q-107 0 -175 -26.5t-114 -86.5l-55 21l160 704h602v-82h-543l-119 -514
q92 66 256 66z" />
    <glyph glyph-name="six" unicode="6" 
d="M610 928q189 0 306.5 -129t117.5 -336q0 -220 -121.5 -354t-320.5 -134q-210 0 -329.5 127.5t-119.5 350.5q0 213 102.5 431t368.5 572h105q-331 -428 -447 -670q57 68 145.5 105t192.5 37zM584 57q169 0 266.5 108t97.5 294t-94.5 286.5t-269.5 100.5q-171 0 -263 -100
t-92 -287q0 -186 95.5 -294t259.5 -108z" />
    <glyph glyph-name="seven" unicode="7" 
d="M991 1399l-510 -1399h-104l518 1372h-793v82h889v-55z" />
    <glyph glyph-name="eight" unicode="8" 
d="M764 756q105 -50 162 -147.5t57 -227.5q0 -186 -110.5 -298t-294.5 -112q-185 0 -296.5 112t-111.5 298q0 130 57 227.5t162 147.5q-91 46 -140.5 134t-49.5 204q0 173 105 281t274 108q167 0 271.5 -108t104.5 -281q0 -117 -49 -204.5t-141 -133.5zM283 1092
q0 -137 80 -221.5t212 -84.5t213.5 84.5t81.5 221.5t-82.5 224t-212.5 87q-129 0 -210.5 -87t-81.5 -224zM575 49q143 0 234.5 93.5t91.5 240.5q0 146 -90.5 237t-235.5 91q-143 0 -233 -91t-90 -237q0 -147 90.5 -240.5t232.5 -93.5z" />
    <glyph glyph-name="nine" unicode="9" 
d="M578 1483q205 0 320.5 -129.5t115.5 -360.5q0 -194 -90 -405t-334 -588h-105q171 251 264 406.5t142 271.5q-55 -70 -145.5 -109t-198.5 -39q-190 0 -307 131.5t-117 344.5q0 218 124 347.5t331 129.5zM571 612q170 0 263.5 101.5t93.5 287.5q0 188 -95.5 294t-261.5 106
q-168 0 -265 -107t-97 -293q0 -185 95 -287t267 -102z" />
    <glyph glyph-name="colon" unicode=":" horiz-adv-x="471" 
d="M246 922q40 0 62 -22t22 -60q0 -40 -22 -62t-62 -22t-62 22t-22 62q0 38 22 60t62 22zM246 145q40 0 62 -22t22 -60q0 -40 -22 -61.5t-62 -21.5t-62 21.5t-22 61.5q0 38 22 60t62 22z" />
    <glyph glyph-name="semicolon" unicode=";" horiz-adv-x="528" 
d="M303 922q40 0 62 -22t22 -60q0 -40 -22 -62t-62 -22t-62 22t-22 62q0 38 22 60t62 22zM385 57q0 -102 -56.5 -187.5t-140.5 -137.5l-26 39q123 91 153 229q-50 0 -73 19.5t-23 62.5q0 41 22 62.5t62 21.5q82 0 82 -109z" />
    <glyph glyph-name="less" unicode="&#x3c;" horiz-adv-x="1236" 
d="M174 492l956 -379v-82l-1044 420v81l1044 420v-82z" />
    <glyph glyph-name="equal" unicode="=" horiz-adv-x="1236" 
d="M96 696v82h1045v-82h-1045zM96 266v82h1045v-82h-1045z" />
    <glyph glyph-name="greater" unicode="&#x3e;" horiz-adv-x="1236" 
d="M1141 451l-1045 -420v82l957 379l-957 378v82l1045 -420v-81z" />
    <glyph glyph-name="question" unicode="?" horiz-adv-x="1005" 
d="M449 1483q196 0 303.5 -102.5t107.5 -290.5q0 -59 -11.5 -110.5t-28.5 -88t-45 -70.5t-52.5 -56t-58.5 -48q-12 -9 -44.5 -32.5t-45 -34t-35.5 -31.5t-32.5 -37t-17.5 -39.5t-8 -48.5v-162h-86v133q0 97 37.5 158t106.5 114q13 9 46.5 33.5t48.5 36.5t42.5 36.5
t40.5 45.5t28.5 51.5t22 67t6.5 79.5q0 152 -88 233t-242 81q-112 0 -189.5 -49.5t-131.5 -163.5l-76 31q101 264 402 264zM449 145q39 0 61 -21.5t22 -60.5q0 -40 -21.5 -61.5t-61.5 -21.5t-62 21.5t-22 61.5q0 38 22 60t62 22z" />
    <glyph glyph-name="at" unicode="@" horiz-adv-x="1728" 
d="M899 1405q218 0 385.5 -77t262.5 -224.5t95 -345.5q0 -66 -9.5 -137t-36.5 -153.5t-67.5 -146.5t-109.5 -106.5t-157 -42.5q-90 0 -144 43t-55 119q-106 -103 -272 -103q-118 0 -199.5 49.5t-118.5 129t-37 182.5q0 65 15 129t49.5 125.5t84 108.5t125 75.5t167.5 28.5
q191 0 268 -115l12 80h88l-100 -588q-19 -105 10.5 -149.5t101.5 -44.5q77 0 138.5 45t97.5 118t55 158.5t19 173.5q0 279 -176 437.5t-484 158.5q-119 0 -221.5 -25.5t-177 -69t-135 -103.5t-99 -127.5t-64.5 -143.5t-37 -147.5t-11 -143.5q0 -136 41 -249t121 -197
t206 -131t287 -47q130 0 291 41l16 -68q-168 -45 -309 -45q-158 0 -292 46t-231 132t-151.5 216.5t-54.5 291.5q0 78 12.5 157t41 163t71.5 158.5t109 142t147.5 116t192.5 77t239 28.5zM870 987q-78 0 -140.5 -28t-101 -71t-64.5 -99t-36 -108t-10 -101q0 -125 69 -201
t191 -76q85 0 162 36t131 101l62 385q-30 77 -98 119.5t-165 42.5z" />
    <glyph glyph-name="A" unicode="A" horiz-adv-x="1343" 
d="M326 518l-213 -518h-97l615 1454h82l614 -1454h-96l-213 518h-692zM672 1360l-312 -760h625z" />
    <glyph glyph-name="B" unicode="B" horiz-adv-x="1249" 
d="M866 770q140 -37 208.5 -136.5t68.5 -236.5q0 -181 -113 -289t-319 -108h-561v1454h524q89 0 160.5 -20t118.5 -53t79 -78.5t46 -94.5t14 -102q0 -110 -59 -205t-167 -131zM653 805q176 0 264.5 77t88.5 216q0 274 -340 274h-430v-567h417zM705 82q352 0 352 315
q0 326 -387 326h-434v-641h469z" />
    <glyph glyph-name="C" unicode="C" horiz-adv-x="1495" 
d="M758 1491q186 0 332 -79t231 -232l-76 -43q-73 132 -198.5 202t-288.5 70q-265 0 -423.5 -181t-158.5 -501t158.5 -501t423.5 -181q180 0 314.5 86.5t203.5 247.5l80 -33q-78 -187 -235 -285t-363 -98q-145 0 -266.5 49t-211 143t-140 240.5t-50.5 331.5t50.5 331.5
t140 240.5t211 143t266.5 49z" />
    <glyph glyph-name="D" unicode="D" horiz-adv-x="1433" 
d="M633 1454q149 0 272 -46.5t214 -136t141.5 -228.5t50.5 -316t-50.5 -316t-141 -228.5t-213.5 -136t-271 -46.5h-485v1454h483zM653 82q116 0 219 43.5t182 123t125 203.5t46 275t-46 275t-125 203.5t-182 123t-219 43.5h-417v-1290h417z" />
    <glyph glyph-name="E" unicode="E" horiz-adv-x="1214" 
d="M236 1372v-567h796v-82h-796v-641h872v-82h-958v1454h958v-82h-872z" />
    <glyph glyph-name="F" unicode="F" horiz-adv-x="1099" 
d="M236 1372v-567h714v-82h-714v-723h-86v1454h903v-82h-817z" />
    <glyph glyph-name="G" unicode="G" horiz-adv-x="1431" 
d="M1360 651q0 -151 -33.5 -270.5t-89 -196.5t-134 -128t-163.5 -72t-182 -21q-145 0 -266.5 49t-211 143t-140 240.5t-50.5 331.5t50.5 331.5t140 240.5t211 143t266.5 49q186 0 332 -79t231 -232l-76 -43q-73 132 -198.5 202t-288.5 70q-265 0 -423.5 -181t-158.5 -501
t158.5 -501t423.5 -181q245 0 378.5 150t139.5 442h-610v82h694v-68z" />
    <glyph glyph-name="H" unicode="H" horiz-adv-x="1396" 
d="M1161 0v733h-925v-733h-86v1454h86v-639h925v639h86v-1454h-86z" />
    <glyph glyph-name="I" unicode="I" horiz-adv-x="385" 
d="M150 0v1454h86v-1454h-86z" />
    <glyph glyph-name="J" unicode="J" horiz-adv-x="831" 
d="M692 319q0 -95 -26.5 -166t-73.5 -111.5t-103 -59.5t-122 -19q-232 0 -347 197l76 43q94 -158 273 -158q113 0 177 71t64 222v1116h82v-1135z" />
    <glyph glyph-name="K" unicode="K" horiz-adv-x="1257" 
d="M236 551v-551h-86v1454h86v-792l882 792h111l-709 -643l721 -811h-111l-671 754z" />
    <glyph glyph-name="L" unicode="L" horiz-adv-x="1077" 
d="M1063 82v-82h-913v1454h86v-1372h827z" />
    <glyph glyph-name="M" unicode="M" horiz-adv-x="1683" 
d="M1425 1276l-548 -1215h-72l-549 1223l-29 -1284h-82l43 1454h72l582 -1274l579 1274h72l45 -1454h-82z" />
    <glyph glyph-name="N" unicode="N" horiz-adv-x="1429" 
d="M1202 0l-962 1309h-4v-1309h-86v1454h77l963 -1309h4v1309h86v-1454h-78z" />
    <glyph glyph-name="O" unicode="O" horiz-adv-x="1515" 
d="M758 1491q145 0 266 -49t211 -143t140 -240.5t50 -331.5t-50 -331.5t-140 -240.5t-211 -143t-266 -49t-266.5 49t-211 143t-140 240.5t-50.5 331.5t50.5 331.5t140 240.5t211 143t266.5 49zM758 1409q-265 0 -423.5 -181t-158.5 -501t158.5 -501t423.5 -181t423 181
t158 501t-158 501t-423 181z" />
    <glyph glyph-name="P" unicode="P" horiz-adv-x="1189" 
d="M649 1454q124 0 217 -35.5t148.5 -99t82.5 -144.5t27 -178q0 -212 -121.5 -343.5t-353.5 -131.5h-413v-522h-86v1454h499zM236 604h397q203 0 304 102.5t101 290.5q0 375 -409 375h-393v-768z" />
    <glyph glyph-name="Q" unicode="Q" horiz-adv-x="1515" 
d="M1436 727q0 -285 -114.5 -470t-313.5 -255l133 -231h-101l-116 206q-71 -14 -156 -14q-145 0 -266.5 49t-211 143t-140 240.5t-50.5 331.5t50.5 331.5t140 240.5t211 143t266.5 49t266.5 -49t211 -143t140 -240.5t50.5 -331.5zM768 45q265 0 423.5 181t158.5 501
t-158.5 501t-423.5 181t-423.5 -181t-158.5 -501t158.5 -501t423.5 -181z" />
    <glyph glyph-name="R" unicode="R" horiz-adv-x="1239" 
d="M688 682h-452v-682h-86v1454h559q108 0 189.5 -31.5t129 -86.5t71 -123t23.5 -148q0 -155 -88 -258t-256 -121l363 -686h-101zM692 764q344 0 344 303q0 140 -81 222.5t-265 82.5h-454v-608h456z" />
    <glyph glyph-name="S" unicode="S" horiz-adv-x="1157" 
d="M549 1491q315 0 455 -231l-68 -54q-68 105 -158.5 154t-222.5 49q-164 0 -262 -70.5t-98 -212.5q0 -52 13.5 -94t42 -71.5t59.5 -50.5t80 -38t87.5 -27.5t96.5 -24.5q12 -3 19 -4.5t17 -4t19 -4.5q51 -12 88.5 -23.5t82.5 -30t77.5 -40t64.5 -53t51.5 -69t32 -88.5
t12.5 -112q0 -198 -126.5 -307t-342.5 -109q-193 0 -322 85.5t-190 236.5l78 33q67 -134 168 -203.5t262 -69.5q174 0 280.5 84.5t106.5 249.5q0 72 -24.5 127t-60.5 89t-95.5 61t-110.5 42t-125 33q-3 0 -5.5 0.5t-4.5 1.5q-169 43 -239 78q-147 75 -172 227q-6 35 -6 74
q0 178 118 272.5t322 94.5z" />
    <glyph glyph-name="T" unicode="T" horiz-adv-x="1208" 
d="M647 1372v-1372h-86v1372h-545v82h1176v-82h-545z" />
    <glyph glyph-name="U" unicode="U" horiz-adv-x="1388" 
d="M1249 498q0 -170 -73 -292.5t-197 -182.5t-285 -60t-285 60t-197 182.5t-73 292.5v956h86v-956q0 -219 128 -336t341 -117t341 117t128 336v956h86v-956z" />
    <glyph glyph-name="V" unicode="V" horiz-adv-x="1275" 
d="M692 0h-106l-563 1454h96l520 -1372l520 1372h96z" />
    <glyph glyph-name="W" unicode="W" horiz-adv-x="1820" 
d="M1362 0h-98l-353 1255l-352 -1255h-98l-424 1454h86l387 -1360l356 1278h90l357 -1278l387 1360h86z" />
    <glyph glyph-name="X" unicode="X" horiz-adv-x="1220" 
d="M606 688l-467 -688h-104l510 748l-496 706h105l452 -647l453 647h104l-495 -706l510 -748h-105z" />
    <glyph glyph-name="Y" unicode="Y" horiz-adv-x="1232" 
d="M659 0h-86v621l-563 833h96l508 -747h4l508 747h97l-564 -833v-621z" />
    <glyph glyph-name="Z" unicode="Z" horiz-adv-x="1208" 
d="M82 0v74l967 1298h-897v82h1003v-74l-965 -1298h990v-82h-1098z" />
    <glyph glyph-name="bracketleft" unicode="[" horiz-adv-x="536" 
d="M209 1464v-1894h256v-62h-322v2018h322v-62h-256z" />
    <glyph glyph-name="backslash" unicode="\" horiz-adv-x="634" 
d="M645 0h-82l-594 1454h82z" />
    <glyph glyph-name="bracketright" unicode="]" horiz-adv-x="536" 
d="M72 -492v62h256v1894h-256v62h321v-2018h-321z" />
    <glyph glyph-name="asciicircum" unicode="^" horiz-adv-x="1163" 
d="M582 1286l-353 -588h-71l409 686h29l410 -686h-72z" />
    <glyph glyph-name="underscore" unicode="_" horiz-adv-x="1052" 
d="M14 -287v62h1024v-62h-1024z" />
    <glyph glyph-name="grave" unicode="`" horiz-adv-x="370" 
d="M305 1212h-65l-195 314h96z" />
    <glyph glyph-name="a" unicode="a" horiz-adv-x="1099" 
d="M541 1022q118 0 210 -43.5t144 -126.5v141h76v-993h-76v139q-52 -83 -144 -126.5t-210 -43.5q-219 0 -347 145t-128 382t128 381.5t347 144.5zM539 950q-180 0 -286 -122t-106 -332t106 -332.5t288 -122.5q132 0 227.5 66t126.5 190v377q-33 136 -128 206t-228 70z" />
    <glyph glyph-name="b" unicode="b" horiz-adv-x="1099" 
d="M205 852q54 87 147 128.5t207 41.5q220 0 347.5 -144.5t127.5 -381.5t-127.5 -382t-347.5 -145q-114 0 -207 41.5t-147 128.5v-139h-76v1495h76v-643zM561 950q-133 0 -228 -70t-128 -206v-377q31 -124 126.5 -190t227.5 -66q182 0 287.5 122t105.5 333q0 210 -105.5 332
t-285.5 122z" />
    <glyph glyph-name="c" unicode="c" horiz-adv-x="991" 
d="M532 1016q261 0 386 -230l-70 -41q-110 199 -316 199q-173 0 -279 -122.5t-106 -325.5t106.5 -326t272.5 -123q110 0 195 56t137 157l68 -35q-56 -118 -156.5 -184t-239.5 -66q-209 0 -336.5 144.5t-127.5 376.5t127.5 376t338.5 144z" />
    <glyph glyph-name="d" unicode="d" horiz-adv-x="1099" 
d="M895 0v139q-54 -87 -147 -128.5t-207 -41.5q-220 0 -347.5 145t-127.5 382t127.5 381.5t347.5 144.5q114 0 207 -41.5t147 -128.5v643h76v-1495h-76zM539 950q-180 0 -286 -122t-106 -332t106 -332.5t288 -122.5q132 0 227.5 66t126.5 190v377q-33 136 -128 206t-228 70z
" />
    <glyph glyph-name="e" unicode="e" horiz-adv-x="1071" 
d="M979 535q0 -27 -2 -50h-834q3 -200 109 -319t280 -119q119 0 215.5 57.5t151.5 155.5l68 -35q-59 -114 -170.5 -182t-257.5 -68q-217 0 -345 144.5t-128 376.5t127.5 376t336.5 144q203 0 326 -135.5t123 -345.5zM530 944q-161 0 -264.5 -104t-120.5 -283h754
q-11 179 -110 283t-259 104z" />
    <glyph glyph-name="f" unicode="f" horiz-adv-x="540" 
d="M375 1513q101 0 162 -61l-54 -45q-43 35 -100 35q-80 0 -112.5 -48t-32.5 -175v-226h278v-71h-278v-922h-76v922h-115v71h115v248q0 149 57 210.5t156 61.5z" />
    <glyph glyph-name="g" unicode="g" horiz-adv-x="1099" 
d="M541 1022q118 0 210 -43.5t144 -126.5v141h76v-993q-4 -259 -131.5 -390.5t-345.5 -131.5q-227 0 -388 157l52 58q77 -73 155 -108.5t179 -35.5q189 0 296 117.5t107 349.5v123q-52 -83 -144 -126.5t-210 -43.5q-219 0 -347 145t-128 382t128 381.5t347 144.5zM539 950
q-180 0 -286 -122t-106 -332t106 -332.5t288 -122.5q132 0 227.5 66t126.5 190v377q-33 136 -128 206t-228 70z" />
    <glyph glyph-name="h" unicode="h" horiz-adv-x="1095" 
d="M205 836q70 92 158.5 136t218.5 44q203 0 303 -110t100 -343v-563h-76v553q0 209 -86.5 300t-247.5 91q-257 0 -370 -225v-719h-76v1495h76v-659z" />
    <glyph glyph-name="i" unicode="i" horiz-adv-x="333" 
d="M168 1485q29 0 49.5 -18.5t20.5 -51.5q0 -35 -20.5 -53.5t-49.5 -18.5t-49.5 18.5t-20.5 53.5q0 33 20.5 51.5t49.5 18.5zM129 0v993h76v-993h-76z" />
    <glyph glyph-name="j" unicode="j" horiz-adv-x="333" 
d="M168 1485q29 0 49.5 -18.5t20.5 -51.5q0 -35 -20.5 -53.5t-49.5 -18.5t-49.5 18.5t-20.5 53.5q0 33 20.5 51.5t49.5 18.5zM205 -205q-1 -69 -18.5 -123t-45 -87.5t-64.5 -55.5t-73 -30.5t-74 -8.5q-102 0 -180 55l35 62q65 -45 141 -45q85 0 144 55t59 168v1208h76v-1198
z" />
    <glyph glyph-name="k" unicode="k" horiz-adv-x="1030" 
d="M862 993h121l-479 -366l502 -627h-103l-461 580l-237 -183v-397h-76v1495h76v-1006z" />
    <glyph glyph-name="l" unicode="l" horiz-adv-x="333" 
d="M129 0v1495h76v-1495h-76z" />
    <glyph glyph-name="m" unicode="m" horiz-adv-x="1714" 
d="M1231 1016q373 0 373 -391v-625h-76v614q0 330 -305 330q-223 0 -328 -186q8 -47 8 -113v-645h-76v635q0 164 -71 236.5t-203 72.5q-241 0 -348 -225v-719h-76v993h76v-157q67 92 149.5 136t204.5 44q240 0 311 -176q66 88 151 132t210 44z" />
    <glyph glyph-name="n" unicode="n" horiz-adv-x="1095" 
d="M582 1016q203 0 303 -110t100 -343v-563h-76v553q0 209 -86.5 300t-247.5 91q-257 0 -370 -225v-719h-76v993h76v-157q70 92 158.5 136t218.5 44z" />
    <glyph glyph-name="o" unicode="o" horiz-adv-x="1089" 
d="M545 1016q224 0 351.5 -143t127.5 -377t-127.5 -377.5t-351.5 -143.5t-351.5 143.5t-127.5 377.5t127.5 377t351.5 143zM545 944q-185 0 -291.5 -121t-106.5 -327q0 -207 106.5 -328t291.5 -121q184 0 290.5 121.5t106.5 327.5t-106.5 327t-290.5 121z" />
    <glyph glyph-name="p" unicode="p" horiz-adv-x="1099" 
d="M559 1024q220 0 347.5 -144.5t127.5 -381.5t-127.5 -382t-347.5 -145q-114 0 -207 41.5t-147 128.5v-633h-76v1485h76v-139q54 87 147 128.5t207 41.5zM559 952q-132 0 -227.5 -66t-126.5 -190v-377q33 -136 128 -206t228 -70q180 0 285.5 122.5t105.5 332.5t-105.5 332
t-287.5 122z" />
    <glyph glyph-name="q" unicode="q" horiz-adv-x="1099" 
d="M541 1024q114 0 207 -41.5t147 -128.5v139h76v-1485h-76v633q-54 -87 -147 -128.5t-207 -41.5q-220 0 -347.5 145t-127.5 382t127.5 381.5t347.5 144.5zM541 952q-182 0 -288 -122t-106 -332t106 -332.5t286 -122.5q133 0 228 70t128 206v377q-31 124 -126.5 190
t-227.5 66z" />
    <glyph glyph-name="r" unicode="r" horiz-adv-x="768" 
d="M561 1016q97 0 203 -41l-23 -72q-105 41 -188 41q-122 0 -208 -66.5t-140 -226.5v-651h-76v993h76v-200q83 223 356 223z" />
    <glyph glyph-name="s" unicode="s" horiz-adv-x="919" 
d="M455 1016q214 0 344 -127l-51 -53q-52 51 -121 79.5t-174 28.5q-131 0 -203 -47t-72 -137q0 -34 6.5 -60t29 -46t37 -32t60 -26t66 -19t84.5 -20q28 -7 43 -10q58 -13 95.5 -24.5t83.5 -33.5t72.5 -49.5t45 -71.5t18.5 -100q0 -133 -101 -213t-272 -80q-244 0 -387 168
l52 54q61 -71 138.5 -110.5t201.5 -39.5q138 0 214 53t76 158q0 26 -5.5 48.5t-13 39.5t-23 32t-29 26t-37.5 21.5t-41.5 17t-48 14.5t-50.5 12t-55.5 12t-56.5 13q-65 15 -109.5 32t-86.5 46t-63.5 74.5t-21.5 107.5q0 119 97 190.5t258 71.5z" />
    <glyph glyph-name="t" unicode="t" horiz-adv-x="700" 
d="M586 993v-71h-334v-646q0 -113 59 -168t144 -55q76 0 141 45l35 -61q-78 -55 -180 -55q-38 0 -74.5 8t-73.5 30t-64.5 55t-45 87.5t-17.5 124.5v635h-115v71h115v271h76v-271h334z" />
    <glyph glyph-name="u" unicode="u" horiz-adv-x="1075" 
d="M870 0v158q-71 -92 -158.5 -136.5t-217.5 -44.5q-193 0 -288 110.5t-95 342.5v563h75v-553q0 -107 22 -184t64.5 -121.5t98.5 -65t129 -20.5q258 0 370 225v719h76v-993h-76z" />
    <glyph glyph-name="v" unicode="v" horiz-adv-x="1032" 
d="M567 0h-92l-452 993h86l411 -917l404 917h86z" />
    <glyph glyph-name="w" unicode="w" horiz-adv-x="1566" 
d="M1180 0h-93l-303 893l-303 -893h-92l-366 993h86l325 -903l303 903h92l306 -903l323 903h86z" />
    <glyph glyph-name="x" unicode="x" horiz-adv-x="1069" 
d="M524 479l-397 -479h-104l450 535l-424 458h105l364 -407l348 407h105l-404 -463l480 -530h-105z" />
    <glyph glyph-name="y" unicode="y" horiz-adv-x="1032" 
d="M342 -492h-86l248 539l-481 946h86l432 -860l383 860h86z" />
    <glyph glyph-name="z" unicode="z" horiz-adv-x="1003" 
d="M170 72h760v-72h-867v55l721 867h-680v71h797v-43z" />
    <glyph glyph-name="braceleft" unicode="{" horiz-adv-x="610" 
d="M406 1464q-67 0 -95 -38t-28 -115v-541q0 -58 -20.5 -101.5t-52.5 -66t-60 -33.5t-54 -14v-4q26 -3 54 -14t60 -35t52.5 -70t20.5 -108v-600q0 -77 28.5 -115.5t94.5 -38.5h133v-62h-144q-92 0 -135 54t-43 149v584q0 56 -15.5 97t-36 62t-50 33t-49 14.5t-41.5 2.5v102
q192 0 192 189v528q0 95 43 149t135 54h144v-62h-133z" />
    <glyph glyph-name="bar" unicode="|" horiz-adv-x="499" 
d="M213 -102v1618h74v-1618h-74z" />
    <glyph glyph-name="braceright" unicode="}" horiz-adv-x="610" 
d="M205 1526q92 0 135 -54t43 -149v-528q0 -189 192 -189v-102q-22 0 -41.5 -2.5t-49 -14.5t-50 -33t-36 -62t-15.5 -97v-584q0 -95 -43 -149t-135 -54h-144v62h134q66 0 94 38.5t28 115.5v600q0 62 20.5 108t52.5 70t60 35t54 14v4q-26 3 -54 14t-60 33.5t-52.5 66
t-20.5 101.5v541q0 77 -28 115t-94 38h-134v62h144z" />
    <glyph glyph-name="asciitilde" unicode="~" horiz-adv-x="1236" 
d="M397 647q58 0 109.5 -17t90.5 -41t77 -48t83.5 -41t94.5 -17q85 0 142 44.5t69 115.5h86q-9 -106 -96 -174t-211 -68q-58 0 -110.5 17t-91.5 41t-77 48t-83.5 41t-94.5 17q-80 0 -139 -42.5t-72 -116.5h-86q9 102 93.5 171.5t215.5 69.5z" />
    <glyph glyph-name="exclamdown" unicode="&#xa1;" horiz-adv-x="565" 
d="M303 856q-40 0 -62 22t-22 60q0 40 22 62t62 22t62 -22t22 -62q0 -38 -22 -60t-62 -22zM250 -453v253.5v216t0.5 159t2.5 165t5 146t8 183.5h53q4 -84 7 -150t5 -146t3 -122t1.5 -145.5t0.5 -145v-193.5v-221h-86z" />
    <glyph glyph-name="cent" unicode="&#xa2;" horiz-adv-x="1120" 
d="M938 457q-49 -101 -135.5 -161t-206.5 -69v-227h-72v229q-184 13 -294.5 150t-110.5 348q0 212 110 348.5t295 149.5v229h72v-227q223 -13 334 -209l-70 -41q-95 166 -264 176v-852q90 9 160.5 58.5t113.5 132.5zM201 727q0 -183 90 -298.5t233 -127.5v852
q-147 -15 -235 -129.5t-88 -296.5z" />
    <glyph glyph-name="sterling" unicode="&#xa3;" horiz-adv-x="1128" 
d="M1042 180q-126 -213 -335 -213q-64 0 -137.5 20.5t-120 41.5t-121 58.5t-95.5 47.5q-62 -115 -73 -135l-74 41q164 280 164 496q0 57 -8 127h-140v71h123q-5 20 -27 85.5t-31 118t-9 126.5q0 180 102 279.5t283 99.5q147 0 243.5 -70.5t151.5 -224.5l-80 -35
q-31 75 -68.5 126.5t-78.5 76.5t-77.5 35t-78.5 10q-136 0 -221.5 -72t-89.5 -221q0 -59 11 -111.5t31 -116t29 -106.5h428v-71h-415q8 -47 8 -121q0 -171 -66 -326q86 -48 148 -78.5t150.5 -60t154.5 -29.5q80 0 139.5 45t112.5 129z" />
    <glyph glyph-name="yen" unicode="&#xa5;" horiz-adv-x="1114" 
d="M944 612v-71h-354v-215h354v-72h-354v-254h-86v254h-344v72h344v215h-344v71h309l-406 772h97l387 -761l407 761h97l-428 -772h321z" />
    <glyph glyph-name="brokenbar" unicode="&#xa6;" horiz-adv-x="499" 
d="M219 895v621h62v-621h-62zM219 -102v620h62v-620h-62z" />
    <glyph glyph-name="section" unicode="&#xa7;" horiz-adv-x="1011" 
d="M678 303q95 -40 145.5 -107t50.5 -180q0 -158 -99.5 -244.5t-272.5 -86.5q-153 0 -255.5 68t-150.5 188l62 26q55 -107 135 -162t207 -55q138 0 222.5 67.5t84.5 198.5q0 40 -9.5 73t-22.5 56.5t-41 44.5t-50 34t-65.5 27.5t-72.5 23t-85 22.5q-55 15 -94.5 28.5
t-86 40.5t-75.5 61t-48.5 88t-19.5 122q0 122 57 200.5t160 108.5q-83 34 -129.5 93t-46.5 159q0 143 94 218t256 75q250 0 361 -184l-53 -43q-54 84 -126.5 122.5t-177.5 38.5q-130 0 -208 -55.5t-78 -167.5q0 -50 19.5 -89.5t41 -61.5t70.5 -42.5t73.5 -27t83.5 -20.5
q6 -2 10 -2.5t9.5 -2t9.5 -2.5q61 -14 107 -30t94.5 -43.5t79.5 -61.5t51 -86t20 -117q0 -120 -62.5 -201t-174.5 -112zM205 641q0 -43 9.5 -79t23.5 -61t39.5 -47t46.5 -34.5t55.5 -25.5t56.5 -19t59 -16q18 -5 27 -7l31 -8q134 3 214.5 72t80.5 200q0 40 -9 72.5t-22 56
t-39.5 44.5t-50 34.5t-65.5 28.5t-73.5 24t-86.5 23l-23 6q-125 -3 -199.5 -69t-74.5 -195z" />
    <glyph glyph-name="dieresis" unicode="&#xa8;" horiz-adv-x="630" 
d="M135 1483q29 0 49.5 -18.5t20.5 -51.5q0 -35 -20.5 -53.5t-49.5 -18.5t-49 18.5t-20 53.5q0 33 20.5 51.5t48.5 18.5zM516 1483q29 0 49.5 -18.5t20.5 -51.5q0 -35 -20.5 -53.5t-49.5 -18.5t-49.5 18.5t-20.5 53.5q0 33 20.5 51.5t49.5 18.5z" />
    <glyph glyph-name="copyright" unicode="&#xa9;" horiz-adv-x="1568" 
d="M784 1491q157 0 289 -52t227.5 -148.5t149 -241t53.5 -322.5t-53.5 -322.5t-149 -241t-227.5 -148.5t-289 -52t-288.5 52t-227 148.5t-149 241t-53.5 322.5t53.5 322.5t149 241t227 148.5t288.5 52zM784 1430q-145 0 -266 -48t-206.5 -137t-133 -221.5t-47.5 -296.5
q0 -328 178.5 -515t474.5 -187t475 187t179 515t-179 515.5t-475 187.5zM791 1257q243 0 376 -184l-61 -47q-65 83 -140 121.5t-175 38.5q-182 0 -289 -117.5t-107 -341.5t105 -341.5t288 -117.5q115 0 193.5 50t140.5 153l62 -35q-130 -239 -400 -239q-214 0 -342.5 136.5
t-128.5 395.5q0 260 128.5 394t349.5 134z" />
    <glyph glyph-name="ordfeminine" unicode="&#xaa;" horiz-adv-x="788" 
d="M377 1393q81 0 145 -30t99 -87v96h73v-684h-73v96q-34 -57 -98 -86.5t-146 -29.5q-151 0 -239.5 99t-88.5 263q0 163 88.5 263t239.5 100zM373 1321q-114 0 -181 -78.5t-67 -212.5q0 -135 67 -213t183 -78q92 0 159.5 42.5t88.5 121.5v242q-23 87 -89.5 131.5
t-160.5 44.5z" />
    <glyph glyph-name="guillemotleft" unicode="&#xab;" horiz-adv-x="1116" 
d="M600 403v-81l-473 260v73l473 281v-82l-414 -231zM596 623l414 -220v-81l-473 260v73l473 281v-82z" />
    <glyph glyph-name="logicalnot" unicode="&#xac;" horiz-adv-x="1236" 
d="M1055 205v471h-959v82h1045v-553h-86z" />
    <glyph glyph-name="registered" unicode="&#xae;" horiz-adv-x="1568" 
d="M784 1491q157 0 289 -52t227.5 -148.5t149 -241t53.5 -322.5t-53.5 -322.5t-149 -241t-227.5 -148.5t-289 -52t-288.5 52t-227 148.5t-149 241t-53.5 322.5t53.5 322.5t149 241t227 148.5t288.5 52zM784 25q296 0 475 187t179 515t-179 515.5t-475 187.5q-145 0 -266 -48
t-206.5 -137t-133 -221.5t-47.5 -296.5q0 -328 178.5 -515t474.5 -187zM1153 950q0 -98 -51 -172t-148 -102l213 -416h-90l-207 402l-34 -3h-297v-399h-76v969h373q161 0 239 -78t78 -201zM825 731q123 0 185.5 58t62.5 163q0 205 -250 205h-284v-426h286z" />
    <glyph glyph-name="macron" unicode="&#xaf;" horiz-adv-x="724" 
d="M55 1393v61h615v-61h-615z" />
    <glyph glyph-name="degree" unicode="&#xb0;" horiz-adv-x="749" 
d="M377 1526q147 0 232 -85.5t85 -226.5q0 -140 -85 -224.5t-232 -84.5q-150 0 -236 84.5t-86 224.5q0 141 86 226.5t236 85.5zM375 1464q-121 0 -186.5 -66.5t-65.5 -187.5q0 -117 65.5 -180t186.5 -63q115 0 183.5 64t68.5 179q0 118 -69 186t-183 68z" />
    <glyph glyph-name="plusminus" unicode="&#xb1;" horiz-adv-x="1236" 
d="M1141 584h-479v-379h-87v379h-479v82h479v378h87v-378h479v-82zM1141 82v-82h-1045v82h1045z" />
    <glyph glyph-name="twosuperior" unicode="&#xb2;" horiz-adv-x="817" 
d="M715 676h-629v61q78 84 167 176.5t136 140.5t96.5 103.5t71.5 90t36.5 73t14.5 78.5q0 85 -59 135.5t-160 50.5q-77 0 -132 -30t-101 -115l-66 45q85 180 311 180q135 0 214 -72t79 -190q0 -51 -17 -100t-42 -89.5t-74 -96.5t-93 -100t-121 -122t-136 -141h504v-78z" />
    <glyph glyph-name="threesuperior" unicode="&#xb3;" horiz-adv-x="817" 
d="M535 1190q81 -27 129.5 -94.5t48.5 -161.5q0 -125 -83 -202t-227 -77q-223 0 -317 201l68 45q79 -166 249 -166q103 0 163.5 56t60.5 151q0 93 -62 145t-194 52h-76v78h55q117 0 182.5 49.5t65.5 138.5q0 82 -55.5 131t-155.5 49q-68 0 -118 -29t-93 -100l-61 51
q78 158 276 158q137 0 215 -72t78 -182q0 -72 -37.5 -132t-111.5 -89z" />
    <glyph glyph-name="acute" unicode="&#xb4;" horiz-adv-x="370" 
d="M55 1212l164 314h96l-194 -314h-66z" />
    <glyph glyph-name="mu" unicode="&#xb5;" horiz-adv-x="1093" 
d="M889 0v158q-71 -92 -159 -136.5t-218 -44.5q-224 0 -307 164v-633h-76v1485h76v-553q0 -209 81.5 -300t231.5 -91q258 0 371 225v719h76v-993h-76z" />
    <glyph glyph-name="paragraph" unicode="&#xb6;" horiz-adv-x="1052" 
d="M774 1393v-1604h-65v1604h-179v-1604h-65v1030h-29q-370 0 -370 324q0 164 93 237.5t283 73.5h453v-61h-121z" />
    <glyph glyph-name="periodcentered" unicode="&#xb7;" horiz-adv-x="471" 
d="M246 745q40 0 62 -21.5t22 -59.5q0 -40 -22 -62t-62 -22t-62 22t-22 62q0 38 22 59.5t62 21.5z" />
    <glyph glyph-name="cedilla" unicode="&#xb8;" horiz-adv-x="550" 
d="M240 -121q256 -17 256 -178q0 -88 -60.5 -130t-156.5 -42q-119 0 -224 55l27 56q97 -46 201 -46q65 0 106 25.5t41 77.5q0 119 -283 127l60 176h76z" />
    <glyph glyph-name="onesuperior" unicode="&#xb9;" horiz-adv-x="579" 
d="M510 754v-78h-430v78h174v753q-27 -44 -75 -79t-99 -54l-21 76q141 64 211 195h68v-891h172z" />
    <glyph glyph-name="ordmasculine" unicode="&#xba;" horiz-adv-x="759" 
d="M381 1389q154 0 242 -99t88 -260q0 -162 -88 -260t-242 -98q-156 0 -244 98t-88 260q0 161 88.5 260t243.5 99zM381 1317q-119 0 -187.5 -77t-68.5 -210t68.5 -210t187.5 -77q117 0 185.5 77.5t68.5 209.5t-68.5 209.5t-185.5 77.5z" />
    <glyph glyph-name="guillemotright" unicode="&#xbb;" horiz-adv-x="1116" 
d="M96 309v82l414 232l-414 219v82l473 -260v-74zM979 590l-473 -281v82l414 232l-414 219v82l473 -260v-74z" />
    <glyph glyph-name="onequarter" unicode="&#xbc;" horiz-adv-x="1650" 
d="M254 1384q-27 -44 -75 -79t-99 -54l-21 76q141 64 211 195h68v-891h172v-78h-430v78h174v753zM281 -82h-97l949 1536h96zM1456 227v-227h-84v227h-467v90l445 652h106v-664h105v-78h-105zM1372 879l-387 -574h387v574z" />
    <glyph glyph-name="onehalf" unicode="&#xbd;" horiz-adv-x="1650" 
d="M254 1384q-27 -44 -75 -79t-99 -54l-21 76q141 64 211 195h68v-891h172v-78h-430v78h174v753zM281 -82h-97l949 1536h96zM1548 0h-628v61q78 84 167 176.5t136 140.5t96.5 103.5t71.5 90t36.5 73t14.5 78.5q0 85 -59 135.5t-160 50.5q-77 0 -132.5 -30t-101.5 -115
l-65 45q85 180 311 180q135 0 214 -72t79 -190q0 -51 -17 -100t-42 -89.5t-74.5 -96.5t-93.5 -100t-121 -122t-136 -141h504v-78z" />
    <glyph glyph-name="threequarters" unicode="&#xbe;" horiz-adv-x="1888" 
d="M713 811q0 -125 -83 -202t-227 -77q-223 0 -317 201l68 45q79 -166 249 -166q103 0 163.5 56t60.5 151q0 93 -62 145t-194 52h-76v78h55q117 0 182.5 49.5t65.5 138.5q0 82 -55.5 131t-155.5 49q-68 0 -118 -29t-93 -100l-61 51q78 158 276 158q137 0 215 -72t78 -182
q0 -72 -37.5 -132t-111.5 -89q81 -27 129.5 -94.5t48.5 -161.5zM518 -82h-96l948 1536h96zM1694 227v-227h-84v227h-467v90l444 652h107v-664h104v-78h-104zM1610 879l-387 -574h387v574z" />
    <glyph glyph-name="questiondown" unicode="&#xbf;" horiz-adv-x="1005" 
d="M449 1022q40 0 61.5 -22t21.5 -62q0 -38 -22 -60t-61 -22q-40 0 -62 22t-22 60q0 40 22 62t62 22zM502 537q0 -97 -37.5 -158.5t-106.5 -114.5q-13 -9 -46.5 -33.5t-48.5 -36.5t-42.5 -36.5t-40.5 -45.5t-28.5 -51.5t-22 -67t-6.5 -79.5q0 -152 88 -232.5t242 -80.5
q112 0 189.5 49.5t131.5 163.5l76 -31q-101 -264 -401 -264q-196 0 -304 102.5t-108 290.5q0 59 11.5 110.5t28.5 88t45 70.5t52.5 56t58.5 48q12 9 44.5 32.5t45 34t35.5 31.5t32.5 37t17.5 39.5t8 48.5v162h86v-133z" />
    <glyph glyph-name="Agrave" unicode="&#xc0;" horiz-adv-x="1343" 
d="M455 1894h96l164 -313h-66zM326 518l-213 -518h-97l615 1454h82l614 -1454h-96l-213 518h-692zM672 1360l-312 -760h625z" />
    <glyph glyph-name="Aacute" unicode="&#xc1;" horiz-adv-x="1343" 
d="M643 1581l164 313h96l-194 -313h-66zM326 518l-213 -518h-97l615 1454h82l614 -1454h-96l-213 518h-692zM672 1360l-312 -760h625z" />
    <glyph glyph-name="Acircumflex" unicode="&#xc2;" horiz-adv-x="1343" 
d="M336 1602l301 292h65l304 -292h-99l-235 235l-238 -235h-98zM326 518l-213 -518h-97l615 1454h82l614 -1454h-96l-213 518h-692zM672 1360l-312 -760h625z" />
    <glyph glyph-name="Atilde" unicode="&#xc3;" horiz-adv-x="1343" 
d="M502 1778q-121 0 -140 -127h-65q6 54 27.5 93t53 58.5t63 28t67.5 8.5q74 0 174 -49q100 -53 162 -53q112 0 133 116h65q-7 -88 -61 -133t-143 -45q-43 0 -85.5 12t-60 21t-61.5 33q-72 37 -129 37zM326 518l-213 -518h-97l615 1454h82l614 -1454h-96l-213 518h-692z
M672 1360l-312 -760h625z" />
    <glyph glyph-name="Adieresis" unicode="&#xc4;" horiz-adv-x="1343" 
d="M477 1710q-29 0 -49 18.5t-20 53.5q0 33 20 51t49 18t49.5 -18t20.5 -51q0 -35 -20.5 -53.5t-49.5 -18.5zM858 1710q-29 0 -49.5 18.5t-20.5 53.5q0 33 20.5 51t49.5 18t49.5 -18t20.5 -51q0 -35 -20.5 -53.5t-49.5 -18.5zM326 518l-213 -518h-97l615 1454h82l614 -1454
h-96l-213 518h-692zM672 1360l-312 -760h625z" />
    <glyph glyph-name="Aring" unicode="&#xc5;" horiz-adv-x="1343" 
d="M672 1507q-103 0 -162 58t-59 155q0 98 59 156.5t162 58.5q102 0 160.5 -58.5t58.5 -156.5q0 -96 -58.5 -154.5t-160.5 -58.5zM668 1876q-72 0 -113 -41.5t-41 -114.5t41 -113t113 -40q73 0 116 40.5t43 112.5q0 73 -43 114.5t-116 41.5zM326 518l-213 -518h-97l615 1454
h82l614 -1454h-96l-213 518h-692zM672 1360l-312 -760h625z" />
    <glyph glyph-name="AE" unicode="&#xc6;" horiz-adv-x="2000" 
d="M1059 805h801v-82h-801v-641h835v-82h-917v518h-623l-272 -518h-96l782 1454h1126v-82h-835v-567zM977 1372h-172l-408 -772h580v772z" />
    <glyph glyph-name="Ccedilla" unicode="&#xc7;" horiz-adv-x="1495" 
d="M1356 346q-78 -187 -233.5 -284t-360.5 -99l-31 -84q256 -17 256 -178q0 -88 -60.5 -130t-156.5 -42q-118 0 -223 55l26 56q97 -46 201 -46q65 0 106.5 25.5t41.5 77.5q0 119 -283 127l47 141q-131 12 -239.5 66.5t-188 148t-124 233.5t-44.5 314q0 185 50.5 331.5
t140 240.5t211 143t266.5 49q186 0 332 -79t231 -232l-76 -43q-73 132 -198.5 202t-288.5 70q-265 0 -423.5 -181t-158.5 -501t158.5 -501t423.5 -181q180 0 314.5 86.5t203.5 247.5z" />
    <glyph glyph-name="Egrave" unicode="&#xc8;" horiz-adv-x="1214" 
d="M651 1581h-65l-195 313h96zM236 1372v-567h796v-82h-796v-641h872v-82h-958v1454h958v-82h-872z" />
    <glyph glyph-name="Eacute" unicode="&#xc9;" horiz-adv-x="1214" 
d="M580 1581l163 313h97l-195 -313h-65zM236 1372v-567h796v-82h-796v-641h872v-82h-958v1454h958v-82h-872z" />
    <glyph glyph-name="Ecircumflex" unicode="&#xca;" horiz-adv-x="1214" 
d="M844 1602l-236 235l-237 -235h-99l301 292h66l303 -292h-98zM236 1372v-567h796v-82h-796v-641h872v-82h-958v1454h958v-82h-872z" />
    <glyph glyph-name="Edieresis" unicode="&#xcb;" horiz-adv-x="1214" 
d="M414 1851q29 0 49 -18t20 -51q0 -35 -20 -53.5t-49 -18.5t-49.5 18.5t-20.5 53.5q0 33 20.5 51t49.5 18zM795 1851q29 0 49 -18t20 -51q0 -35 -20 -53.5t-49 -18.5t-49.5 18.5t-20.5 53.5q0 33 20.5 51t49.5 18zM236 1372v-567h796v-82h-796v-641h872v-82h-958v1454h958
v-82h-872z" />
    <glyph glyph-name="Igrave" unicode="&#xcc;" horiz-adv-x="385" 
d="M236 1581h-66l-195 313h97zM150 0v1454h86v-1454h-86z" />
    <glyph glyph-name="Iacute" unicode="&#xcd;" horiz-adv-x="385" 
d="M164 1581l164 313h96l-195 -313h-65zM150 0v1454h86v-1454h-86z" />
    <glyph glyph-name="Icircumflex" unicode="&#xce;" horiz-adv-x="385" 
d="M428 1602l-235 235l-238 -235h-98l301 292h65l303 -292h-98zM150 0v1454h86v-1454h-86z" />
    <glyph glyph-name="Idieresis" unicode="&#xcf;" horiz-adv-x="385" 
d="M-2 1851q29 0 49.5 -18t20.5 -51q0 -35 -20.5 -53.5t-49.5 -18.5t-49.5 18.5t-20.5 53.5q0 33 20.5 51t49.5 18zM379 1851q29 0 49.5 -18t20.5 -51q0 -35 -20.5 -53.5t-49.5 -18.5t-49.5 18.5t-20.5 53.5q0 33 20.5 51t49.5 18zM150 0v1454h86v-1454h-86z" />
    <glyph glyph-name="Eth" unicode="&#xd0;" horiz-adv-x="1400" 
d="M643 1454q149 0 272 -46.5t214 -136t141.5 -228.5t50.5 -316t-50.5 -316t-141 -228.5t-213.5 -136t-271 -46.5h-485v723h-142v82h142v649h483zM664 82q116 0 219 43.5t181.5 123.5t124.5 203.5t46 274.5t-46 274.5t-124.5 203.5t-181.5 123.5t-219 43.5h-418v-567h491
v-82h-491v-641h418z" />
    <glyph glyph-name="Ntilde" unicode="&#xd1;" horiz-adv-x="1429" 
d="M1085 1853q-7 -88 -61 -133t-143 -45q-43 0 -85.5 12t-60 21t-61.5 33q-72 37 -129 37q-120 0 -139 -127h-66q6 54 27.5 93t53 58.5t63 28t67.5 8.5q74 0 174 -49q100 -53 162 -53q112 0 133 116h65zM1202 0l-962 1309h-4v-1309h-86v1454h77l963 -1309h4v1309h86v-1454
h-78z" />
    <glyph glyph-name="Ograve" unicode="&#xd2;" horiz-adv-x="1515" 
d="M801 1581h-66l-194 313h96zM758 1491q145 0 266 -49t211 -143t140 -240.5t50 -331.5t-50 -331.5t-140 -240.5t-211 -143t-266 -49t-266.5 49t-211 143t-140 240.5t-50.5 331.5t50.5 331.5t140 240.5t211 143t266.5 49zM758 1409q-265 0 -423.5 -181t-158.5 -501
t158.5 -501t423.5 -181t423 181t158 501t-158 501t-423 181z" />
    <glyph glyph-name="Oacute" unicode="&#xd3;" horiz-adv-x="1515" 
d="M729 1581l164 313h96l-194 -313h-66zM758 1491q145 0 266 -49t211 -143t140 -240.5t50 -331.5t-50 -331.5t-140 -240.5t-211 -143t-266 -49t-266.5 49t-211 143t-140 240.5t-50.5 331.5t50.5 331.5t140 240.5t211 143t266.5 49zM758 1409q-265 0 -423.5 -181t-158.5 -501
t158.5 -501t423.5 -181t423 181t158 501t-158 501t-423 181z" />
    <glyph glyph-name="Ocircumflex" unicode="&#xd4;" horiz-adv-x="1515" 
d="M993 1602l-235 235l-238 -235h-98l301 292h65l304 -292h-99zM758 1491q145 0 266 -49t211 -143t140 -240.5t50 -331.5t-50 -331.5t-140 -240.5t-211 -143t-266 -49t-266.5 49t-211 143t-140 240.5t-50.5 331.5t50.5 331.5t140 240.5t211 143t266.5 49zM758 1409
q-265 0 -423.5 -181t-158.5 -501t158.5 -501t423.5 -181t423 181t158 501t-158 501t-423 181z" />
    <glyph glyph-name="Otilde" unicode="&#xd5;" horiz-adv-x="1515" 
d="M1128 1853q-7 -88 -61 -133t-143 -45q-43 0 -85.5 12t-60 21t-61.5 33q-72 37 -129 37q-120 0 -139 -127h-66q6 54 27.5 93t53 58.5t63 28t67.5 8.5q74 0 174 -49q100 -53 162 -53q112 0 133 116h65zM758 1491q145 0 266 -49t211 -143t140 -240.5t50 -331.5t-50 -331.5
t-140 -240.5t-211 -143t-266 -49t-266.5 49t-211 143t-140 240.5t-50.5 331.5t50.5 331.5t140 240.5t211 143t266.5 49zM758 1409q-265 0 -423.5 -181t-158.5 -501t158.5 -501t423.5 -181t423 181t158 501t-158 501t-423 181z" />
    <glyph glyph-name="Odieresis" unicode="&#xd6;" horiz-adv-x="1515" 
d="M563 1851q29 0 49.5 -18t20.5 -51q0 -35 -20.5 -53.5t-49.5 -18.5t-49 18.5t-20 53.5q0 33 20 51t49 18zM944 1851q29 0 49.5 -18t20.5 -51q0 -35 -20.5 -53.5t-49.5 -18.5t-49.5 18.5t-20.5 53.5q0 33 20.5 51t49.5 18zM758 1491q145 0 266 -49t211 -143t140 -240.5
t50 -331.5t-50 -331.5t-140 -240.5t-211 -143t-266 -49t-266.5 49t-211 143t-140 240.5t-50.5 331.5t50.5 331.5t140 240.5t211 143t266.5 49zM758 1409q-265 0 -423.5 -181t-158.5 -501t158.5 -501t423.5 -181t423 181t158 501t-158 501t-423 181z" />
    <glyph glyph-name="multiply" unicode="&#xd7;" horiz-adv-x="1208" 
d="M1110 88l-57 -57l-435 434l-434 -434l-57 57l434 434l-434 434l57 58l434 -434l435 434l57 -58l-434 -434z" />
    <glyph glyph-name="Oslash" unicode="&#xd8;" horiz-adv-x="1515" 
d="M1227 1317q209 -206 209 -590q0 -185 -50.5 -331.5t-140 -240.5t-211 -143t-266.5 -49q-245 0 -410 131l-104 -147l-68 47l111 156q-197 203 -197 577q0 185 50.5 331.5t140 240.5t211 143t266.5 49q230 0 395 -121l99 137l65 -51zM186 727q0 -320 162 -506l766 1079
q-142 109 -346 109q-265 0 -423.5 -181t-158.5 -501zM768 45q265 0 423.5 181t158.5 501q0 335 -174 518l-768 -1081q146 -119 360 -119z" />
    <glyph glyph-name="Ugrave" unicode="&#xd9;" horiz-adv-x="1388" 
d="M737 1581h-65l-195 313h96zM1249 498q0 -170 -73 -292.5t-197 -182.5t-285 -60t-285 60t-197 182.5t-73 292.5v956h86v-956q0 -219 128 -336t341 -117t341 117t128 336v956h86v-956z" />
    <glyph glyph-name="Uacute" unicode="&#xda;" horiz-adv-x="1388" 
d="M666 1581l163 313h97l-195 -313h-65zM1249 498q0 -170 -73 -292.5t-197 -182.5t-285 -60t-285 60t-197 182.5t-73 292.5v956h86v-956q0 -219 128 -336t341 -117t341 117t128 336v956h86v-956z" />
    <glyph glyph-name="Ucircumflex" unicode="&#xdb;" horiz-adv-x="1388" 
d="M930 1602l-236 235l-237 -235h-99l301 292h66l303 -292h-98zM1249 498q0 -170 -73 -292.5t-197 -182.5t-285 -60t-285 60t-197 182.5t-73 292.5v956h86v-956q0 -219 128 -336t341 -117t341 117t128 336v956h86v-956z" />
    <glyph glyph-name="Udieresis" unicode="&#xdc;" horiz-adv-x="1388" 
d="M500 1851q29 0 49 -18t20 -51q0 -35 -20 -53.5t-49 -18.5t-49.5 18.5t-20.5 53.5q0 33 20.5 51t49.5 18zM881 1851q29 0 49 -18t20 -51q0 -35 -20 -53.5t-49 -18.5t-49.5 18.5t-20.5 53.5q0 33 20.5 51t49.5 18zM1249 498q0 -170 -73 -292.5t-197 -182.5t-285 -60
t-285 60t-197 182.5t-73 292.5v956h86v-956q0 -219 128 -336t341 -117t341 117t128 336v956h86v-956z" />
    <glyph glyph-name="Yacute" unicode="&#xdd;" horiz-adv-x="1232" 
d="M588 1581l164 313h96l-195 -313h-65zM659 0h-86v621l-563 833h96l508 -747h4l508 747h97l-564 -833v-621z" />
    <glyph glyph-name="Thorn" unicode="&#xde;" horiz-adv-x="1189" 
d="M649 1221q124 0 217 -35.5t148.5 -99t82.5 -144.5t27 -178q0 -212 -121.5 -343.5t-353.5 -131.5h-413v-289h-86v1454h86v-233h413zM236 371h397q203 0 304 102.5t101 290.5q0 375 -409 375h-393v-768z" />
    <glyph glyph-name="germandbls" unicode="&#xdf;" horiz-adv-x="1110" 
d="M680 819q184 -35 274 -147.5t90 -270.5q0 -186 -112.5 -306t-302.5 -120q-67 0 -136 16t-114 46l39 63q37 -23 98 -38t119 -15q145 0 236.5 97t91.5 264q0 177 -115 268t-352 100v72q156 6 253 96t97 230q0 128 -82.5 204t-220.5 76q-161 0 -249.5 -110.5t-88.5 -327.5
v-1016h-76v1016q0 247 107.5 378.5t304.5 131.5q176 0 281.5 -98.5t105.5 -253.5q0 -122 -66.5 -214.5t-181.5 -140.5z" />
    <glyph glyph-name="agrave" unicode="&#xe0;" horiz-adv-x="1099" 
d="M573 1212h-65l-195 314h97zM541 1022q118 0 210 -43.5t144 -126.5v141h76v-993h-76v139q-52 -83 -144 -126.5t-210 -43.5q-219 0 -347 145t-128 382t128 381.5t347 144.5zM539 950q-180 0 -286 -122t-106 -332t106 -332.5t288 -122.5q132 0 227.5 66t126.5 190v377
q-33 136 -128 206t-228 70z" />
    <glyph glyph-name="aacute" unicode="&#xe1;" horiz-adv-x="1099" 
d="M520 1212l164 314h96l-194 -314h-66zM541 1022q118 0 210 -43.5t144 -126.5v141h76v-993h-76v139q-52 -83 -144 -126.5t-210 -43.5q-219 0 -347 145t-128 382t128 381.5t347 144.5zM539 950q-180 0 -286 -122t-106 -332t106 -332.5t288 -122.5q132 0 227.5 66t126.5 190
v377q-33 136 -128 206t-228 70z" />
    <glyph glyph-name="acircumflex" unicode="&#xe2;" horiz-adv-x="1099" 
d="M786 1233l-235 235l-238 -235h-98l301 293h66l303 -293h-99zM541 1022q118 0 210 -43.5t144 -126.5v141h76v-993h-76v139q-52 -83 -144 -126.5t-210 -43.5q-219 0 -347 145t-128 382t128 381.5t347 144.5zM539 950q-180 0 -286 -122t-106 -332t106 -332.5t288 -122.5
q132 0 227.5 66t126.5 190v377q-33 136 -128 206t-228 70z" />
    <glyph glyph-name="atilde" unicode="&#xe3;" horiz-adv-x="1099" 
d="M924 1485q-7 -88 -61.5 -133t-143.5 -45q-38 0 -75 9t-57.5 18.5t-54.5 27.5q-88 47 -149 47q-120 0 -139 -127h-66q6 54 27.5 93t53 58.5t63 28t67.5 8.5q37 0 75 -10t60 -20t58 -29q84 -43 143 -43q112 0 133 117h66zM541 1022q118 0 210 -43.5t144 -126.5v141h76v-993
h-76v139q-52 -83 -144 -126.5t-210 -43.5q-219 0 -347 145t-128 382t128 381.5t347 144.5zM539 950q-180 0 -286 -122t-106 -332t106 -332.5t288 -122.5q132 0 227.5 66t126.5 190v377q-33 136 -128 206t-228 70z" />
    <glyph glyph-name="adieresis" unicode="&#xe4;" horiz-adv-x="1099" 
d="M348 1483q29 0 49.5 -18.5t20.5 -51.5q0 -35 -20.5 -53.5t-49.5 -18.5t-49 18.5t-20 53.5q0 33 20.5 51.5t48.5 18.5zM729 1483q29 0 49.5 -18.5t20.5 -51.5q0 -35 -20.5 -53.5t-49.5 -18.5t-49.5 18.5t-20.5 53.5q0 33 20.5 51.5t49.5 18.5zM541 1022q118 0 210 -43.5
t144 -126.5v141h76v-993h-76v139q-52 -83 -144 -126.5t-210 -43.5q-219 0 -347 145t-128 382t128 381.5t347 144.5zM539 950q-180 0 -286 -122t-106 -332t106 -332.5t288 -122.5q132 0 227.5 66t126.5 190v377q-33 136 -128 206t-228 70z" />
    <glyph glyph-name="aring" unicode="&#xe5;" horiz-adv-x="1099" 
d="M551 1567q102 0 160.5 -58.5t58.5 -156.5q0 -96 -58.5 -154.5t-160.5 -58.5q-103 0 -162 58t-59 155q0 98 59 156.5t162 58.5zM547 1507q-72 0 -113 -41t-41 -114t41 -113.5t113 -40.5q73 0 116.5 41t43.5 113q0 73 -43.5 114t-116.5 41zM541 1022q118 0 210 -43.5
t144 -126.5v141h76v-993h-76v139q-52 -83 -144 -126.5t-210 -43.5q-219 0 -347 145t-128 382t128 381.5t347 144.5zM539 950q-180 0 -286 -122t-106 -332t106 -332.5t288 -122.5q132 0 227.5 66t126.5 190v377q-33 136 -128 206t-228 70z" />
    <glyph glyph-name="ae" unicode="&#xe6;" horiz-adv-x="1898" 
d="M1806 535q0 -27 -2 -50h-833q3 -200 109 -319t280 -119q119 0 215 57.5t151 155.5l68 -35q-59 -114 -170.5 -182t-257.5 -68q-132 0 -233.5 61t-161.5 169v-205h-76v139q-52 -83 -144 -126.5t-210 -43.5q-219 0 -347 145t-128 382t128 381.5t347 144.5q118 0 210 -43.5
t144 -126.5v141h76v-207q59 109 159.5 169.5t227.5 60.5q203 0 325.5 -135.5t122.5 -345.5zM901 674q-33 136 -131 206t-231 70q-180 0 -286 -122t-106 -332t106 -332.5t288 -122.5q132 0 230.5 66t129.5 190v377zM1358 944q-161 0 -264.5 -104t-120.5 -283h753
q-11 179 -109.5 283t-258.5 104z" />
    <glyph glyph-name="ccedilla" unicode="&#xe7;" horiz-adv-x="991" 
d="M524 -25l-35 -96q256 -17 256 -178q0 -88 -60.5 -130t-156.5 -42q-118 0 -223 55l27 56q97 -46 200 -46q65 0 106.5 25.5t41.5 77.5q0 119 -283 127l54 158q-177 28 -281 167.5t-104 346.5q0 232 127.5 376t338.5 144q261 0 386 -230l-70 -41q-110 199 -316 199
q-173 0 -279 -122.5t-106 -325.5t106.5 -326t272.5 -123q110 0 195 56t137 157l68 -35q-56 -118 -156.5 -184t-239.5 -66h-6z" />
    <glyph glyph-name="egrave" unicode="&#xe8;" horiz-adv-x="1071" 
d="M299 1526h96l164 -314h-65zM979 535q0 -27 -2 -50h-834q3 -200 109 -319t280 -119q119 0 215.5 57.5t151.5 155.5l68 -35q-59 -114 -170.5 -182t-257.5 -68q-217 0 -345 144.5t-128 376.5t127.5 376t336.5 144q203 0 326 -135.5t123 -345.5zM530 944q-161 0 -264.5 -104
t-120.5 -283h754q-11 179 -110 283t-259 104z" />
    <glyph glyph-name="eacute" unicode="&#xe9;" horiz-adv-x="1071" 
d="M506 1212l164 314h96l-195 -314h-65zM979 535q0 -27 -2 -50h-834q3 -200 109 -319t280 -119q119 0 215.5 57.5t151.5 155.5l68 -35q-59 -114 -170.5 -182t-257.5 -68q-217 0 -345 144.5t-128 376.5t127.5 376t336.5 144q203 0 326 -135.5t123 -345.5zM530 944
q-161 0 -264.5 -104t-120.5 -283h754q-11 179 -110 283t-259 104z" />
    <glyph glyph-name="ecircumflex" unicode="&#xea;" horiz-adv-x="1071" 
d="M201 1233l301 293h65l303 -293h-98l-235 235l-238 -235h-98zM979 535q0 -27 -2 -50h-834q3 -200 109 -319t280 -119q119 0 215.5 57.5t151.5 155.5l68 -35q-59 -114 -170.5 -182t-257.5 -68q-217 0 -345 144.5t-128 376.5t127.5 376t336.5 144q203 0 326 -135.5
t123 -345.5zM530 944q-161 0 -264.5 -104t-120.5 -283h754q-11 179 -110 283t-259 104z" />
    <glyph glyph-name="edieresis" unicode="&#xeb;" horiz-adv-x="1071" 
d="M334 1341q-29 0 -49.5 18.5t-20.5 53.5q0 33 20.5 51.5t49.5 18.5q28 0 48.5 -18.5t20.5 -51.5q0 -35 -20 -53.5t-49 -18.5zM715 1341q-29 0 -49.5 18.5t-20.5 53.5q0 33 20.5 51.5t49.5 18.5q28 0 48.5 -18.5t20.5 -51.5q0 -35 -20 -53.5t-49 -18.5zM979 535
q0 -27 -2 -50h-834q3 -200 109 -319t280 -119q119 0 215.5 57.5t151.5 155.5l68 -35q-59 -114 -170.5 -182t-257.5 -68q-217 0 -345 144.5t-128 376.5t127.5 376t336.5 144q203 0 326 -135.5t123 -345.5zM530 944q-161 0 -264.5 -104t-120.5 -283h754q-11 179 -110 283
t-259 104z" />
    <glyph glyph-name="igrave" unicode="&#xec;" horiz-adv-x="333" 
d="M190 1212h-65l-195 314h97zM129 0v993h76v-993h-76z" />
    <glyph glyph-name="iacute" unicode="&#xed;" horiz-adv-x="333" 
d="M137 1212l164 314h96l-194 -314h-66zM129 0v993h76v-993h-76z" />
    <glyph glyph-name="icircumflex" unicode="&#xee;" horiz-adv-x="333" 
d="M403 1233l-235 235l-238 -235h-98l301 293h66l303 -293h-99zM129 0v993h76v-993h-76z" />
    <glyph glyph-name="idieresis" unicode="&#xef;" horiz-adv-x="333" 
d="M-35 1483q29 0 49.5 -18.5t20.5 -51.5q0 -35 -20.5 -53.5t-49.5 -18.5t-49 18.5t-20 53.5q0 33 20.5 51.5t48.5 18.5zM346 1483q29 0 49.5 -18.5t20.5 -51.5q0 -35 -20.5 -53.5t-49.5 -18.5t-49.5 18.5t-20.5 53.5q0 33 20.5 51.5t49.5 18.5zM129 0v993h76v-993h-76z" />
    <glyph glyph-name="eth" unicode="&#xf0;" horiz-adv-x="1110" 
d="M731 1307q313 -260 313 -717q0 -295 -126.5 -455t-358.5 -160q-226 0 -359.5 144t-133.5 377q0 232 132.5 376t350.5 144q119 0 218 -44.5t161 -117.5l4 4q-60 254 -273 418l-356 -160l-27 60l322 143q-127 84 -301 135l18 62q201 -54 359 -164l174 78l26 -60zM553 47
q194 0 303 141.5t109 419.5q0 45 -4 103q-139 233 -400 233q-190 0 -302 -121t-112 -327q0 -204 110 -326.5t296 -122.5z" />
    <glyph glyph-name="ntilde" unicode="&#xf1;" horiz-adv-x="1095" 
d="M922 1485q-7 -88 -61.5 -133t-143.5 -45q-38 0 -75 9t-57.5 18.5t-54.5 27.5q-88 47 -149 47q-120 0 -139 -127h-66q6 54 27.5 93t53 58.5t63 28t67.5 8.5q37 0 75 -10t60 -20t58 -29q84 -43 143 -43q112 0 133 117h66zM582 1016q203 0 303 -110t100 -343v-563h-76v553
q0 209 -86.5 300t-247.5 91q-257 0 -370 -225v-719h-76v993h76v-157q70 92 158.5 136t218.5 44z" />
    <glyph glyph-name="ograve" unicode="&#xf2;" horiz-adv-x="1089" 
d="M567 1212h-65l-195 314h96zM545 1016q224 0 351.5 -143t127.5 -377t-127.5 -377.5t-351.5 -143.5t-351.5 143.5t-127.5 377.5t127.5 377t351.5 143zM545 944q-185 0 -291.5 -121t-106.5 -327q0 -207 106.5 -328t291.5 -121q184 0 290.5 121.5t106.5 327.5t-106.5 327
t-290.5 121z" />
    <glyph glyph-name="oacute" unicode="&#xf3;" horiz-adv-x="1089" 
d="M514 1212l164 314h96l-194 -314h-66zM545 1016q224 0 351.5 -143t127.5 -377t-127.5 -377.5t-351.5 -143.5t-351.5 143.5t-127.5 377.5t127.5 377t351.5 143zM545 944q-185 0 -291.5 -121t-106.5 -327q0 -207 106.5 -328t291.5 -121q184 0 290.5 121.5t106.5 327.5
t-106.5 327t-290.5 121z" />
    <glyph glyph-name="ocircumflex" unicode="&#xf4;" horiz-adv-x="1089" 
d="M780 1233l-235 235l-238 -235h-98l301 293h65l304 -293h-99zM545 1016q224 0 351.5 -143t127.5 -377t-127.5 -377.5t-351.5 -143.5t-351.5 143.5t-127.5 377.5t127.5 377t351.5 143zM545 944q-185 0 -291.5 -121t-106.5 -327q0 -207 106.5 -328t291.5 -121
q184 0 290.5 121.5t106.5 327.5t-106.5 327t-290.5 121z" />
    <glyph glyph-name="otilde" unicode="&#xf5;" horiz-adv-x="1089" 
d="M918 1485q-7 -88 -61.5 -133t-143.5 -45q-38 0 -75 9t-57.5 18.5t-54.5 27.5q-88 47 -149 47q-120 0 -139 -127h-66q6 54 27.5 93t53 58.5t63 28t67.5 8.5q37 0 74.5 -10t59 -20t58.5 -29q84 -43 144 -43q112 0 133 117h66zM545 1016q224 0 351.5 -143t127.5 -377
t-127.5 -377.5t-351.5 -143.5t-351.5 143.5t-127.5 377.5t127.5 377t351.5 143zM545 944q-185 0 -291.5 -121t-106.5 -327q0 -207 106.5 -328t291.5 -121q184 0 290.5 121.5t106.5 327.5t-106.5 327t-290.5 121z" />
    <glyph glyph-name="odieresis" unicode="&#xf6;" horiz-adv-x="1089" 
d="M342 1483q29 0 49.5 -18.5t20.5 -51.5q0 -35 -20.5 -53.5t-49.5 -18.5t-49.5 18.5t-20.5 53.5q0 33 20.5 51.5t49.5 18.5zM723 1483q29 0 49.5 -18.5t20.5 -51.5q0 -35 -20.5 -53.5t-49.5 -18.5t-49.5 18.5t-20.5 53.5q0 33 20.5 51.5t49.5 18.5zM545 1016
q224 0 351.5 -143t127.5 -377t-127.5 -377.5t-351.5 -143.5t-351.5 143.5t-127.5 377.5t127.5 377t351.5 143zM545 944q-185 0 -291.5 -121t-106.5 -327q0 -207 106.5 -328t291.5 -121q184 0 290.5 121.5t106.5 327.5t-106.5 327t-290.5 121z" />
    <glyph glyph-name="divide" unicode="&#xf7;" horiz-adv-x="1236" 
d="M618 1077q54 0 84.5 -30t30.5 -84t-30.5 -83.5t-84.5 -29.5t-84 29.5t-30 83.5t30 84t84 30zM96 481v82h1045v-82h-1045zM618 195q54 0 84.5 -29.5t30.5 -83.5t-30.5 -84.5t-84.5 -30.5t-84 30.5t-30 84.5t30 83.5t84 29.5z" />
    <glyph glyph-name="oslash" unicode="&#xf8;" horiz-adv-x="1089" 
d="M901 879q133 -142 133 -383q0 -234 -127.5 -377.5t-351.5 -143.5q-177 0 -301 97l-76 -95l-61 43l82 103q-123 141 -123 373q0 234 127.5 377t351.5 143q174 0 291 -88l69 86l62 -43zM158 496q0 -191 92 -310l549 682q-102 76 -244 76q-185 0 -291 -120.5t-106 -327.5z
M555 47q184 0 290.5 121.5t106.5 327.5q0 195 -100 319l-551 -684q105 -84 254 -84z" />
    <glyph glyph-name="ugrave" unicode="&#xf9;" horiz-adv-x="1075" 
d="M561 1212h-65l-195 314h96zM870 0v158q-71 -92 -158.5 -136.5t-217.5 -44.5q-193 0 -288 110.5t-95 342.5v563h75v-553q0 -107 22 -184t64.5 -121.5t98.5 -65t129 -20.5q258 0 370 225v719h76v-993h-76z" />
    <glyph glyph-name="uacute" unicode="&#xfa;" horiz-adv-x="1075" 
d="M508 1212l164 314h96l-195 -314h-65zM870 0v158q-71 -92 -158.5 -136.5t-217.5 -44.5q-193 0 -288 110.5t-95 342.5v563h75v-553q0 -107 22 -184t64.5 -121.5t98.5 -65t129 -20.5q258 0 370 225v719h76v-993h-76z" />
    <glyph glyph-name="ucircumflex" unicode="&#xfb;" horiz-adv-x="1075" 
d="M774 1233l-235 235l-238 -235h-98l301 293h65l303 -293h-98zM870 0v158q-71 -92 -158.5 -136.5t-217.5 -44.5q-193 0 -288 110.5t-95 342.5v563h75v-553q0 -107 22 -184t64.5 -121.5t98.5 -65t129 -20.5q258 0 370 225v719h76v-993h-76z" />
    <glyph glyph-name="udieresis" unicode="&#xfc;" horiz-adv-x="1075" 
d="M336 1483q29 0 49.5 -18.5t20.5 -51.5q0 -35 -20.5 -53.5t-49.5 -18.5t-49.5 18.5t-20.5 53.5q0 33 20.5 51.5t49.5 18.5zM717 1483q28 0 48.5 -18.5t20.5 -51.5q0 -35 -20 -53.5t-49 -18.5t-49.5 18.5t-20.5 53.5q0 33 20.5 51.5t49.5 18.5zM870 0v158
q-71 -92 -158.5 -136.5t-217.5 -44.5q-193 0 -288 110.5t-95 342.5v563h75v-553q0 -107 22 -184t64.5 -121.5t98.5 -65t129 -20.5q258 0 370 225v719h76v-993h-76z" />
    <glyph glyph-name="yacute" unicode="&#xfd;" horiz-adv-x="1032" 
d="M487 1212l164 314h97l-195 -314h-66zM342 -492h-86l248 539l-481 946h86l432 -860l383 860h86z" />
    <glyph glyph-name="thorn" unicode="&#xfe;" horiz-adv-x="1099" 
d="M205 854q54 87 147 128.5t207 41.5q220 0 347.5 -144.5t127.5 -381.5t-127.5 -382t-347.5 -145q-114 0 -207 41.5t-147 128.5v-633h-76v1987h76v-641zM559 952q-132 0 -227.5 -66t-126.5 -190v-377q33 -136 128 -206t228 -70q180 0 285.5 122.5t105.5 332.5t-105.5 332
t-287.5 122z" />
    <glyph glyph-name="ydieresis" unicode="&#xff;" horiz-adv-x="1032" 
d="M315 1341q-29 0 -49 18.5t-20 53.5q0 33 20.5 51.5t48.5 18.5q29 0 49.5 -18.5t20.5 -51.5q0 -35 -20.5 -53.5t-49.5 -18.5zM696 1341q-29 0 -49 18.5t-20 53.5q0 33 20.5 51.5t48.5 18.5q29 0 49.5 -18.5t20.5 -51.5q0 -35 -20.5 -53.5t-49.5 -18.5zM342 -492h-86
l248 539l-481 946h86l432 -860l383 860h86z" />
    <glyph glyph-name="dotlessi" unicode="&#x131;" horiz-adv-x="333" 
d="M129 0v993h76v-993h-76z" />
    <glyph glyph-name="OE" unicode="&#x152;" horiz-adv-x="2301" 
d="M1378 805h742v-82h-742v-641h817v-82h-897v299q-76 -172 -214.5 -254t-325.5 -82q-145 0 -266.5 49t-211 143t-140 240.5t-50.5 331.5t50.5 331.5t140 240.5t211 143t266.5 49q187 0 325.5 -82t214.5 -254v299h897v-82h-817v-567zM758 45q214 0 358 135.5t182 380.5v332
q-38 245 -182 380.5t-358 135.5q-265 0 -423.5 -181t-158.5 -501t158.5 -501t423.5 -181z" />
    <glyph glyph-name="oe" unicode="&#x153;" horiz-adv-x="1947" 
d="M1855 535q0 -27 -2 -50h-833q3 -200 109 -319t280 -119q119 0 215.5 57.5t151.5 155.5l67 -35q-59 -114 -170.5 -182t-257.5 -68q-157 0 -269.5 79t-164.5 218q-50 -139 -163 -218t-273 -79q-224 0 -351.5 143.5t-127.5 377.5t127.5 377t351.5 143q160 0 273 -79
t163 -218q52 139 163 218t263 79q203 0 325.5 -135.5t122.5 -345.5zM545 47q184 0 290.5 121.5t106.5 327.5t-106.5 327t-290.5 121q-185 0 -291.5 -121t-106.5 -327q0 -207 106.5 -328t291.5 -121zM1407 944q-161 0 -264.5 -104t-120.5 -283h754q-11 179 -110 283t-259 104
z" />
    <glyph glyph-name="florin" unicode="&#x192;" horiz-adv-x="688" 
d="M565 1513q64 0 101 -40l-50 -62q-23 23 -51 23q-23 0 -43 -16t-24 -44l-68 -381h244l-15 -82h-243l-148 -817q-11 -63 -56 -97t-97 -34q-62 0 -101 39l49 64q22 -25 52 -25q24 0 42.5 15t24.5 44l146 811h-164l14 82h164l72 389q11 62 55.5 96.5t95.5 34.5z" />
    <glyph glyph-name="dotlessj" unicode="&#x237;" horiz-adv-x="333" 
d="M205 -205q-1 -69 -18.5 -123t-45 -87.5t-64.5 -55.5t-73 -30.5t-74 -8.5q-102 0 -180 55l35 62q65 -45 141 -45q85 0 144 55t59 168v1208h76v-1198z" />
    <glyph glyph-name="circumflex" unicode="&#x2c6;" horiz-adv-x="780" 
d="M627 1233l-236 235l-237 -235h-99l301 293h66l303 -293h-98z" />
    <glyph glyph-name="caron" unicode="&#x2c7;" horiz-adv-x="780" 
d="M356 1233l-301 293h99l237 -236l236 236h98l-303 -293h-66z" />
    <glyph glyph-name="breve" unicode="&#x2d8;" horiz-adv-x="772" 
d="M717 1526q-17 -150 -102 -224.5t-226 -74.5q-146 0 -232.5 75.5t-101.5 223.5h66q19 -123 90 -180.5t176 -57.5q224 0 264 238h66z" />
    <glyph glyph-name="dotaccent" unicode="&#x2d9;" horiz-adv-x="249" 
d="M125 1485q29 0 49.5 -18.5t20.5 -51.5q0 -35 -20.5 -53.5t-49.5 -18.5t-49.5 18.5t-20.5 53.5q0 33 20.5 51.5t49.5 18.5z" />
    <glyph glyph-name="ring" unicode="&#x2da;" horiz-adv-x="550" 
d="M276 1567q102 0 161 -58.5t59 -156.5q0 -96 -59 -154.5t-161 -58.5q-103 0 -162 58t-59 155q0 98 59 156.5t162 58.5zM272 1507q-72 0 -112.5 -41t-40.5 -114t40.5 -113.5t112.5 -40.5q73 0 116.5 41t43.5 113q0 73 -43.5 114t-116.5 41z" />
    <glyph glyph-name="tilde" unicode="&#x2dc;" horiz-adv-x="856" 
d="M801 1485q-7 -88 -61.5 -133t-143.5 -45q-38 0 -75 9.5t-57 18.5t-54 27q-88 47 -150 47q-120 0 -139 -127h-66q6 54 27.5 93t53 58.5t63 28t67.5 8.5q37 0 75 -10t60 -20t58 -29q84 -43 143 -43q112 0 133 117h66z" />
    <glyph glyph-name="hungarumlaut" unicode="&#x2dd;" horiz-adv-x="636" 
d="M66 1212l163 314h97l-195 -314h-65zM332 1212l164 314h96l-195 -314h-65z" />
    <glyph glyph-name="uni0394" unicode="&#x394;" horiz-adv-x="1304" 
d="M16 0l609 1454h69l594 -1454h-1272zM1182 72l-523 1282l-534 -1282h1057z" />
    <glyph glyph-name="uni03A9" unicode="&#x3a9;" horiz-adv-x="1544" 
d="M1368 799q0 -244 -85.5 -442.5t-229.5 -284.5h313v-72h-492v72q179 33 295.5 226.5t116.5 485.5q0 315 -138 475t-376 160t-376 -160t-138 -475q0 -292 116 -485.5t294 -226.5v-72h-492v72h316q-145 86 -230.5 284t-85.5 441q0 171 44.5 304t124.5 218t188.5 128.5
t238.5 43.5t238.5 -43.5t188.5 -128t124.5 -217.5t44.5 -303z" />
    <glyph glyph-name="pi" unicode="&#x3c0;" horiz-adv-x="1261" 
d="M956 922v-686q0 -93 46.5 -138t115.5 -45q19 0 51 4l15 -67q-31 -8 -68 -8q-94 0 -164.5 62t-70.5 183v695h-562v-922h-75v922h-183v71h1139v-71h-244z" />
    <glyph glyph-name="uni058F" unicode="&#x58f;" horiz-adv-x="1208" 
d="M981 438h205v-71h-205v-367h-86v367h-406v71h406v226h-406v71h406v234q0 209 -100 320.5t-267 111.5t-266.5 -111.5t-99.5 -320.5v-109h-86v109q0 243 126 378.5t326 135.5t326.5 -135.5t126.5 -378.5v-234h205v-71h-205v-226z" />
    <glyph glyph-name="uni09F3" unicode="&#x9f3;" horiz-adv-x="1216" 
d="M733 840q156 0 252 -106.5t96 -284.5q0 -98 -32 -184.5t-90.5 -151.5t-147.5 -102.5t-197 -37.5q-186 0 -278 108t-92 290v622h-125v72h125v215q0 92 -27.5 128t-97.5 36v72q113 0 162 -54.5t49 -158.5v-238h551v-72h-551v-622q0 -160 66.5 -238t211.5 -78
q180 0 283.5 110t103.5 288q0 148 -71 226.5t-195 78.5q-109 0 -184 -72l-47 64q93 90 235 90z" />
    <glyph glyph-name="uni0E3F" unicode="&#xe3f;" horiz-adv-x="1288" 
d="M901 729q138 -35 205.5 -129t67.5 -223q0 -171 -113.5 -274t-319.5 -103h-92v-131h-71v131h-398v1372h398v144h71v-144h56q110 0 193 -28t130.5 -76t70.5 -104t23 -120q0 -104 -57 -192t-164 -123zM578 764v526h-312v-526h312zM649 764h35q176 0 264 71.5t88 200.5
q0 254 -340 254h-47v-526zM578 682h-312v-600h312v600zM735 82q352 0 352 295q0 305 -387 305h-51v-600h86z" />
    <glyph glyph-name="uni17DB" unicode="&#x17db;" horiz-adv-x="913" 
d="M637 756l-6 -781h-58q-207 0 -331.5 96.5t-124.5 256.5q0 108 60 174.5t177 66.5q121 0 201 -71v258h-418v71h418v211q-135 24 -205 82.5t-112 190.5l36 49q93 -14 148 -14q127 0 272 67l31 -67q-171 -68 -299 -68q-49 0 -107 10l-2 -4q21 -50 52 -84t76 -54t87.5 -29.5
t108.5 -18.5l-2 -271h158v-71h-160zM199 330q0 -118 86.5 -195.5t269.5 -87.5v369q-73 82 -186 82q-170 0 -170 -168z" />
    <glyph glyph-name="endash" unicode="&#x2013;" horiz-adv-x="1052" 
d="M14 530v82h1024v-82h-1024z" />
    <glyph glyph-name="emdash" unicode="&#x2014;" horiz-adv-x="2056" 
d="M14 530v82h2028v-82h-2028z" />
    <glyph glyph-name="quoteleft" unicode="&#x2018;" horiz-adv-x="526" 
d="M141 1135q0 102 56.5 187.5t140.5 137.5l27 -39q-124 -92 -154 -229q50 0 73 -19.5t23 -62.5q0 -41 -22 -62.5t-62 -21.5q-82 0 -82 109z" />
    <glyph glyph-name="quoteright" unicode="&#x2019;" horiz-adv-x="526" 
d="M385 1274q0 -102 -56.5 -188t-140.5 -138l-26 39q123 90 153 230q-50 0 -73 19.5t-23 61.5q0 41 22 62.5t62 21.5q82 0 82 -108z" />
    <glyph glyph-name="quotesinglbase" unicode="&#x201a;" horiz-adv-x="526" 
d="M385 57q0 -102 -56.5 -187.5t-140.5 -137.5l-26 39q123 91 153 229q-50 0 -73 19.5t-23 62.5q0 41 22 62.5t62 21.5q82 0 82 -109z" />
    <glyph glyph-name="quotedblleft" unicode="&#x201c;" horiz-adv-x="808" 
d="M131 1135q0 102 56.5 187.5t140.5 137.5l26 -39q-123 -91 -153 -229q50 0 73 -19.5t23 -62.5q0 -41 -22 -62.5t-62 -21.5q-82 0 -82 109zM414 1135q0 102 56 187.5t140 137.5l27 -39q-124 -92 -154 -229q50 0 73.5 -19.5t23.5 -62.5q0 -41 -22 -62.5t-62 -21.5
q-82 0 -82 109z" />
    <glyph glyph-name="quotedblright" unicode="&#x201d;" horiz-adv-x="808" 
d="M395 1274q0 -102 -56 -188t-140 -138l-27 39q124 91 154 230q-50 0 -73.5 19.5t-23.5 61.5q0 41 22 62.5t62 21.5q82 0 82 -108zM678 1274q0 -102 -56.5 -188t-140.5 -138l-26 39q123 90 153 230q-50 0 -73 19.5t-23 61.5q0 41 22 62.5t62 21.5q82 0 82 -108z" />
    <glyph glyph-name="quotedblbase" unicode="&#x201e;" horiz-adv-x="808" 
d="M385 57q0 -102 -56.5 -187.5t-140.5 -137.5l-26 39q123 91 153 229q-50 0 -73 19.5t-23 62.5q0 41 22 62.5t62 21.5q82 0 82 -109zM668 57q0 -102 -56.5 -187.5t-140.5 -137.5l-27 39q124 92 154 229q-50 0 -73 19.5t-23 62.5q0 41 22 62.5t62 21.5q82 0 82 -109z" />
    <glyph glyph-name="dagger" unicode="&#x2020;" horiz-adv-x="882" 
d="M479 -328h-76v1250h-327v71h327v461h76v-461h328v-71h-328v-1250z" />
    <glyph glyph-name="daggerdbl" unicode="&#x2021;" horiz-adv-x="882" 
d="M807 205v-72h-328v-461h-76v461h-327v72h327v717h-327v71h327v461h76v-461h328v-71h-328v-717h328z" />
    <glyph glyph-name="bullet" unicode="&#x2022;" horiz-adv-x="512" 
d="M254 897q76 0 119 -42.5t43 -119.5q0 -75 -42.5 -116t-119.5 -41q-75 0 -116.5 41t-41.5 116q0 76 42 119t116 43z" />
    <glyph glyph-name="ellipsis" unicode="&#x2026;" horiz-adv-x="2056" 
d="M342 145q40 0 62 -22t22 -60q0 -40 -22 -61.5t-62 -21.5t-62 21.5t-22 61.5q0 38 22 60t62 22zM1028 145q40 0 62 -22t22 -60q0 -40 -22 -61.5t-62 -21.5t-62 21.5t-22 61.5q0 38 22 60t62 22zM1714 145q40 0 62 -22t22 -60q0 -40 -22 -61.5t-62 -21.5t-62 21.5t-22 61.5
q0 38 22 60t62 22z" />
    <glyph glyph-name="perthousand" unicode="&#x2030;" horiz-adv-x="2211" 
d="M94 0l1262 1454h96l-1262 -1454h-96zM406 1454q134 0 211 -82.5t77 -216.5t-77 -216.5t-211 -82.5q-133 0 -210 82.5t-77 216.5t77 216.5t210 82.5zM406 1386q-97 0 -155 -63.5t-58 -167.5q0 -107 58 -169t155 -62q99 0 157 62t58 169q0 105 -58.5 168t-156.5 63z
M1149 598q133 0 210 -82.5t77 -216.5t-77 -216.5t-210 -82.5q-134 0 -211.5 82.5t-77.5 216.5t77.5 216.5t211.5 82.5zM1831 598q133 0 210 -82.5t77 -216.5t-77 -216.5t-210 -82.5q-134 0 -211.5 82.5t-77.5 216.5t77.5 216.5t211.5 82.5zM1147 530q-99 0 -156 -63
t-57 -168q0 -107 56.5 -169t156.5 -62q97 0 156 62.5t59 168.5q0 104 -59 167.5t-156 63.5zM1829 530q-99 0 -156 -63.5t-57 -167.5q0 -106 57 -168.5t156 -62.5q97 0 156 63t59 168q0 103 -59.5 167t-155.5 64z" />
    <glyph glyph-name="guilsinglleft" unicode="&#x2039;" horiz-adv-x="706" 
d="M176 623l414 -220v-81l-473 260v73l473 281v-82z" />
    <glyph glyph-name="guilsinglright" unicode="&#x203a;" horiz-adv-x="706" 
d="M580 582l-474 -260v81l414 220l-414 231v82l474 -281v-73z" />
    <glyph glyph-name="fraction" unicode="&#x2044;" horiz-adv-x="253" 
d="M-395 -82l948 1536h96l-948 -1536h-96z" />
    <glyph glyph-name="uni2070" unicode="&#x2070;" horiz-adv-x="815" 
d="M408 1665q158 0 238.5 -128t80.5 -376t-80.5 -377t-238.5 -129t-239 129t-81 377t81 376t239 128zM408 1585q-118 0 -176 -103t-58 -321q0 -219 58 -322.5t176 -103.5t175.5 103.5t57.5 322.5q0 218 -57.5 321t-175.5 103z" />
    <glyph glyph-name="uni2074" unicode="&#x2074;" horiz-adv-x="817" 
d="M623 903v-227h-84v227h-467v90l444 652h107v-664h104v-78h-104zM539 1554l-387 -573h387v573z" />
    <glyph glyph-name="uni2075" unicode="&#x2075;" horiz-adv-x="817" 
d="M401 1290q160 0 243 -82t83 -227q0 -151 -86 -238.5t-235 -87.5q-188 0 -306 158l62 51q57 -66 113.5 -97.5t130.5 -31.5q110 0 172.5 64.5t62.5 181.5q0 229 -252 229q-126 0 -188 -71l-62 14l109 492h442v-78h-383l-71 -320q64 43 165 43z" />
    <glyph glyph-name="uni2076" unicode="&#x2076;" horiz-adv-x="817" 
d="M432 1296q136 0 218.5 -87t82.5 -222q0 -148 -87.5 -238t-227.5 -90q-148 0 -233 85.5t-85 234.5q0 68 16.5 136t38.5 120.5t67.5 125t79.5 118.5t99 133q17 22 25 33h100q-226 -288 -297 -424q75 75 203 75zM414 737q105 0 168 64.5t63 181.5q0 114 -60 175t-171 61
q-109 0 -169.5 -61.5t-60.5 -174.5q0 -118 62.5 -182t167.5 -64z" />
    <glyph glyph-name="uni2077" unicode="&#x2077;" horiz-adv-x="817" 
d="M702 1583l-360 -907h-100l364 885h-534v84h630v-62z" />
    <glyph glyph-name="uni2078" unicode="&#x2078;" horiz-adv-x="835" 
d="M567 1182q70 -34 109 -97.5t39 -148.5q0 -125 -80.5 -203t-216.5 -78q-137 0 -218 78t-81 203q0 85 38.5 148t108.5 96q-61 31 -94 88t-33 133q0 116 76 190t203 74q126 0 201 -74t75 -190q0 -154 -127 -219zM416 1587q-85 0 -138 -52.5t-53 -137.5q0 -83 53 -135
t138 -52t138.5 52t53.5 135q0 85 -53.5 137.5t-138.5 52.5zM416 733q94 0 154.5 57.5t60.5 147.5t-60 145.5t-155 55.5q-94 0 -153.5 -56t-59.5 -145q0 -91 59.5 -148t153.5 -57z" />
    <glyph glyph-name="uni2079" unicode="&#x2079;" horiz-adv-x="817" 
d="M410 1663q142 0 225.5 -88.5t83.5 -243.5q0 -35 -5 -71.5t-11 -66.5t-21.5 -69.5t-25 -64t-33.5 -67.5t-34 -62t-40.5 -65.5t-40 -61t-44 -65.5t-42.5 -62h-100q210 298 268 426q-78 -78 -205 -78q-136 0 -217.5 87t-81.5 228q0 147 88.5 235.5t235.5 88.5zM406 1104
q110 0 169.5 60t59.5 173q0 118 -62 182t-167 64q-106 0 -170 -64.5t-64 -181.5q0 -113 61.5 -173t172.5 -60z" />
    <glyph glyph-name="colonmonetary" unicode="&#x20a1;" horiz-adv-x="1470" 
d="M1370 346q-76 -182 -223 -278t-340 -105l-14 -94h-72l14 94q-67 3 -151 23l-17 -117h-71l20 137q-191 68 -301.5 242t-110.5 438q0 168 46.5 302.5t130 223.5t196.5 138.5t248 56.5l16 109h72l-16 -107q82 -3 151 -20l19 127h71l-22 -148q206 -70 319 -270l-75 -43
q-88 163 -256 229l-185 -1237q164 11 285.5 96t185.5 236zM596 68q79 -20 149 -23l189 1262q-66 17 -150 20zM190 686q0 -223 89.5 -376.5t248.5 -219.5l185 1235q-239 -19 -381 -187t-142 -452z" />
    <glyph glyph-name="uni20A8" unicode="&#x20a8;" horiz-adv-x="2056" 
d="M1122 1044q0 -163 -88 -271t-256 -128l363 -645h-101l-350 641h-454v-641h-86v1454h559q108 0 189.5 -33.5t129 -91.5t71 -129.5t23.5 -155.5zM692 723q344 0 344 324q0 325 -346 325h-454v-649h456zM1640 547q58 -13 95.5 -24.5t83.5 -33.5t73 -49.5t45.5 -71.5
t18.5 -100q0 -133 -101 -213t-272 -80q-243 0 -387 168l51 54q61 -71 138.5 -110.5t201.5 -39.5q138 0 214.5 53t76.5 158q0 26 -5.5 48.5t-13 39.5t-23 32t-29 26t-37.5 21.5t-41.5 17t-48 14.5t-50.5 12t-55.5 12t-56.5 13q-65 15 -109.5 32t-86.5 46t-63.5 74.5
t-21.5 107.5q0 119 96.5 190.5t257.5 71.5q214 0 344 -127l-51 -53q-52 51 -121 79.5t-174 28.5q-131 0 -202.5 -47t-71.5 -137q0 -41 14.5 -71.5t31 -48t63 -35t74 -25t99.5 -23.5q9 -2 14.5 -3.5t13.5 -3t15 -3.5z" />
    <glyph glyph-name="uni20A9" unicode="&#x20a9;" horiz-adv-x="1779" 
d="M1501 530h225v-71h-243l-121 -459h-109l-139 459h-446l-140 -459h-108l-121 459h-240v71h222l-80 308h-142v71h123l-125 475h97l120 -475h443l119 394h110l119 -394h442l121 475h96l-125 -475h127v-71h-145zM977 909l-86 285l-86 -285h172zM602 530l94 308h-403l78 -308
h231zM999 838h-215l-94 -308h404zM1087 838l93 -308h231l80 308h-404zM389 459l88 -344l105 344h-193zM1200 459l105 -344l88 344h-193z" />
    <glyph glyph-name="uni20AA" unicode="&#x20aa;" horiz-adv-x="1421" 
d="M547 1384q193 0 288 -100.5t95 -290.5v-594h-86v594q0 146 -75 228t-222 82h-344v-1303h-86v1384h430zM1305 391q0 -190 -95 -290.5t-288 -100.5h-441v993h86v-911h355q147 0 222 81.5t75 227.5v993h86v-993z" />
    <glyph glyph-name="dong" unicode="&#x20ab;" 
d="M971 1237v-1237h-76v139q-54 -87 -147 -128.5t-207 -41.5q-220 0 -347.5 145t-127.5 382t127.5 381.5t347.5 144.5q114 0 207 -41.5t147 -128.5v385h-510v72h510v186h76v-186h157v-72h-157zM895 674q-33 136 -128 206t-228 70q-180 0 -286 -122t-106 -332t106 -332.5
t288 -122.5q132 0 227.5 66t126.5 190v377zM971 -186v-72h-905v72h905z" />
    <glyph glyph-name="Euro" unicode="&#x20ac;" horiz-adv-x="1114" 
d="M1049 190q-56 -101 -159.5 -161t-250.5 -60q-230 0 -335.5 121.5t-129.5 378.5h-108v72h104q-4 90 -4 145q0 82 2 121h-102v72h106q10 129 36.5 223.5t78 166.5t135.5 108t201 36q304 0 405 -252l-65 -35q-55 123 -136 170t-194 47q-104 0 -177 -32t-115.5 -96
t-63.5 -144t-29 -192h581v-72h-585q-2 -41 -2 -129q0 -94 2 -137h585v-72h-581q9 -106 31.5 -180t67.5 -132.5t121 -87t185 -28.5q228 0 334 184z" />
    <glyph glyph-name="uni20AD" unicode="&#x20ad;" horiz-adv-x="1173" 
d="M418 674l731 -674h-123l-719 674h-39v-674h-86v674h-145v71h145v639h86v-639h39l707 639h123l-711 -639h723v-71h-731z" />
    <glyph glyph-name="uni20AE" unicode="&#x20ae;" horiz-adv-x="1290" 
d="M688 788l350 121v-82l-350 -120v-236l350 121v-82l-350 -121v-389h-86v365l-350 -121v82l350 120v236l-350 -121v82l350 121v539h-557v81h1200v-81h-557v-515z" />
    <glyph glyph-name="uni20B2" unicode="&#x20b2;" horiz-adv-x="1474" 
d="M1374 614q0 -138 -32.5 -247.5t-87 -181.5t-131 -120.5t-160 -69.5t-177.5 -22v-104h-71v106q-134 9 -245 60t-193 139.5t-127.5 220.5t-45.5 295q0 164 45.5 296t127.5 221t193 140t245 60v109h71v-107q180 -3 322.5 -71.5t226.5 -194.5l-75 -43q-72 106 -194.5 165
t-279.5 62v-645h588v-68zM190 690q0 -280 142.5 -447t382.5 -186v1268q-240 -19 -382.5 -186.5t-142.5 -448.5zM786 55q237 5 367.5 143.5t136.5 401.5h-504v-545z" />
    <glyph glyph-name="uni20B4" unicode="&#x20b4;" horiz-adv-x="1366" 
d="M1034 889q-51 -54 -124.5 -85.5t-178.5 -58.5q-89 -22 -135.5 -35.5t-104 -36.5t-94.5 -50h863v-72h-908q-37 -61 -37 -160q0 -165 101 -249.5t266 -84.5q161 0 262 69.5t168 203.5l78 -33q-61 -151 -190 -236.5t-322 -85.5q-206 0 -327.5 109t-121.5 307q0 84 27 160
h-150v72h189q53 73 141 116.5t217 75.5q13 3 49.5 11.5t55.5 13t48 12.5t53 17t46 20h-799v72h873q53 66 53 165q0 142 -93 212.5t-247 70.5q-132 0 -222.5 -49t-158.5 -154l-67 54q140 231 454 231q195 0 307.5 -94.5t112.5 -272.5q0 -98 -35 -163h177v-72h-226z" />
    <glyph glyph-name="uni20B5" unicode="&#x20b5;" horiz-adv-x="1470" 
d="M1370 346q-77 -184 -226.5 -280.5t-344.5 -102.5v-94h-72v96q-135 6 -248 55.5t-197 138t-131 224t-47 303.5t47 302.5t130.5 224t197 139t248.5 55.5v109h72v-107q175 -6 313.5 -83.5t222.5 -227.5l-75 -43q-71 126 -188.5 196t-272.5 76v-1282q172 8 298.5 93.5
t192.5 240.5zM190 686q0 -289 145.5 -457t391.5 -182v1278q-246 -14 -391.5 -182t-145.5 -457z" />
    <glyph glyph-name="uni20B8" unicode="&#x20b8;" 
d="M80 1303v81h995v-81h-995zM621 1004v-1004h-86v1004h-455v81h995v-81h-454z" />
    <glyph glyph-name="uni20B9" unicode="&#x20b9;" 
d="M664 1303q155 -85 176 -277h180v-72h-178q-6 -125 -82 -212t-217 -117l344 -625h-99l-331 610q-23 -2 -70 -2h-250v82h236q365 0 383 264h-619v72h617q-13 125 -108 201t-277 76h-232v81h883v-81h-356z" />
    <glyph glyph-name="uni20BA" unicode="&#x20ba;" horiz-adv-x="1208" 
d="M1040 623q0 -159 -48 -278.5t-139.5 -194.5t-218 -112.5t-288.5 -37.5h-86v678l-184 -70v82l184 70v233l-184 -69v82l184 69v309h86v-276l426 164v-82l-426 -164v-233l426 163v-82l-426 -163v-629q608 0 608 541h86z" />
    <glyph glyph-name="ruble" unicode="&#x20bd;" horiz-adv-x="1208" 
d="M307 326h596v-72h-596v-254h-86v254h-143v72h143v209h-143v81h143v768h459q455 0 455 -415q0 -207 -114.5 -320.5t-340.5 -113.5h-373v-209zM664 616q197 0 291 85.5t94 267.5q0 173 -90 253.5t-300 80.5h-352v-687h357z" />
    <glyph glyph-name="trademark" unicode="&#x2122;" horiz-adv-x="1642" 
d="M719 1454v-65h-289v-736h-68v736h-290v65h647zM1501 1354l-287 -668h-67l-289 672l-2 -705h-65l10 801h80l301 -700l299 700h78l12 -801h-66z" />
    <glyph glyph-name="Omega" unicode="&#x2126;" horiz-adv-x="1560" 
d="M780 1409q-234 0 -374 -145t-140 -408q0 -233 109.5 -370t288.5 -146v-340h-568v82h482v192q-187 50 -292.5 201t-105.5 383q0 149 45 269.5t125 199.5t189.5 121.5t240.5 42.5t240.5 -42.5t189.5 -121.5t125 -199.5t45 -269.5q0 -232 -105.5 -383t-291.5 -201v-192h481
v-82h-567v340q179 9 288 146t109 370q0 263 -140 408t-374 145z" />
    <glyph glyph-name="partialdiff" unicode="&#x2202;" horiz-adv-x="1150" 
d="M539 1522q242 0 368.5 -203t126.5 -569q0 -377 -132.5 -579t-377.5 -202q-193 0 -297 122t-104 335q0 155 54 278t160 195t247 72q62 0 118 -15t109.5 -47.5t95.5 -93t66 -143.5q-13 778 -436 778q-140 0 -230.5 -82.5t-116.5 -237.5l-73 9q27 168 134 275.5t288 107.5z
M514 39q191 0 308 137t112 344q-4 179 -101 279t-249 100q-175 0 -280 -131t-105 -350q0 -192 83.5 -285.5t231.5 -93.5z" />
    <glyph glyph-name="Delta" unicode="&#x2206;" horiz-adv-x="1308" 
d="M39 0l567 1454h90l574 -1454h-1231zM1141 82l-490 1280l-487 -1280h977z" />
    <glyph glyph-name="product" unicode="&#x220f;" horiz-adv-x="1519" 
d="M1274 -348v1782h-1028v-1782h-66v1843h1159v-1843h-65z" />
    <glyph glyph-name="summation" unicode="&#x2211;" horiz-adv-x="1519" 
d="M256 1434l494 -861l-494 -860h1083v-61h-1159v61l492 860l-492 861v61h1159v-61h-1083z" />
    <glyph glyph-name="minus" unicode="&#x2212;" horiz-adv-x="1236" 
d="M96 481v82h1045v-82h-1045z" />
    <glyph glyph-name="radical" unicode="&#x221a;" horiz-adv-x="1175" 
d="M1137 1434h-152l-405 -1872h-58l-495 925l57 35l446 -835l394 1808h213v-61z" />
    <glyph glyph-name="infinity" unicode="&#x221e;" horiz-adv-x="1908" 
d="M1454 946q175 0 277 -111t102 -313t-102 -313t-277 -111q-84 0 -154 25t-131 78.5t-107.5 110.5t-107.5 147q-47 -70 -84.5 -118.5t-85.5 -98t-94.5 -78.5t-105.5 -47.5t-125 -18.5q-180 0 -281.5 111t-101.5 313t101.5 313t281.5 111q66 0 125 -18.5t105.5 -47.5
t94.5 -78t85.5 -97.5t84.5 -118.5q48 71 85 119.5t85.5 97.5t95.5 78t106.5 47t127.5 18zM467 168q52 0 96 13.5t81.5 37t82 71t84 98t100.5 134.5q-61 85 -100.5 135t-84 97.5t-82 71t-81.5 37.5t-96 14q-148 0 -232.5 -88t-84.5 -267q0 -178 84.5 -266t232.5 -88z
M1446 168q144 0 228.5 88t84.5 266t-84.5 266.5t-228.5 88.5q-45 0 -82 -8t-73.5 -28.5t-66.5 -45t-69 -69.5t-72.5 -89t-85.5 -115q62 -86 101 -135.5t84 -97.5t83 -71t83 -36.5t98 -13.5z" />
    <glyph glyph-name="integral" unicode="&#x222b;" horiz-adv-x="483" 
d="M324 1513q44 0 84 -32l-35 -54q-24 21 -47 21q-19 0 -33 -13t-14 -38v-1796q0 -59 -36 -91t-83 -32q-42 0 -84 30l35 58q21 -21 47 -21q19 0 33 12.5t14 36.5v1797q0 59 35.5 90.5t83.5 31.5z" />
    <glyph glyph-name="approxequal" unicode="&#x2248;" horiz-adv-x="1236" 
d="M397 850q58 0 109.5 -17t90.5 -41t77 -48t83.5 -41t94.5 -17q85 0 142 44.5t69 115.5h86q-9 -106 -96 -174t-211 -68q-58 0 -110.5 17t-91.5 41t-77 48t-83.5 41t-94.5 17q-80 0 -139 -42.5t-72 -117.5h-86q9 101 96 171.5t213 70.5zM397 420q58 0 109.5 -17t90.5 -41
t77 -48t83.5 -41t94.5 -17q85 0 142 44.5t69 115.5h86q-9 -106 -96 -174t-211 -68q-58 0 -110.5 17t-91.5 41t-77 48t-83.5 41t-94.5 17q-80 0 -139 -42.5t-72 -117.5h-86q9 101 96 171.5t213 70.5z" />
    <glyph glyph-name="notequal" unicode="&#x2260;" horiz-adv-x="1236" 
d="M563 348h588v-82h-629l-116 -233l-68 28l102 205h-334v82h375l174 348h-549v82h590l115 230l68 -29l-101 -201h373v-82h-414z" />
    <glyph glyph-name="lessequal" unicode="&#x2264;" horiz-adv-x="1236" 
d="M182 655l948 -338v-81l-1044 378v82l1044 379v-82zM1130 82v-82h-1044v82h1044z" />
    <glyph glyph-name="greaterequal" unicode="&#x2265;" horiz-adv-x="1236" 
d="M1141 614l-1045 -378v81l948 338l-948 338v82l1045 -379v-82zM1141 82v-82h-1045v82h1045z" />
    <glyph glyph-name="zero.lf" 
d="M592 1483q222 0 336 -192.5t114 -563.5t-114 -563.5t-336 -192.5t-336.5 192.5t-114.5 563.5t114.5 563.5t336.5 192.5zM592 1401q-185 0 -275 -163.5t-90 -510.5t90 -510.5t275 -163.5t274.5 163.5t89.5 510.5t-89.5 510.5t-274.5 163.5z" />
    <glyph glyph-name="one.lf" horiz-adv-x="772" 
d="M672 82v-82h-570v82h242v1214q-38 -65 -106 -114.5t-142 -77.5l-12 76q196 94 285 274h61v-1372h242z" />
    <glyph glyph-name="two.lf" horiz-adv-x="1112" 
d="M989 0h-887v63q102 113 216.5 236t181 193.5t138 149.5t108.5 127.5t69.5 103.5t44.5 102t12 100q0 147 -93 236.5t-249 89.5q-57 0 -101.5 -8.5t-91 -30.5t-87 -66t-74.5 -110l-67 47q112 250 438 250q190 0 300.5 -110.5t110.5 -291.5q0 -63 -15 -121.5t-50 -120.5
t-74.5 -116t-109.5 -130.5t-132 -141.5t-163.5 -171t-184.5 -198h760v-82z" />
    <glyph glyph-name="three.lf" horiz-adv-x="1060" 
d="M711 768q121 -38 191.5 -143t70.5 -248q0 -184 -118.5 -295t-315.5 -111q-155 0 -270 73t-179 212l70 43q122 -246 377 -246q162 0 256 90.5t94 247.5q0 161 -100 243.5t-298 82.5h-114v78h86q183 0 284 80.5t101 226.5q0 139 -89.5 219t-246.5 80q-107 0 -180.5 -44.5
t-132.5 -144.5l-68 48q109 223 389 223q187 0 300.5 -102t113.5 -271q0 -118 -58 -208t-163 -134z" />
    <glyph glyph-name="four.lf" horiz-adv-x="1095" 
d="M870 365v-365h-86v365h-688v100l656 989h118v-1008h150v-81h-150zM784 1374l-612 -928h612v928z" />
    <glyph glyph-name="five.lf" horiz-adv-x="1089" 
d="M543 924q223 0 340.5 -119.5t117.5 -343.5q0 -229 -120.5 -359.5t-331.5 -130.5q-135 0 -239.5 54.5t-190.5 169.5l63 49q86 -101 173 -146t196 -45q172 0 268 108.5t96 301.5q0 379 -385 379q-107 0 -174.5 -26.5t-113.5 -86.5l-56 21l160 704h602v-82h-542l-119 -514
q92 66 256 66z" />
    <glyph glyph-name="six.lf" horiz-adv-x="1097" 
d="M594 928q189 0 306.5 -129t117.5 -336q0 -220 -122 -354t-321 -134q-210 0 -329 127.5t-119 350.5q0 213 102.5 431t368.5 572h104q-328 -425 -446 -670q57 68 145.5 105t192.5 37zM567 57q169 0 267 108t98 294t-95 286.5t-270 100.5q-171 0 -262.5 -100t-91.5 -287
q0 -186 95 -294t259 -108z" />
    <glyph glyph-name="seven.lf" horiz-adv-x="1040" 
d="M963 1399l-510 -1399h-105l518 1372h-792v82h889v-55z" />
    <glyph glyph-name="eight.lf" horiz-adv-x="1071" 
d="M735 756q105 -50 162 -147.5t57 -227.5q0 -186 -110.5 -298t-294.5 -112q-185 0 -296.5 112t-111.5 298q0 130 57 227.5t162 147.5q-91 46 -140.5 134t-49.5 204q0 173 105 281t274 108q167 0 272 -108t105 -281q0 -117 -49.5 -204.5t-141.5 -133.5zM254 1092
q0 -137 80.5 -221.5t212.5 -84.5t213.5 84.5t81.5 221.5t-82.5 224t-212.5 87q-129 0 -211 -87t-82 -224zM547 49q143 0 234 93.5t91 240.5q0 146 -90 237t-235 91q-143 0 -233.5 -91t-90.5 -237t91 -240t233 -94z" />
    <glyph glyph-name="nine.lf" horiz-adv-x="1097" 
d="M563 1483q205 0 320.5 -129.5t115.5 -360.5q0 -194 -90 -405t-334 -588h-104q171 251 264 406.5t142 271.5q-55 -70 -146 -109t-199 -39q-190 0 -306.5 131.5t-116.5 344.5q0 218 123.5 347.5t330.5 129.5zM557 612q170 0 263 101.5t93 287.5q0 188 -95 294t-261 106
q-168 0 -265 -107t-97 -293q0 -185 95 -287t267 -102z" />
    <glyph glyph-name="zero.tf" 
d="M578 1483q222 0 336 -192.5t114 -563.5t-114 -563.5t-336 -192.5t-336.5 192.5t-114.5 563.5t114.5 563.5t336.5 192.5zM578 1401q-185 0 -275 -163.5t-90 -510.5t90 -510.5t275 -163.5t274.5 163.5t89.5 510.5t-89.5 510.5t-274.5 163.5z" />
    <glyph glyph-name="one.tf" 
d="M874 82v-82h-569v82h242v1214q-38 -65 -106 -114.5t-142 -77.5l-12 76q194 93 284 274h62v-1372h241z" />
    <glyph glyph-name="two.tf" 
d="M1010 0h-887v63q102 113 216.5 236t181 193.5t138 149.5t108.5 127.5t69.5 103.5t44.5 102t12 100q0 147 -93 236.5t-249 89.5q-57 0 -101.5 -8.5t-91 -30.5t-87 -66t-74.5 -110l-68 47q112 250 438 250q190 0 301 -110.5t111 -291.5q0 -63 -15 -121.5t-50 -120.5
t-74.5 -116t-109.5 -130.5t-132 -141.5t-163.5 -171t-184.5 -198h760v-82z" />
    <glyph glyph-name="three.tf" 
d="M743 768q122 -38 192.5 -143.5t70.5 -247.5q0 -184 -119 -295t-316 -111q-155 0 -269 72.5t-179 212.5l70 43q122 -246 376 -246q162 0 256.5 91t94.5 247q0 161 -100 243.5t-298 82.5h-114v78h86q183 0 284 80.5t101 226.5q0 139 -89.5 219t-246.5 80q-107 0 -181 -44.5
t-133 -144.5l-67 48q109 223 389 223q187 0 300.5 -102t113.5 -271q0 -118 -58.5 -208t-163.5 -134z" />
    <glyph glyph-name="four.tf" 
d="M877 365v-365h-86v365h-689v100l656 989h119v-1008h149v-81h-149zM791 1374l-613 -928h613v928z" />
    <glyph glyph-name="five.tf" 
d="M567 924q223 0 341 -119.5t118 -343.5q0 -229 -121 -359.5t-332 -130.5q-135 0 -239.5 54.5t-190.5 169.5l64 49q86 -101 172.5 -146t195.5 -45q172 0 268.5 108.5t96.5 301.5q0 379 -385 379q-107 0 -175 -26.5t-114 -86.5l-55 21l160 704h602v-82h-543l-119 -514
q92 66 256 66z" />
    <glyph glyph-name="six.tf" 
d="M610 928q189 0 306.5 -129t117.5 -336q0 -220 -121.5 -354t-320.5 -134q-210 0 -329.5 127.5t-119.5 350.5q0 213 102.5 431t368.5 572h105q-331 -428 -447 -670q57 68 145.5 105t192.5 37zM584 57q169 0 266.5 108t97.5 294t-94.5 286.5t-269.5 100.5q-171 0 -263 -100
t-92 -287q0 -186 95.5 -294t259.5 -108z" />
    <glyph glyph-name="seven.tf" 
d="M991 1399l-510 -1399h-104l518 1372h-793v82h889v-55z" />
    <glyph glyph-name="eight.tf" 
d="M764 756q105 -50 162 -147.5t57 -227.5q0 -186 -110.5 -298t-294.5 -112q-185 0 -296.5 112t-111.5 298q0 130 57 227.5t162 147.5q-91 46 -140.5 134t-49.5 204q0 173 105 281t274 108q167 0 271.5 -108t104.5 -281q0 -117 -49 -204.5t-141 -133.5zM283 1092
q0 -137 80 -221.5t212 -84.5t213.5 84.5t81.5 221.5t-82.5 224t-212.5 87q-129 0 -210.5 -87t-81.5 -224zM575 49q143 0 234.5 93.5t91.5 240.5q0 146 -90.5 237t-235.5 91q-143 0 -233 -91t-90 -237q0 -147 90.5 -240.5t232.5 -93.5z" />
    <glyph glyph-name="nine.tf" 
d="M578 1483q205 0 320.5 -129.5t115.5 -360.5q0 -194 -90 -405t-334 -588h-105q171 251 264 406.5t142 271.5q-55 -70 -145.5 -109t-198.5 -39q-190 0 -307 131.5t-117 344.5q0 218 124 347.5t331 129.5zM571 612q170 0 263.5 101.5t93.5 287.5q0 188 -95.5 294t-261.5 106
q-168 0 -265 -107t-97 -293q0 -185 95 -287t267 -102z" />
    <glyph glyph-name="zero.dnom" horiz-adv-x="815" 
d="M408 989q158 0 238.5 -128t80.5 -376t-80.5 -376.5t-238.5 -128.5t-239 128.5t-81 376.5t81 376t239 128zM408 909q-118 0 -176 -103t-58 -321q0 -219 58 -322.5t176 -103.5t175.5 103.5t57.5 322.5q0 218 -57.5 321t-175.5 103z" />
    <glyph glyph-name="one.dnom" horiz-adv-x="579" 
d="M510 78v-78h-430v78h174v753q-27 -44 -75 -79t-99 -54l-21 76q141 64 211 195h68v-891h172z" />
    <glyph glyph-name="two.dnom" horiz-adv-x="817" 
d="M715 0h-629v61q78 84 167 176.5t136 140.5t96.5 103.5t71.5 90t36.5 73t14.5 78.5q0 85 -59 135.5t-160 50.5q-77 0 -132 -30t-101 -115l-66 45q85 180 311 180q135 0 214 -72t79 -190q0 -51 -17 -100t-42 -89.5t-74 -96.5t-93 -100t-121 -122t-136 -141h504v-78z" />
    <glyph glyph-name="three.dnom" horiz-adv-x="817" 
d="M535 514q81 -27 129.5 -94.5t48.5 -161.5q0 -125 -83 -201.5t-227 -76.5q-223 0 -317 200l68 45q79 -166 249 -166q103 0 163.5 56t60.5 151q0 93 -62 145t-194 52h-76v78h55q117 0 182.5 49.5t65.5 138.5q0 82 -55.5 131t-155.5 49q-68 0 -118 -29t-93 -100l-61 51
q78 158 276 158q137 0 215 -72t78 -182q0 -72 -37.5 -132t-111.5 -89z" />
    <glyph glyph-name="four.dnom" horiz-adv-x="817" 
d="M623 227v-227h-84v227h-467v90l444 652h107v-664h104v-78h-104zM539 879l-387 -574h387v574z" />
    <glyph glyph-name="five.dnom" horiz-adv-x="817" 
d="M401 614q160 0 243 -82t83 -227q0 -151 -86 -238t-235 -87q-189 0 -306 157l62 51q57 -66 113.5 -97.5t130.5 -31.5q110 0 172.5 64.5t62.5 181.5q0 230 -252 230q-125 0 -188 -72l-62 14l109 492h442v-78h-383l-71 -320q64 43 165 43z" />
    <glyph glyph-name="six.dnom" horiz-adv-x="817" 
d="M432 621q136 0 218.5 -87t82.5 -223q0 -148 -87 -237.5t-228 -89.5q-148 0 -233 85t-85 234q0 68 16.5 136t38.5 120.5t67.5 125t79.5 118.5t99 133q17 22 25 33h100q-226 -288 -297 -424q76 76 203 76zM414 61q105 0 168 64.5t63 181.5q0 114 -60 175t-171 61
q-109 0 -169.5 -61.5t-60.5 -174.5q0 -118 62.5 -182t167.5 -64z" />
    <glyph glyph-name="seven.dnom" horiz-adv-x="817" 
d="M702 907l-360 -907h-100l364 885h-534v84h630v-62z" />
    <glyph glyph-name="eight.dnom" horiz-adv-x="835" 
d="M567 506q70 -34 109 -97.5t39 -148.5q0 -125 -80.5 -202.5t-216.5 -77.5q-138 0 -218.5 77.5t-80.5 202.5q0 85 38.5 148t108.5 96q-61 31 -94 88t-33 133q0 116 76 190t203 74q126 0 201 -74t75 -190q0 -154 -127 -219zM416 911q-85 0 -138 -52.5t-53 -137.5
q0 -83 53 -134.5t138 -51.5t138.5 51.5t53.5 134.5q0 85 -53.5 137.5t-138.5 52.5zM416 57q94 0 154.5 57.5t60.5 147.5t-60 145.5t-155 55.5q-94 0 -153.5 -56t-59.5 -145q0 -91 59.5 -148t153.5 -57z" />
    <glyph glyph-name="nine.dnom" horiz-adv-x="817" 
d="M410 987q142 0 225.5 -88.5t83.5 -243.5q0 -35 -5 -71.5t-11 -66.5t-21.5 -69.5t-25 -64t-33.5 -67.5t-34 -62t-40.5 -65.5t-40 -61t-44 -65.5t-42.5 -62h-100q210 298 268 426q-78 -78 -205 -78q-135 0 -217 87.5t-82 228.5q0 146 88 234.5t236 88.5zM406 428
q109 0 169 60.5t60 173.5q0 118 -62 181.5t-167 63.5q-106 0 -170 -64t-64 -181q0 -113 61.5 -173.5t172.5 -60.5z" />
    <glyph glyph-name="zero.numr" horiz-adv-x="815" 
d="M408 1542q158 0 238.5 -128t80.5 -376t-80.5 -377t-238.5 -129t-239 129t-81 377t81 376t239 128zM408 1462q-118 0 -176 -103t-58 -321q0 -219 58 -322.5t176 -103.5t175.5 103.5t57.5 322.5q0 218 -57.5 321t-175.5 103z" />
    <glyph glyph-name="one.numr" horiz-adv-x="579" 
d="M510 631v-78h-430v78h174v753q-27 -44 -75 -79t-99 -54l-21 76q141 64 211 195h68v-891h172z" />
    <glyph glyph-name="two.numr" horiz-adv-x="817" 
d="M715 553h-629v61q78 84 167 176.5t136 140.5t96.5 103.5t71.5 90t36.5 73t14.5 78.5q0 85 -59 135.5t-160 50.5q-77 0 -132 -30t-101 -115l-66 45q85 180 311 180q135 0 214 -72t79 -190q0 -51 -17 -100t-42 -89.5t-74 -96.5t-93 -100t-121 -122t-136 -141h504v-78z" />
    <glyph glyph-name="three.numr" horiz-adv-x="817" 
d="M535 1067q81 -27 129.5 -94.5t48.5 -161.5q0 -125 -83 -202t-227 -77q-223 0 -317 201l68 45q79 -166 249 -166q103 0 163.5 56t60.5 151q0 93 -62 145t-194 52h-76v78h55q117 0 182.5 49.5t65.5 138.5q0 82 -55.5 131t-155.5 49q-68 0 -118 -29t-93 -100l-61 51
q78 158 276 158q137 0 215 -72t78 -182q0 -72 -37.5 -132t-111.5 -89z" />
    <glyph glyph-name="four.numr" horiz-adv-x="817" 
d="M623 780v-227h-84v227h-467v90l444 652h107v-664h104v-78h-104zM539 1432l-387 -574h387v574z" />
    <glyph glyph-name="five.numr" horiz-adv-x="817" 
d="M401 1167q160 0 243 -82t83 -227q0 -151 -86 -238.5t-235 -87.5q-188 0 -306 158l62 51q57 -66 113.5 -97.5t130.5 -31.5q110 0 172.5 64.5t62.5 181.5q0 229 -252 229q-126 0 -188 -71l-62 14l109 492h442v-78h-383l-71 -320q64 43 165 43z" />
    <glyph glyph-name="six.numr" horiz-adv-x="817" 
d="M432 1174q136 0 218.5 -87t82.5 -223q0 -148 -87 -237.5t-228 -89.5q-148 0 -233 85t-85 234q0 68 16.5 136t38.5 120.5t67.5 125t79.5 118.5t99 133q17 22 25 33h100q-226 -288 -297 -424q76 76 203 76zM414 614q105 0 168 64.5t63 181.5q0 114 -60 175t-171 61
q-109 0 -169.5 -61.5t-60.5 -174.5q0 -118 62.5 -182t167.5 -64z" />
    <glyph glyph-name="seven.numr" horiz-adv-x="817" 
d="M702 1460l-360 -907h-100l364 885h-534v84h630v-62z" />
    <glyph glyph-name="eight.numr" horiz-adv-x="835" 
d="M567 1059q70 -34 109 -97.5t39 -148.5q0 -125 -80.5 -203t-216.5 -78q-137 0 -218 78t-81 203q0 85 38.5 148t108.5 96q-61 31 -94 88t-33 133q0 116 76 190t203 74q126 0 201 -74t75 -190q0 -154 -127 -219zM416 1464q-85 0 -138 -52.5t-53 -137.5q0 -83 53 -135
t138 -52t138.5 52t53.5 135q0 85 -53.5 137.5t-138.5 52.5zM416 610q94 0 154.5 57.5t60.5 147.5t-60 145.5t-155 55.5q-94 0 -153.5 -56t-59.5 -145q0 -91 59.5 -148t153.5 -57z" />
    <glyph glyph-name="nine.numr" horiz-adv-x="817" 
d="M410 1540q142 0 225.5 -88.5t83.5 -243.5q0 -35 -5 -71.5t-11 -66.5t-21.5 -69.5t-25 -64t-33.5 -67.5t-34 -62t-40.5 -65.5t-40 -61t-44 -65.5t-42.5 -62h-100q210 298 268 426q-78 -78 -205 -78q-135 0 -217 87.5t-82 228.5q0 147 88 235t236 88zM406 981
q110 0 169.5 60t59.5 173q0 118 -62 182t-167 64q-106 0 -170 -64.5t-64 -181.5q0 -113 61.5 -173t172.5 -60z" />
    <glyph glyph-name="acute.case" horiz-adv-x="370" 
d="M55 1581l164 313h96l-194 -313h-66z" />
    <glyph glyph-name="breve.case" horiz-adv-x="772" 
d="M717 1894q-17 -150 -102 -224.5t-226 -74.5q-146 0 -232.5 75.5t-101.5 223.5h66q19 -123 90 -180t176 -57q225 0 264 237h66z" />
    <glyph glyph-name="caron.case" horiz-adv-x="780" 
d="M356 1602l-301 292h99l237 -235l236 235h98l-303 -292h-66z" />
    <glyph glyph-name="circumflex.case" horiz-adv-x="780" 
d="M627 1602l-236 235l-237 -235h-99l301 292h66l303 -292h-98z" />
    <glyph glyph-name="dieresis.case" horiz-adv-x="630" 
d="M125 1851q29 0 49.5 -18t20.5 -51q0 -35 -20.5 -53.5t-49.5 -18.5t-49.5 18.5t-20.5 53.5q0 33 20.5 51t49.5 18zM506 1851q29 0 49 -18t20 -51q0 -35 -20 -53.5t-49 -18.5t-49.5 18.5t-20.5 53.5q0 33 20.5 51t49.5 18z" />
    <glyph glyph-name="dotaccent.case" horiz-adv-x="249" 
d="M125 1853q29 0 49.5 -18t20.5 -51q0 -35 -20.5 -53.5t-49.5 -18.5t-49.5 18.5t-20.5 53.5q0 33 20.5 51t49.5 18z" />
    <glyph glyph-name="grave.case" horiz-adv-x="370" 
d="M315 1581h-65l-195 313h97z" />
    <glyph glyph-name="hungarumlaut.case" horiz-adv-x="636" 
d="M55 1581l164 313h96l-194 -313h-66zM322 1581l163 313h97l-195 -313h-65z" />
    <glyph glyph-name="macron.case" horiz-adv-x="724" 
d="M55 1761v62h615v-62h-615z" />
    <glyph glyph-name="ring.case" horiz-adv-x="550" 
d="M276 1935q102 0 161 -58.5t59 -156.5q0 -96 -59 -154.5t-161 -58.5q-103 0 -162 58t-59 155q0 98 59 156.5t162 58.5zM272 1876q-72 0 -112.5 -41.5t-40.5 -114.5t40.5 -113t112.5 -40q73 0 116.5 40.5t43.5 112.5q0 73 -43.5 114.5t-116.5 41.5z" />
    <glyph glyph-name="tilde.case" horiz-adv-x="856" 
d="M801 1853q-7 -88 -61.5 -133t-143.5 -45q-43 0 -85.5 12t-60 21t-61.5 33q-72 37 -129 37q-120 0 -139 -127h-66q6 54 27.5 93t53 58.5t63 28t67.5 8.5q74 0 174 -49q100 -53 162 -53q112 0 133 116h66z" />
    </font>
</defs>
</svg>
