<?xml version="1.0" standalone="no"?>
<!DOCTYPE svg PUBLIC "-//W3C//DTD SVG 1.1//EN" "http://www.w3.org/Graphics/SVG/1.1/DTD/svg11.dtd" >
<svg xmlns="http://www.w3.org/2000/svg" xmlns:xlink="http://www.w3.org/1999/xlink" version="1.1">
<metadata>
Created by FontForge 20170731 at Thu Jan 28 17:32:48 2021
 By Aleksey,,,
Copyright (c) 2015 Monotype Imaging Inc. All rights reserved.
</metadata>
<defs>
<font id="RNHouseSans-Bold" horiz-adv-x="1130" >
  <font-face 
    font-family="RN House Sans Regular"
    font-weight="700"
    font-stretch="normal"
    units-per-em="2048"
    panose-1="2 11 8 4 2 2 3 2 2 4"
    ascent="1526"
    descent="-522"
    x-height="993"
    cap-height="1454"
    bbox="-408 -522 2163 1987"
    underline-thickness="102"
    underline-position="-307"
    unicode-range="U+0020-FDFC"
  />
<missing-glyph horiz-adv-x="1024" 
d="M0 1434h1024v-1434h-1024v1434zM860 1331h-696l348 -522zM102 195l349 522l-349 522v-1044zM922 195v1044l-349 -522zM860 102l-348 523l-348 -523h696z" />
    <glyph glyph-name="fi" unicode="fi" horiz-adv-x="1234" 
d="M498 1524q129 0 233 -72l-82 -209q-56 37 -102 37q-49 0 -80 -35t-31 -102v-150h230v-217h-230v-776h-289v776h-106v217h106v166q0 91 29.5 162.5t79.5 115t111.5 65.5t130.5 22zM965 1516q71 0 117 -42.5t46 -123.5t-46.5 -121.5t-118.5 -40.5t-117 41.5t-45 122.5
q0 80 45.5 122t118.5 42zM821 0v993h289v-993h-289z" />
    <glyph glyph-name="fl" unicode="fl" horiz-adv-x="1234" 
d="M498 1524q129 0 233 -72l-82 -209q-56 37 -102 37q-49 0 -80 -35t-31 -102v-150h230v-217h-230v-776h-289v776h-106v217h106v166q0 91 29.5 162.5t79.5 115t111.5 65.5t130.5 22zM821 0v1495h289v-1495h-289z" />
    <glyph glyph-name="uniFDFC" unicode="&#xfdfc;" horiz-adv-x="2017" arabic-form="isolated" 
d="M813 197q0 -224 -97.5 -347.5t-291.5 -123.5q-96 0 -170 31.5t-117 86.5t-64.5 122.5t-21.5 146.5q0 177 90 323l217 -94q-61 -125 -61 -225q0 -137 127 -137q73 0 107 47t34 143v1214h248v-1187zM1145 555q0 -54 20 -77t60 -23q96 0 96 116q0 85 -43 160l219 92
q72 -119 72 -256q0 -165 -100 -265.5t-259 -100.5q-147 0 -230 92.5t-83 261.5v829h248v-829zM1808 664q158 -200 158 -441q0 -236 -159.5 -413t-458.5 -269l-84 230q236 79 345 189.5t109 268.5q0 75 -27 141.5t-92 149.5zM1018 164q58 0 97.5 -35t39.5 -102t-39.5 -101.5
t-95.5 -34.5q-57 0 -96 34t-39 102t37.5 102.5t95.5 34.5zM1335 164q58 0 98 -35t40 -102t-40 -101.5t-96 -34.5q-57 0 -96 34t-39 102t37.5 102.5t95.5 34.5z" />
    <glyph glyph-name=".notdef" horiz-adv-x="1024" 
d="M0 1434h1024v-1434h-1024v1434zM860 1331h-696l348 -522zM102 195l349 522l-349 522v-1044zM922 195v1044l-349 -522zM860 102l-348 523l-348 -523h696z" />
    <glyph glyph-name=".null" horiz-adv-x="0" 
 />
    <glyph glyph-name="nonmarkingreturn" horiz-adv-x="682" 
 />
    <glyph glyph-name="space" unicode=" " horiz-adv-x="634" 
 />
    <glyph glyph-name="exclam" unicode="!" horiz-adv-x="694" 
d="M500 1454q0 -89 -0.5 -164t-2 -145t-2.5 -114.5t-4.5 -106.5t-4 -85.5t-6 -87t-6 -75.5t-7.5 -86t-8 -86h-228q-2 19 -7 78.5t-6.5 76.5t-6 69.5t-6 75.5t-4.5 75t-4 88t-3 94t-2.5 113.5t-1 127t-0.5 152.5h310zM346 328q78 0 125 -47.5t47 -126.5q0 -78 -46.5 -124
t-127.5 -46q-78 0 -125 46.5t-47 125.5t47.5 125.5t126.5 46.5z" />
    <glyph glyph-name="quotedbl" unicode="&#x22;" horiz-adv-x="860" 
d="M145 870v613h215v-613h-215zM504 870v613h215v-613h-215z" />
    <glyph glyph-name="numbersign" unicode="#" horiz-adv-x="1361" 
d="M1028 627h197l-35 -221h-197l-63 -406h-236l64 406h-262l-64 -406h-235l63 406h-192l34 221h193l37 227h-195l35 221h195l59 379h236l-60 -379h262l60 379h235l-59 -379h194l-34 -221h-195zM567 854l-37 -227h263l36 227h-262z" />
    <glyph glyph-name="dollar" unicode="$" horiz-adv-x="1175" 
d="M670 807q151 -61 196 -86q138 -75 181 -192q24 -64 24 -146q0 -169 -97 -273t-263 -133v-170h-201v166q-160 20 -264.5 106.5t-145.5 219.5l240 113q36 -105 99 -157t161 -52q89 0 145 41t56 123q0 46 -18.5 79t-57.5 56t-77 38.5t-101.5 38t-106.5 42.5
q-145 67 -212.5 164t-67.5 233q0 166 93 265.5t257 123.5v170h201v-170q275 -40 362 -299l-229 -90q-37 87 -95 125.5t-143 38.5q-92 0 -136 -40.5t-44 -111.5q0 -36 13 -65.5t31.5 -50t55 -41.5t65 -33.5t79.5 -32.5z" />
    <glyph glyph-name="percent" unicode="%" horiz-adv-x="1519" 
d="M383 1481q147 0 230 -89.5t83 -236.5t-83 -236.5t-230 -89.5q-145 0 -228 89.5t-83 236.5t83 236.5t228 89.5zM68 125l1228 1335l156 -125l-1231 -1335zM383 1292q-55 0 -87 -37t-32 -100t31.5 -99t87.5 -36q57 0 89 36t32 99t-32 100t-89 37zM1141 625
q144 0 227.5 -89.5t83.5 -236.5t-83.5 -236.5t-227.5 -89.5q-147 0 -230.5 89.5t-83.5 236.5t83.5 236.5t230.5 89.5zM1141 436q-56 0 -87.5 -36.5t-31.5 -100.5q0 -63 31 -99t88 -36q56 0 88.5 36t32.5 99t-32.5 100t-88.5 37z" />
    <glyph glyph-name="ampersand" unicode="&#x26;" horiz-adv-x="1349" 
d="M885 78q-160 -115 -361 -115q-72 0 -139.5 16t-126.5 49.5t-102.5 82t-69 117t-25.5 149.5q0 265 271 430q-88 168 -88 309q0 172 105.5 273.5t275.5 101.5q172 0 283.5 -102.5t111.5 -266.5q0 -65 -20.5 -125t-50.5 -103.5t-74.5 -84.5t-83 -67.5t-86.5 -53.5
q79 -103 190 -225q58 98 119 229l295 -65q-123 -233 -228 -363q81 -86 256 -264h-387zM635 1239q-61 0 -93 -37.5t-32 -105.5q0 -86 47 -183q102 48 148.5 93.5t46.5 113.5q0 53 -28.5 86t-88.5 33zM561 231q92 0 162 43q-160 192 -244 306q-112 -78 -112 -185
q0 -76 56 -120t138 -44z" />
    <glyph glyph-name="quotesingle" unicode="'" horiz-adv-x="499" 
d="M141 870v613h217v-613h-217z" />
    <glyph glyph-name="parenleft" unicode="(" horiz-adv-x="677" 
d="M621 1487q-116 -208 -176 -467t-60 -531q0 -273 60 -527.5t176 -453.5h-238q-126 180 -191 439.5t-65 544.5q0 287 65.5 549.5t190.5 445.5h238z" />
    <glyph glyph-name="parenright" unicode=")" horiz-adv-x="677" 
d="M293 1487q126 -180 191 -439t65 -544q0 -287 -65.5 -550t-190.5 -446h-238q116 208 176 467t60 531q0 273 -60 527.5t-176 453.5h238z" />
    <glyph glyph-name="asterisk" unicode="*" horiz-adv-x="903" 
d="M133 1282l229 -96l-20 252h213l-12 -252l229 96l62 -199l-238 -65l162 -180l-170 -125l-135 202l-134 -204l-169 120l157 187l-237 65z" />
    <glyph glyph-name="plus" unicode="+" horiz-adv-x="1220" 
d="M725 408v-424h-227v424h-428v227h428v426h227v-426h424v-227h-424z" />
    <glyph glyph-name="comma" unicode="," horiz-adv-x="598" 
d="M471 111q0 -152 -75.5 -267t-190.5 -174l-68 107q118 76 154 221q-86 3 -126 44.5t-40 127.5t46 131t134 45t127 -58t39 -177z" />
    <glyph glyph-name="hyphen" unicode="-" horiz-adv-x="806" 
d="M78 434v228h649v-228h-649z" />
    <glyph glyph-name="period" unicode="." horiz-adv-x="598" 
d="M299 326q78 0 125 -47.5t47 -126.5q0 -80 -46.5 -126t-127.5 -46q-78 0 -125 46.5t-47 125.5t48 126.5t126 47.5z" />
    <glyph glyph-name="slash" unicode="/" horiz-adv-x="739" 
d="M-12 0l573 1454h223l-573 -1454h-223z" />
    <glyph glyph-name="zero" unicode="0" 
d="M1061 727q0 -756 -496 -756q-254 0 -374.5 178.5t-120.5 577.5t120.5 577.5t374.5 178.5q496 0 496 -756zM377 727q0 -188 22.5 -301t62.5 -158t103 -45q38 0 66 12t52.5 44.5t40 88.5t24 145.5t8.5 213.5t-8.5 213.5t-24 145.5t-40 88.5t-52.5 44.5t-66 12
q-63 0 -103 -45t-62.5 -158t-22.5 -301z" />
    <glyph glyph-name="one" unicode="1" 
d="M997 246v-246h-821v246h270v839q-40 -51 -103 -96t-124 -69l-90 237q100 39 188 118t138 179h276v-1208h266z" />
    <glyph glyph-name="two" unicode="2" 
d="M1030 0h-969v193q93 108 197.5 224t163 180t118.5 134.5t89 116t47 94.5t18 98q0 89 -51 140t-139 51t-155 -36t-136 -126l-174 164q165 250 491 250q219 0 345 -116t126 -312q0 -62 -13 -120t-42.5 -114.5t-61 -104.5t-84 -109t-96.5 -108.5t-112.5 -122t-118.5 -130.5
h557v-246z" />
    <glyph glyph-name="three" unicode="3" 
d="M793 768q104 -49 160.5 -143t56.5 -217q0 -199 -135.5 -318t-362.5 -119q-175 0 -307.5 79t-198.5 224l221 160q52 -114 117.5 -162.5t165.5 -48.5q92 0 143.5 51t51.5 142q0 103 -59.5 152.5t-182.5 49.5h-125v246h98q107 0 169.5 51.5t62.5 141.5q0 78 -46 126t-124 48
t-138 -37.5t-124 -128.5l-189 170q62 117 181.5 182.5t271.5 65.5q210 0 340.5 -116.5t130.5 -301.5q0 -92 -48 -171.5t-130 -125.5z" />
    <glyph glyph-name="four" unicode="4" 
d="M901 319v-319h-293v319h-594v222l590 913h297v-913h160v-222h-160zM608 1069l-329 -528h329v528z" />
    <glyph glyph-name="five" unicode="5" 
d="M555 952q209 0 336 -132.5t127 -352.5q0 -221 -143 -358.5t-375 -137.5q-145 0 -264 61t-201 177l207 174q67 -88 126 -125t130 -37q97 0 155 65.5t58 174.5q0 117 -51 178t-148 61q-119 0 -193 -77l-233 34l186 801l693 -2v-246l-476 2l-69 -280q61 20 135 20z" />
    <glyph glyph-name="six" unicode="6" 
d="M584 946q210 0 337.5 -132t127.5 -335q0 -234 -139.5 -369t-364.5 -135q-221 0 -354.5 135.5t-133.5 364.5q0 102 23 205t59 193.5t96 194.5t118.5 190t140.5 196h325q-238 -312 -370 -532q62 24 135 24zM543 227q100 0 152.5 62.5t52.5 183.5q0 119 -52.5 181.5
t-152.5 62.5q-99 0 -151 -62t-52 -182q0 -121 52 -183.5t151 -62.5z" />
    <glyph glyph-name="seven" unicode="7" 
d="M1049 1223l-490 -1223h-301l483 1178h-667v276h975v-231z" />
    <glyph glyph-name="eight" unicode="8" 
d="M877 752q86 -52 132 -139t46 -195q0 -199 -136 -323t-354 -124t-353.5 123.5t-135.5 323.5q0 109 46.5 195.5t133.5 138.5q-72 53 -112 131t-40 170q0 190 128.5 310t332.5 120t332.5 -120t128.5 -310q0 -92 -39 -170t-110 -131zM391 1049q0 -83 48 -138t126 -55
q76 0 125 55.5t49 135.5q0 83 -48 137.5t-126 54.5q-76 0 -125 -55t-49 -135zM565 215q86 0 139.5 57t53.5 148q0 92 -52.5 148.5t-140.5 56.5t-140 -55.5t-52 -149.5q0 -91 53 -148t139 -57z" />
    <glyph glyph-name="nine" unicode="9" 
d="M561 1483q224 0 359 -137.5t135 -364.5q0 -202 -98 -424t-334 -557h-316q209 270 361 541q-65 -29 -142 -29q-206 0 -335.5 130t-129.5 337q0 230 135.5 367t364.5 137zM365 985q0 -119 52 -181.5t150 -62.5t150.5 63t52.5 181t-52.5 181t-150.5 63t-150 -62.5
t-52 -181.5z" />
    <glyph glyph-name="colon" unicode=":" horiz-adv-x="598" 
d="M301 1022q78 0 125 -47.5t47 -126.5t-46.5 -125.5t-127.5 -46.5q-78 0 -124 47t-46 127q0 79 47 125.5t125 46.5zM301 326q78 0 125 -47.5t47 -126.5q0 -80 -46.5 -126t-127.5 -46q-78 0 -124 46.5t-46 125.5t47 126.5t125 47.5z" />
    <glyph glyph-name="semicolon" unicode=";" horiz-adv-x="598" 
d="M301 1022q78 0 125 -47.5t47 -126.5t-46.5 -125.5t-127.5 -46.5q-78 0 -124 47t-46 127q0 79 47 125.5t125 46.5zM473 111q0 -152 -75.5 -267t-190.5 -174l-68 107q118 76 154 221q-86 3 -125 44t-39 128q0 86 45 131t133 45t127 -58t39 -177z" />
    <glyph glyph-name="less" unicode="&#x3c;" horiz-adv-x="1185" 
d="M389 498l729 -250v-240l-1044 381v215l1044 381v-240z" />
    <glyph glyph-name="equal" unicode="=" horiz-adv-x="1220" 
d="M70 629v227h1079v-227h-1079zM70 188v228h1079v-228h-1079z" />
    <glyph glyph-name="greater" unicode="&#x3e;" horiz-adv-x="1185" 
d="M1114 389l-1044 -381v240l729 250l-729 247v240l1044 -381v-215z" />
    <glyph glyph-name="question" unicode="?" horiz-adv-x="1120" 
d="M524 1483q222 0 348.5 -107t126.5 -297q0 -65 -16 -121.5t-37.5 -93.5t-58.5 -74.5t-61.5 -56.5t-65.5 -47q-67 -43 -100 -78t-33 -78v-61h-289v68q0 46 12.5 86.5t28.5 68t46 57t50.5 45t57.5 41.5q2 1 3.5 2t3 2.5t3.5 2.5q41 30 63.5 48.5t50.5 49t41 65.5t13 76
q-3 80 -56.5 123t-148.5 43q-81 0 -144.5 -40t-136.5 -150l-205 174q183 252 504 252zM487 326q78 0 126.5 -47.5t48.5 -126.5t-47.5 -125.5t-127.5 -46.5q-79 0 -125.5 46t-46.5 126q0 79 47 126.5t125 47.5z" />
    <glyph glyph-name="at" unicode="@" horiz-adv-x="1703" 
d="M870 1405q167 0 311 -45.5t249.5 -129t166 -210t60.5 -279.5q0 -71 -11.5 -147t-43 -161t-78 -151t-123.5 -109.5t-174 -43.5t-161.5 44t-78.5 140q-88 -98 -235 -98q-163 0 -259 109t-96 270q0 66 16.5 132t52 129t86.5 112t126 78.5t164 29.5q80 0 135 -25.5t92 -84.5
l10 55h205l-86 -477q-26 -135 -24 -168q3 -49 48 -55q7 -1 15 -1q59 0 104 43t69 110t36 135.5t12 133.5q-3 216 -156.5 347t-416.5 131q-137 0 -247.5 -38.5t-180.5 -101t-117 -146t-66.5 -168t-19.5 -173.5q0 -240 146 -382t419 -142q109 0 205 34l45 -180
q-139 -45 -270 -45q-216 0 -384.5 80.5t-268 242t-99.5 382.5q0 81 13.5 162t44 162.5t76 154.5t112.5 136.5t149.5 109t192 72t235.5 26.5zM854 874q-61 0 -107 -27.5t-70.5 -71t-36 -87.5t-11.5 -86q0 -84 44 -136t120 -52q53 0 107 24t91 64l45 268q-21 47 -69 75.5
t-113 28.5z" />
    <glyph glyph-name="A" unicode="A" horiz-adv-x="1560" 
d="M465 338l-127 -338h-334l574 1454h399l573 -1454h-346l-125 338h-614zM774 1157l-203 -541h404z" />
    <glyph glyph-name="B" unicode="B" horiz-adv-x="1353" 
d="M1038 770q232 -94 232 -354q0 -87 -30 -161t-89 -132t-157.5 -90.5t-225.5 -32.5h-631v1454h608q127 0 223 -29.5t152 -83t83.5 -120.5t27.5 -148q0 -198 -193 -303zM717 858q190 6 190 166q0 156 -184 156h-272v-322h266zM756 260q92 0 141 49.5t49 130.5
q0 170 -194 170h-301v-350h305z" />
    <glyph glyph-name="C" unicode="C" horiz-adv-x="1529" 
d="M805 1491q202 0 357 -74t272 -237l-226 -197q-94 124 -186.5 179t-220.5 55q-187 0 -296.5 -126.5t-109.5 -363.5q0 -234 108 -361.5t294 -127.5q96 0 171 34t130 93t116 159l246 -162q-108 -198 -276.5 -298.5t-382.5 -100.5q-162 0 -294.5 50t-228 145t-148 240
t-52.5 329q0 366 196.5 565t530.5 199z" />
    <glyph glyph-name="D" unicode="D" horiz-adv-x="1515" 
d="M702 1454q165 0 301.5 -46.5t237 -136t156 -228.5t55.5 -316t-55.5 -316t-155.5 -228.5t-236 -136t-300 -46.5h-560v1454h557zM723 281q174 0 288.5 118t114.5 328t-115 328.5t-288 118.5h-260v-893h260z" />
    <glyph glyph-name="E" unicode="E" horiz-adv-x="1232" 
d="M455 1174v-293h600v-271h-600v-329h716v-281h-1034v1454h1034v-280h-716z" />
    <glyph glyph-name="F" unicode="F" horiz-adv-x="1146" 
d="M463 1174v-312h559v-278h-559v-584h-318v1454h979v-280h-661z" />
    <glyph glyph-name="G" unicode="G" horiz-adv-x="1531" 
d="M1464 696q0 -160 -35.5 -286.5t-96 -208.5t-146 -136t-181 -77t-206.5 -23q-159 0 -290.5 48.5t-228 142t-149.5 238.5t-53 329t53.5 329t149.5 239t228 143t290 49q206 0 367 -83t257 -249l-225 -176q-75 123 -168.5 178t-216.5 55q-196 0 -303 -125.5t-107 -357.5
q0 -234 107.5 -359.5t304.5 -125.5q144 0 233 69.5t107 210.5h-410v281h719v-105z" />
    <glyph glyph-name="H" unicode="H" horiz-adv-x="1521" 
d="M1067 0v618h-612v-618h-318v1454h318v-557h612v557h317v-1454h-317z" />
    <glyph glyph-name="I" unicode="I" horiz-adv-x="604" 
d="M145 0v1454h318v-1454h-318z" />
    <glyph glyph-name="J" unicode="J" horiz-adv-x="968" 
d="M840 457q0 -125 -34.5 -220.5t-97 -154.5t-146.5 -89t-187 -30q-219 0 -381 156l170 221q93 -96 198 -96q81 0 120.5 47.5t39.5 161.5v1001h318v-997z" />
    <glyph glyph-name="K" unicode="K" horiz-adv-x="1431" 
d="M1436 0h-424l-428 571l-129 -133v-438h-318v1454h318v-608l579 608h406l-627 -645z" />
    <glyph glyph-name="L" unicode="L" horiz-adv-x="1179" 
d="M1169 281v-281h-1032v1454h318v-1173h714z" />
    <glyph glyph-name="M" unicode="M" horiz-adv-x="1886" 
d="M1393 934l-320 -873h-260l-321 873l-35 -934h-318l60 1454h389l354 -1003l354 1003h392l57 -1454h-318z" />
    <glyph glyph-name="N" unicode="N" horiz-adv-x="1603" 
d="M1079 0l-620 1008h-4v-1008h-318v1454h387l619 -1008h4v1008h317v-1454h-385z" />
    <glyph glyph-name="O" unicode="O" horiz-adv-x="1622" 
d="M811 1491q161 0 294.5 -49t231.5 -142.5t152.5 -240t54.5 -332.5q0 -185 -54.5 -331.5t-152.5 -240.5t-231.5 -143t-294.5 -49t-294.5 49t-231.5 143t-152.5 240.5t-54.5 331.5q0 186 54.5 332.5t152.5 240t231.5 142.5t294.5 49zM811 1217q-186 0 -297 -128.5
t-111 -361.5q0 -232 111.5 -360.5t296.5 -128.5t296.5 128.5t111.5 360.5q0 233 -111 361.5t-297 128.5z" />
    <glyph glyph-name="P" unicode="P" horiz-adv-x="1331" 
d="M748 1454q142 0 248.5 -38.5t170 -107.5t94.5 -157.5t31 -196.5q0 -113 -33.5 -206.5t-99 -163.5t-170.5 -109t-241 -39h-285v-436h-318v1454h603zM463 715h268q117 0 176.5 62t59.5 179q0 218 -240 218h-264v-459z" />
    <glyph glyph-name="Q" unicode="Q" horiz-adv-x="1587" 
d="M1526 727q0 -237 -86.5 -405.5t-243.5 -260.5l176 -290h-340l-121 198q-59 -6 -118 -6q-161 0 -294.5 49t-232 143t-153 240.5t-54.5 331.5q0 186 54.5 332.5t153 240t232 142.5t294.5 49t294.5 -49t231.5 -142.5t152.5 -240t54.5 -332.5zM387 727q0 -232 111 -360.5
t295 -128.5q185 0 296 128.5t111 360.5q0 233 -111 361.5t-296 128.5q-184 0 -295 -128.5t-111 -361.5z" />
    <glyph glyph-name="R" unicode="R" horiz-adv-x="1359" 
d="M684 524h-229v-524h-318v1454h598q135 0 239 -37t165.5 -101t92 -144t30.5 -173q0 -145 -68.5 -258t-200.5 -170l295 -571h-346zM741 799q102 0 156.5 53t54.5 143q0 85 -54.5 135t-176.5 50h-266v-381h286z" />
    <glyph glyph-name="S" unicode="S" horiz-adv-x="1257" 
d="M621 1491q341 0 534 -205l-221 -211q-74 76 -146.5 109t-158.5 33q-209 0 -209 -152q0 -24 7.5 -43.5t16 -33.5t31.5 -27.5t38 -21.5t52 -19t56.5 -16t68.5 -17q182 -44 268 -87q228 -117 230 -362q0 -223 -156.5 -349t-410.5 -126q-387 0 -584 293l239 186
q78 -105 160.5 -154.5t184.5 -49.5q115 0 177 44.5t62 133.5q0 33 -12 57.5t-30.5 41t-56 31.5t-73 25.5t-97.5 26.5q-13 3 -20.5 5t-19 5t-21.5 6q-50 14 -86 26.5t-84 33.5t-82.5 43.5t-70.5 56.5t-58 72.5t-36.5 91t-14.5 113.5q0 206 140 323t383 117z" />
    <glyph glyph-name="T" unicode="T" horiz-adv-x="1239" 
d="M778 1174v-1174h-315v1174h-453v280h1219v-280h-451z" />
    <glyph glyph-name="U" unicode="U" horiz-adv-x="1497" 
d="M1362 547q0 -138 -46.5 -249t-128.5 -184t-194.5 -112t-244.5 -39t-243.5 39t-194 112t-129 184t-46.5 249v907h318v-907q0 -151 79.5 -230t215.5 -79q137 0 216.5 79t79.5 230v907h318v-907z" />
    <glyph glyph-name="V" unicode="V" horiz-adv-x="1466" 
d="M938 0h-408l-520 1454h342l383 -1128l383 1128h340z" />
    <glyph glyph-name="W" unicode="W" horiz-adv-x="1986" 
d="M1595 0h-383l-219 975l-219 -975h-383l-364 1454h333l234 -1071l211 1010h377l211 -1010l233 1071h334z" />
    <glyph glyph-name="X" unicode="X" horiz-adv-x="1441" 
d="M711 494l-340 -494h-363l512 743l-479 711h379l303 -448l309 448h361l-480 -696l512 -758h-383z" />
    <glyph glyph-name="Y" unicode="Y" horiz-adv-x="1359" 
d="M838 0h-318v571l-536 883h362l342 -580l348 580h340l-538 -883v-571z" />
    <glyph glyph-name="Z" unicode="Z" horiz-adv-x="1214" 
d="M35 0v281l751 893h-682v280h1045v-280l-748 -893h773v-281h-1139z" />
    <glyph glyph-name="bracketleft" unicode="[" horiz-adv-x="645" 
d="M344 1311v-1587h256v-216h-483v2018h483v-215h-256z" />
    <glyph glyph-name="backslash" unicode="\" horiz-adv-x="704" 
d="M713 0h-224l-573 1454h223z" />
    <glyph glyph-name="bracketright" unicode="]" horiz-adv-x="645" 
d="M43 -492v216h256v1587h-256v215h483v-2018h-483z" />
    <glyph glyph-name="asciicircum" unicode="^" horiz-adv-x="1216" 
d="M608 1114l-248 -452h-249l407 722h182l406 -722h-250z" />
    <glyph glyph-name="underscore" unicode="_" horiz-adv-x="1001" 
d="M-12 -313v207h1024v-207h-1024z" />
    <glyph glyph-name="grave" unicode="`" horiz-adv-x="595" 
d="M551 1212h-240l-270 314h346z" />
    <glyph glyph-name="a" unicode="a" horiz-adv-x="1220" 
d="M539 1020q175 0 278 -115v88h279v-993h-279v88q-103 -115 -278 -115q-217 0 -348.5 144.5t-131.5 378.5t131.5 379t348.5 145zM596 784q-115 0 -181.5 -77.5t-66.5 -210.5t66.5 -211t181.5 -78q143 0 213 119v340q-70 118 -213 118z" />
    <glyph glyph-name="b" unicode="b" horiz-adv-x="1226" 
d="M412 913q99 107 270 107q217 0 348 -144.5t131 -379.5t-131 -380t-348 -145q-176 0 -279 115v-86h-280v1495h289v-582zM625 784q-146 0 -213 -118v-340q32 -57 87.5 -88t125.5 -31q115 0 181 78t66 211t-66 210.5t-181 77.5z" />
    <glyph glyph-name="c" unicode="c" horiz-adv-x="1075" 
d="M594 1016q285 0 422 -211l-189 -162q-58 71 -109.5 101t-119.5 30q-118 0 -181 -74t-63 -200q0 -131 65 -207t177 -76q146 0 238 139l200 -145q-63 -110 -174.5 -173t-267.5 -63q-246 0 -387.5 143t-141.5 378t142.5 377.5t388.5 142.5z" />
    <glyph glyph-name="d" unicode="d" horiz-adv-x="1226" 
d="M823 0v86q-103 -115 -278 -115q-217 0 -349.5 145.5t-132.5 379.5t132.5 379t349.5 145q169 0 268 -107v582h289v-1495h-279zM600 784q-114 0 -180 -78t-66 -210t66 -210.5t180 -78.5q146 0 213 119v340q-67 118 -213 118z" />
    <glyph glyph-name="e" unicode="e" horiz-adv-x="1157" 
d="M1090 512q0 -42 -7 -96h-739q20 -109 90 -168.5t174 -59.5q160 0 252 121l203 -127q-156 -213 -457 -213q-257 0 -402 146t-145 389q0 232 140 375t381 143q239 0 374.5 -141t135.5 -369zM578 803q-89 0 -147 -51t-81 -136h449q-21 88 -77.5 137.5t-143.5 49.5z" />
    <glyph glyph-name="f" unicode="f" horiz-adv-x="698" 
d="M498 1524q129 0 233 -72l-82 -209q-56 37 -102 37q-49 0 -80 -35t-31 -102v-150h230v-217h-230v-776h-289v776h-106v217h106v166q0 91 29.5 162.5t79.5 115t111.5 65.5t130.5 22z" />
    <glyph glyph-name="g" unicode="g" horiz-adv-x="1226" 
d="M545 1022q175 0 278 -115v86h279v-975q0 -137 -40.5 -241.5t-114.5 -169t-173.5 -97t-222.5 -32.5q-265 0 -451 160l150 198q128 -112 291 -112q143 0 207.5 70.5t64.5 219.5v66q-96 -107 -268 -107q-217 0 -349.5 145.5t-132.5 379.5t132.5 379t349.5 145zM600 786
q-114 0 -180 -78t-66 -210t66 -210.5t180 -78.5q146 0 213 119v338q-66 120 -213 120z" />
    <glyph glyph-name="h" unicode="h" horiz-adv-x="1245" 
d="M412 899q108 121 290 121q209 0 324 -130t115 -364v-526h-289v496q0 123 -58.5 191.5t-162.5 68.5q-72 0 -129.5 -33t-89.5 -88v-635h-289v1495h289v-596z" />
    <glyph glyph-name="i" unicode="i" horiz-adv-x="536" 
d="M266 1516q72 0 118 -42.5t46 -123.5q0 -80 -47 -121t-119 -41t-117 41.5t-45 122.5q0 80 45.5 122t118.5 42zM123 0v993h289v-993h-289z" />
    <glyph glyph-name="j" unicode="j" horiz-adv-x="536" 
d="M266 1516q72 0 118 -42.5t46 -123.5q0 -80 -47 -121t-119 -41t-117 41.5t-45 122.5q0 80 45.5 122t118.5 42zM412 -109q0 -109 -32 -189.5t-87 -125t-120 -65.5t-140 -21q-118 0 -221 61l98 236q53 -33 108 -33q46 0 75.5 29t29.5 92v1118h289v-1102z" />
    <glyph glyph-name="k" unicode="k" horiz-adv-x="1196" 
d="M750 993h426l-469 -379l491 -614h-364l-334 446l-88 -69v-377h-289v1495h289v-784z" />
    <glyph glyph-name="l" unicode="l" horiz-adv-x="536" 
d="M123 0v1495h289v-1495h-289z" />
    <glyph glyph-name="m" unicode="m" horiz-adv-x="1855" 
d="M1343 1020q193 0 300.5 -120t107.5 -335v-565h-289v526q0 109 -49.5 169.5t-140.5 60.5q-61 0 -111.5 -28.5t-83.5 -78.5q4 -54 4 -84v-565h-288v526q0 109 -50 169.5t-141 60.5q-62 0 -112.5 -29.5t-77.5 -77.5v-649h-289v993h270v-104q105 131 283 131q223 0 328 -158
q133 158 339 158z" />
    <glyph glyph-name="n" unicode="n" horiz-adv-x="1245" 
d="M702 1020q209 0 324 -130t115 -364v-526h-289v494q0 125 -58 193.5t-163 68.5q-72 0 -129.5 -33t-89.5 -88v-635h-289v993h280v-104q109 131 299 131z" />
    <glyph glyph-name="o" unicode="o" horiz-adv-x="1185" 
d="M592 1020q253 0 393.5 -143t140.5 -381t-140.5 -381.5t-393.5 -143.5q-252 0 -392.5 143.5t-140.5 381.5t140.5 381t392.5 143zM592 784q-111 0 -177.5 -78t-66.5 -210t66.5 -210.5t177.5 -78.5t178.5 79t67.5 210t-67.5 209.5t-178.5 78.5z" />
    <glyph glyph-name="p" unicode="p" horiz-adv-x="1226" 
d="M682 1022q217 0 348 -144.5t131 -379.5t-131 -380t-348 -145q-174 0 -270 107v-572h-289v1485h280v-86q103 115 279 115zM625 786q-147 0 -213 -120v-338q32 -57 87.5 -88t125.5 -31q115 0 181 78t66 211t-66 210.5t-181 77.5z" />
    <glyph glyph-name="q" unicode="q" horiz-adv-x="1226" 
d="M545 1022q175 0 278 -115v86h279v-1485h-289v572q-96 -107 -268 -107q-217 0 -349.5 145.5t-132.5 379.5t132.5 379t349.5 145zM600 786q-114 0 -180 -78t-66 -210t66 -210.5t180 -78.5q146 0 213 119v338q-66 120 -213 120z" />
    <glyph glyph-name="r" unicode="r" horiz-adv-x="876" 
d="M682 1016q107 0 217 -66l-131 -270q-71 45 -147 45q-135 0 -209 -145v-580h-289v993h278v-147q104 170 281 170z" />
    <glyph glyph-name="s" unicode="s" horiz-adv-x="948" 
d="M477 1016q231 0 389 -142l-155 -190q-107 104 -242 104q-111 0 -111 -71q0 -37 32.5 -56.5t115.5 -39.5q141 -30 198 -55q169 -75 170 -253q0 -159 -120.5 -248.5t-302.5 -89.5q-259 0 -418 170l182 189q58 -69 116.5 -100t127.5 -31q133 0 133 88q0 12 -2.5 21.5
t-9 17.5t-13 14t-19.5 12t-23 10.5t-29 10t-32.5 9t-38 10t-40.5 10.5q-47 12 -85.5 25.5t-82 38.5t-73 55.5t-49 77t-19.5 102.5q0 140 111 225.5t290 85.5z" />
    <glyph glyph-name="t" unicode="t" horiz-adv-x="761" 
d="M692 993v-217h-266v-422q0 -135 106 -135q57 0 113 41l105 -182q-119 -96 -279 -96q-154 0 -243 91.5t-89 248.5v454h-114v217h114v271h287v-271h266z" />
    <glyph glyph-name="u" unicode="u" horiz-adv-x="1224" 
d="M821 0v96q-107 -123 -291 -123q-202 0 -314 130t-112 364v526h289v-493q0 -125 55 -193.5t154 -68.5q70 0 125.5 30.5t85.5 81.5v643h289v-993h-281z" />
    <glyph glyph-name="v" unicode="v" horiz-adv-x="1167" 
d="M766 0h-354l-412 993h324l268 -712l260 712h315z" />
    <glyph glyph-name="w" unicode="w" horiz-adv-x="1779" 
d="M1452 0h-338l-207 674l-200 -674h-340l-349 993h310l215 -704l200 704h330l203 -694l190 694h295z" />
    <glyph glyph-name="x" unicode="x" horiz-adv-x="1222" 
d="M600 307l-246 -307h-344l410 514l-404 479h373l209 -264l201 264h360l-381 -471l436 -522h-372z" />
    <glyph glyph-name="y" unicode="y" horiz-adv-x="1183" 
d="M563 -492h-307l199 443l-449 1042h316l278 -688l266 688h310z" />
    <glyph glyph-name="z" unicode="z" horiz-adv-x="993" 
d="M387 236h557v-236h-907v215l516 543h-475v235h837v-213z" />
    <glyph glyph-name="braceleft" unicode="{" horiz-adv-x="702" 
d="M522 1311q-51 0 -77.5 -33t-26.5 -94v-414q0 -58 -18 -101.5t-46.5 -66t-53.5 -33.5t-48 -14v-4q166 -20 166 -227v-474q0 -126 104 -126h133v-216h-168q-130 0 -213.5 90.5t-83.5 241.5v420q0 47 -22 85t-54 58.5t-62.5 31.5t-53.5 11v213q33 0 74.5 16t79.5 57t38 97
v365q0 153 83 242.5t214 89.5h168v-215h-133z" />
    <glyph glyph-name="bar" unicode="|" horiz-adv-x="579" 
d="M193 -102v1618h194v-1618h-194z" />
    <glyph glyph-name="braceright" unicode="}" horiz-adv-x="698" 
d="M209 1526q131 0 214 -89.5t83 -242.5v-365q0 -56 38 -97t79.5 -57t74.5 -16v-213q-23 0 -53.5 -11t-62.5 -31.5t-54 -58.5t-22 -85v-420q0 -151 -83.5 -241.5t-213.5 -90.5h-168v216h133q105 0 105 126v474q0 208 165 227v4q-23 3 -48 14t-53 33.5t-46 66t-18 101.5v414
q0 60 -27 93.5t-78 33.5h-133v215h168z" />
    <glyph glyph-name="asciitilde" unicode="~" horiz-adv-x="1220" 
d="M416 725q50 0 98 -17t84.5 -41t70 -48t69 -41t67.5 -17q117 0 137 160h203q-5 -76 -28.5 -145t-65 -126t-106 -90.5t-142.5 -33.5q-49 0 -96 17t-83.5 41t-70 47.5t-69.5 40.5t-68 17q-118 0 -137 -159h-203q5 76 28.5 145.5t64.5 126t105 90t142 33.5z" />
    <glyph glyph-name="exclamdown" unicode="&#xa1;" horiz-adv-x="694" 
d="M348 676q-78 0 -125 47.5t-47 126.5t46 125.5t124 46.5q81 0 127.5 -46t46.5 -126q0 -79 -47 -126.5t-125 -47.5zM195 -449q0 80 0.5 152t1 126.5t2.5 114t3 94t4.5 88.5t4.5 75t5.5 76t5.5 69.5t7 77t7 78.5h225q1 -16 7 -78.5t7 -77t5.5 -69.5t5.5 -76t4.5 -75
t4.5 -88.5t3 -94t2.5 -114t1 -126.5t0.5 -152h-307z" />
    <glyph glyph-name="cent" unicode="&#xa2;" horiz-adv-x="1212" 
d="M1057 469q-104 -196 -346 -233v-236h-201v233q-196 28 -307 161t-111 339q0 207 111.5 348.5t306.5 171.5v201h201v-201q214 -35 329 -219l-198 -137q-66 88 -131 115v-535q81 31 149 119zM373 735q0 -97 36 -163.5t101 -94.5v531q-67 -32 -102 -103.5t-35 -169.5z" />
    <glyph glyph-name="sterling" unicode="&#xa3;" horiz-adv-x="1150" 
d="M1092 180q-26 -38 -59 -72t-80 -67.5t-110 -53.5t-132 -20q-50 0 -98.5 9.5t-101 31.5t-79 35.5t-82.5 42.5l-47 -86l-244 82q62 111 105 237.5t43 217.5q0 39 -2 57h-129v213h76q-37 126 -37 258q0 180 117 279.5t321 99.5q350 0 469 -295l-227 -113q-67 174 -224 174
q-74 0 -121.5 -35t-48.5 -106q0 -37 5 -75.5t9.5 -60.5t15.5 -66l15 -60h349v-213h-318l2 -51q0 -131 -37 -250q170 -94 271 -94q61 0 101.5 33t92.5 108z" />
    <glyph glyph-name="yen" unicode="&#xa5;" horiz-adv-x="1138" 
d="M956 676v-164h-251v-127h251v-164h-251v-221h-291v221h-242v164h242v127h-242v164h172l-307 708h307l221 -573l230 573h305l-316 -708h172z" />
    <glyph glyph-name="brokenbar" unicode="&#xa6;" horiz-adv-x="579" 
d="M193 895v621h194v-621h-194zM193 -102v620h194v-620h-194z" />
    <glyph glyph-name="section" unicode="&#xa7;" horiz-adv-x="1142" 
d="M920 317q98 -88 98 -239q0 -184 -130 -288.5t-341 -104.5q-315 0 -479 241l198 156q65 -89 132 -129.5t157 -40.5q89 0 141 37.5t52 107.5q0 20 -5 36.5t-12.5 28.5t-23.5 22.5t-29.5 17.5t-40.5 15.5t-45.5 14t-55.5 15t-61 16.5q-59 17 -102 33t-94 46t-83.5 66.5
t-54.5 93t-22 126.5q0 99 42.5 175t121.5 122q-107 90 -107 245q0 169 116 265t324 96q279 0 433 -170l-181 -174q-62 64 -121.5 91.5t-132.5 27.5q-87 0 -129.5 -33t-42.5 -92q0 -18 3 -32.5t13 -26.5l17.5 -21t27 -18t31 -14t39.5 -12.5t42.5 -11.5t50.5 -12
q51 -13 86 -23t81.5 -27t78 -35.5t65.5 -47t54 -61.5t33 -78.5t13 -99.5q0 -198 -157 -304zM385 610q0 -38 9.5 -62.5t39.5 -41.5t55 -24.5t85 -22.5q21 -5 32 -8q56 -14 103 -27q98 45 98 166q0 26 -4.5 45.5t-17.5 34t-25 24t-40 19.5t-48 15.5t-63.5 17t-73.5 20.5l-31 8
q-60 -13 -89.5 -57t-29.5 -107z" />
    <glyph glyph-name="dieresis" unicode="&#xa8;" horiz-adv-x="851" 
d="M199 1507q67 0 111 -40.5t44 -116.5q0 -75 -44.5 -114.5t-112.5 -39.5t-111 40t-43 116q0 75 43.5 115t112.5 40zM651 1507q68 0 112 -40.5t44 -116.5t-44.5 -115t-111.5 -39q-68 0 -110.5 40t-42.5 116q0 75 42.5 115t110.5 40z" />
    <glyph glyph-name="copyright" unicode="&#xa9;" horiz-adv-x="1613" 
d="M809 1491q162 0 298.5 -52t235 -148.5t154 -241t55.5 -322.5t-55.5 -322.5t-154 -241t-235 -148.5t-298.5 -52q-218 0 -386 89t-265 264t-97 411t97 411t265 264t386 89zM807 1305q-252 0 -402.5 -153t-150.5 -425t150.5 -424.5t402.5 -152.5q251 0 402 152.5t151 424.5
t-151 425t-402 153zM811 1196q226 0 350 -178l-153 -127q-82 110 -195 110q-99 0 -155 -72t-56 -206q0 -131 54.5 -200.5t156.5 -69.5q123 0 197 120l168 -102q-118 -213 -367 -213q-194 0 -308 119.5t-114 349.5t114.5 349.5t307.5 119.5z" />
    <glyph glyph-name="ordfeminine" unicode="&#xaa;" horiz-adv-x="915" 
d="M385 1393q121 0 195 -80v59h249v-696h-249v59q-74 -80 -195 -80q-155 0 -248.5 101t-93.5 266q0 166 93.5 268.5t248.5 102.5zM446 1194q-66 0 -105.5 -47t-39.5 -125q0 -77 39.5 -123.5t105.5 -46.5q85 0 125 70v202q-42 70 -125 70z" />
    <glyph glyph-name="guillemotleft" unicode="&#xab;" horiz-adv-x="1036" 
d="M504 993v-272l-228 -164l228 -164v-272l-410 338v196zM721 557l225 -164v-272l-409 338v196l409 338v-272z" />
    <glyph glyph-name="logicalnot" unicode="&#xac;" horiz-adv-x="1220" 
d="M922 168v385h-852v227h1079v-612h-227z" />
    <glyph glyph-name="registered" unicode="&#xae;" horiz-adv-x="1613" 
d="M809 1491q162 0 298.5 -52t235 -148.5t154 -241t55.5 -322.5t-55.5 -322.5t-154 -241t-235 -148.5t-298.5 -52q-218 0 -386 89t-265 264t-97 411t97 411t265 264t386 89zM807 150q251 0 402 152.5t151 424.5t-151 425t-402 153t-402 -153t-151 -425t151 -424.5
t402 -152.5zM1159 909q0 -86 -42.5 -156.5t-123.5 -99.5l178 -340h-206l-160 320h-100v-320h-191v863h365q72 0 128 -23t88 -62t48 -85t16 -97zM846 795q64 0 96.5 29.5t32.5 82.5q0 49 -31 79t-98 30h-141v-221h141z" />
    <glyph glyph-name="macron" unicode="&#xaf;" horiz-adv-x="700" 
d="M43 1284v197h614v-197h-614z" />
    <glyph glyph-name="degree" unicode="&#xb0;" horiz-adv-x="724" 
d="M365 1526q152 0 238.5 -87.5t86.5 -232.5q0 -144 -86.5 -230.5t-238.5 -86.5q-154 0 -242 86.5t-88 230.5t88.5 232t241.5 88zM365 1374q-78 0 -122 -44.5t-44 -123.5q0 -78 44 -121t122 -43q76 0 121.5 43.5t45.5 120.5q0 79 -45.5 123.5t-121.5 44.5z" />
    <glyph glyph-name="plusminus" unicode="&#xb1;" horiz-adv-x="1220" 
d="M1149 598h-424v-254h-227v254h-428v209h428v254h227v-254h424v-209zM1149 227v-227h-1079v227h1079z" />
    <glyph glyph-name="twosuperior" unicode="&#xb2;" horiz-adv-x="749" 
d="M682 676h-619v155q58 60 125.5 126t100.5 98t64.5 68.5t43 62.5t11.5 55q0 38 -26.5 60t-70.5 22q-86 0 -157 -74l-123 140q113 135 321 135q145 0 229.5 -73.5t84.5 -195.5q0 -23 -3.5 -45t-13.5 -45t-18 -40t-28 -42t-30.5 -39t-38.5 -42.5t-40 -40.5t-47 -45t-48 -46
h283v-194z" />
    <glyph glyph-name="threesuperior" unicode="&#xb3;" horiz-adv-x="747" 
d="M553 1114q113 -66 113 -188q0 -119 -90.5 -193t-241.5 -74q-126 0 -210 53.5t-116 125.5l174 123q32 -58 63 -80.5t87 -22.5q38 0 59 20t21 54q0 35 -24.5 52t-86.5 17h-80v193h64q104 0 104 72q0 57 -65 57q-41 0 -71.5 -18t-70.5 -64l-151 131q106 152 295 152
q144 0 230.5 -72.5t86.5 -181.5q0 -96 -90 -156z" />
    <glyph glyph-name="acute" unicode="&#xb4;" horiz-adv-x="595" 
d="M43 1212l164 314h346l-270 -314h-240z" />
    <glyph glyph-name="mu" unicode="&#xb5;" horiz-adv-x="1243" 
d="M840 0v96q-99 -123 -269 -123q-97 0 -159 45v-510h-289v1485h289v-508q0 -247 209 -247q70 0 125 30.5t85 81.5v643h289v-993h-280z" />
    <glyph glyph-name="paragraph" unicode="&#xb6;" horiz-adv-x="1339" 
d="M1087 1239v-1450h-227v1450h-160v-1450h-227v879h-29q-192 0 -298.5 98.5t-106.5 288.5q0 96 24.5 167t66.5 115t106 70.5t134.5 36.5t161.5 10h676v-215h-121z" />
    <glyph glyph-name="periodcentered" unicode="&#xb7;" horiz-adv-x="598" 
d="M301 926q78 0 125 -47.5t47 -126.5q0 -80 -46.5 -126t-127.5 -46q-78 0 -124 46.5t-46 125.5t47 126.5t125 47.5z" />
    <glyph glyph-name="cedilla" unicode="&#xb8;" horiz-adv-x="589" 
d="M319 -104q38 0 67 -3t60.5 -14t52.5 -29t34.5 -50t13.5 -76q0 -69 -41.5 -116.5t-100.5 -67t-129 -19.5q-67 0 -129.5 17.5t-103.5 47.5l47 127q71 -43 168 -43q39 0 61.5 14t22.5 40q0 34 -64 52.5t-157 18.5l82 228h192z" />
    <glyph glyph-name="onesuperior" unicode="&#xb9;" horiz-adv-x="784" 
d="M682 870v-194h-573v194h167v355q-55 -55 -122 -86l-72 182q63 29 114 77t78 109h240v-637h168z" />
    <glyph glyph-name="ordmasculine" unicode="&#xba;" horiz-adv-x="884" 
d="M442 1393q193 0 298.5 -101t105.5 -270q0 -168 -105.5 -268.5t-298.5 -100.5q-192 0 -296.5 100.5t-104.5 268.5q0 170 104.5 270.5t296.5 100.5zM442 1194q-63 0 -103 -47.5t-40 -124.5q0 -76 40 -123t103 -47q65 0 104.5 47t39.5 123q0 78 -39.5 125t-104.5 47z" />
    <glyph glyph-name="guillemotright" unicode="&#xbb;" horiz-adv-x="1036" 
d="M496 655v-196l-410 -338v272l225 164l-225 164v272zM940 459l-410 -338v272l226 164l-226 164v272l410 -338v-196z" />
    <glyph glyph-name="onequarter" unicode="&#xbc;" horiz-adv-x="1880" 
d="M569 -82h-192l962 1536h193zM276 1102q-55 -55 -122 -86l-74 182q63 29 114 77t80 109h240v-636h168v-195h-573v195h167v354zM1729 135v-135h-246v135h-346v150l358 546h234v-532h102v-164h-102zM1483 559l-172 -260h172v260z" />
    <glyph glyph-name="onehalf" unicode="&#xbd;" horiz-adv-x="1875" 
d="M569 -82h-192l962 1536h193zM276 1102q-55 -55 -122 -86l-74 182q63 29 114 77t80 109h240v-636h168v-195h-573v195h167v354zM1806 0h-620v156q58 60 126.5 126t101 97.5t64.5 68t43 62.5t11 55q0 38 -26 60t-70 22q-86 0 -160 -74l-121 140q113 135 322 135
q144 0 227.5 -73t83.5 -195q0 -23 -3.5 -45t-14 -45.5t-17.5 -40t-27.5 -42t-30 -38.5t-38.5 -42.5t-40 -40t-47.5 -45.5t-47.5 -46h284v-195z" />
    <glyph glyph-name="threequarters" unicode="&#xbe;" horiz-adv-x="1843" 
d="M532 -82h-192l963 1536h192zM664 803q0 -120 -89.5 -193t-240.5 -73q-126 0 -210 52.5t-118 125.5l176 123q32 -58 63 -80.5t87 -22.5q38 0 59 20t21 54q0 36 -24.5 53t-86.5 17h-80v192h64q104 0 104 72q0 57 -65 57q-41 0 -71.5 -18t-70.5 -64l-151 131
q106 152 295 152q144 0 229.5 -72.5t85.5 -181.5q0 -95 -88 -156q111 -65 111 -188zM1690 135v-135h-246v135h-346v150l358 546h234v-532h102v-164h-102zM1444 559l-172 -260h172v260z" />
    <glyph glyph-name="questiondown" unicode="&#xbf;" horiz-adv-x="1120" 
d="M629 1022q80 0 127 -46.5t47 -125.5t-48 -126.5t-126 -47.5t-125 47.5t-47 126.5q0 80 46.5 126t125.5 46zM778 465q0 -48 -13.5 -90t-29 -68.5t-49.5 -58t-52.5 -45.5t-60.5 -43q-40 -30 -62 -48.5t-49.5 -49.5t-40.5 -66t-13 -76q2 -80 54.5 -123t149.5 -43
q81 0 143.5 40t135.5 151l205 -174q-180 -252 -504 -252q-221 0 -348 106.5t-127 296.5q0 64 16.5 121t37.5 94t59 75t61.5 56t64.5 47q68 44 102 78.5t34 77.5v61h286v-67z" />
    <glyph glyph-name="Agrave" unicode="&#xc0;" horiz-adv-x="1560" 
d="M436 1894h375l164 -313h-268zM465 338l-127 -338h-334l574 1454h399l573 -1454h-346l-125 338h-614zM774 1157l-203 -541h404z" />
    <glyph glyph-name="Aacute" unicode="&#xc1;" horiz-adv-x="1560" 
d="M588 1581l164 313h374l-270 -313h-268zM465 338l-127 -338h-334l574 1454h399l573 -1454h-346l-125 338h-614zM774 1157l-203 -541h404z" />
    <glyph glyph-name="Acircumflex" unicode="&#xc2;" horiz-adv-x="1560" 
d="M344 1602l240 292h395l242 -292h-310l-131 143l-129 -143h-307zM465 338l-127 -338h-334l574 1454h399l573 -1454h-346l-125 338h-614zM774 1157l-203 -541h404z" />
    <glyph glyph-name="Atilde" unicode="&#xc3;" horiz-adv-x="1560" 
d="M639 1708q-26 0 -41.5 -17.5t-22.5 -62.5h-198q24 275 227 275q66 0 154 -31q120 -43 157 -43q32 0 49.5 19t24.5 69h197q-6 -138 -69 -211.5t-167 -73.5q-79 0 -186 41q-93 35 -125 35zM465 338l-127 -338h-334l574 1454h399l573 -1454h-346l-125 338h-614zM774 1157
l-203 -541h404z" />
    <glyph glyph-name="Adieresis" unicode="&#xc4;" horiz-adv-x="1560" 
d="M535 1552q-71 0 -116.5 42.5t-45.5 123.5q0 79 46 121.5t118 42.5q71 0 117 -43t46 -123q0 -81 -46.5 -122.5t-118.5 -41.5zM1024 1552q-71 0 -116.5 42.5t-45.5 123.5q0 79 46 121.5t118 42.5q71 0 117.5 -43t46.5 -123q0 -81 -47 -122.5t-119 -41.5zM465 338l-127 -338
h-334l574 1454h399l573 -1454h-346l-125 338h-614zM774 1157l-203 -541h404z" />
    <glyph glyph-name="Aring" unicode="&#xc5;" horiz-adv-x="1560" 
d="M780 1540q-106 0 -167.5 60t-61.5 161q0 102 61.5 163t167.5 61t168 -61t62 -163q0 -101 -62 -161t-168 -60zM780 1872q-51 0 -78.5 -29t-27.5 -82q0 -51 27.5 -78.5t78.5 -27.5q52 0 81.5 28t29.5 78q0 52 -30 81.5t-81 29.5zM465 338l-127 -338h-334l574 1454h399
l573 -1454h-346l-125 338h-614zM774 1157l-203 -541h404z" />
    <glyph glyph-name="AE" unicode="&#xc6;" horiz-adv-x="2043" 
d="M1268 881h600v-271h-600v-329h717v-281h-1035v338h-510l-178 -338h-336l795 1454h1264v-280h-717v-293zM950 1174h-71l-293 -558h364v558z" />
    <glyph glyph-name="Ccedilla" unicode="&#xc7;" horiz-adv-x="1529" 
d="M1460 362q-103 -189 -262 -289.5t-360 -109.5l-41 -67q48 0 83.5 -6t70.5 -22.5t54 -53t19 -90.5q0 -69 -41.5 -116.5t-100 -67t-128.5 -19.5q-67 0 -130 17.5t-104 47.5l47 127q71 -43 168 -43q39 0 61.5 14t22.5 40q0 34 -64 52.5t-157 18.5l64 178q-270 39 -427 234
t-157 520q0 366 196.5 565t530.5 199q202 0 357 -74t272 -237l-226 -197q-94 124 -186.5 179t-220.5 55q-187 0 -296.5 -126.5t-109.5 -363.5q0 -234 108 -361.5t294 -127.5q96 0 171 34t130 93t116 159z" />
    <glyph glyph-name="Egrave" unicode="&#xc8;" horiz-adv-x="1232" 
d="M805 1581h-268l-271 313h375zM455 1174v-293h600v-271h-600v-329h716v-281h-1034v1454h1034v-280h-716z" />
    <glyph glyph-name="Eacute" unicode="&#xc9;" horiz-adv-x="1232" 
d="M418 1581l164 313h374l-270 -313h-268zM455 1174v-293h600v-271h-600v-329h716v-281h-1034v1454h1034v-280h-716z" />
    <glyph glyph-name="Ecircumflex" unicode="&#xca;" horiz-adv-x="1232" 
d="M741 1602l-131 143l-129 -143h-307l240 292h395l242 -292h-310zM455 1174v-293h600v-271h-600v-329h716v-281h-1034v1454h1034v-280h-716z" />
    <glyph glyph-name="Edieresis" unicode="&#xcb;" horiz-adv-x="1232" 
d="M367 1882q71 0 117 -43t46 -123q0 -81 -46.5 -122.5t-118.5 -41.5q-71 0 -116.5 42.5t-45.5 123.5q0 79 46 121.5t118 42.5zM856 1882q71 0 117.5 -43t46.5 -123q0 -81 -47 -122.5t-119 -41.5q-71 0 -116.5 42.5t-45.5 123.5q0 79 46 121.5t118 42.5zM455 1174v-293h600
v-271h-600v-329h716v-281h-1034v1454h1034v-280h-716z" />
    <glyph glyph-name="Igrave" unicode="&#xcc;" horiz-adv-x="604" 
d="M496 1581h-269l-270 313h375zM145 0v1454h318v-1454h-318z" />
    <glyph glyph-name="Iacute" unicode="&#xcd;" horiz-adv-x="604" 
d="M109 1581l163 313h375l-270 -313h-268zM145 0v1454h318v-1454h-318z" />
    <glyph glyph-name="Icircumflex" unicode="&#xce;" horiz-adv-x="604" 
d="M432 1602l-131 143l-129 -143h-307l239 292h396l241 -292h-309zM145 0v1454h318v-1454h-318z" />
    <glyph glyph-name="Idieresis" unicode="&#xcf;" horiz-adv-x="604" 
d="M57 1882q71 0 117.5 -43t46.5 -123q0 -81 -47 -122.5t-119 -41.5q-71 0 -116 42.5t-45 123.5q0 79 45.5 121.5t117.5 42.5zM547 1882q71 0 117.5 -43t46.5 -123q0 -81 -47 -122.5t-119 -41.5q-71 0 -116.5 42.5t-45.5 123.5q0 79 46 121.5t118 42.5zM145 0v1454h318
v-1454h-318z" />
    <glyph glyph-name="Eth" unicode="&#xd0;" horiz-adv-x="1515" 
d="M696 1454q165 0 301.5 -46.5t237 -136t156 -228.5t55.5 -316t-55.5 -316t-156 -228.5t-236.5 -136t-300 -46.5h-557v639h-94v227h94v588h555zM717 281q174 0 288.5 118t114.5 328t-115 328.5t-288 118.5h-258v-308h303v-227h-303v-358h258z" />
    <glyph glyph-name="Ntilde" unicode="&#xd1;" horiz-adv-x="1603" 
d="M1204 1917q-6 -138 -69 -211.5t-166 -73.5q-80 0 -187 41q-93 35 -125 35q-26 0 -41 -17.5t-22 -62.5h-199q24 275 228 275q65 0 153 -31q120 -43 158 -43q32 0 49.5 19t24.5 69h196zM1079 0l-620 1008h-4v-1008h-318v1454h387l619 -1008h4v1008h317v-1454h-385z" />
    <glyph glyph-name="Ograve" unicode="&#xd2;" horiz-adv-x="1622" 
d="M1004 1581h-269l-270 313h375zM811 1491q161 0 294.5 -49t231.5 -142.5t152.5 -240t54.5 -332.5q0 -185 -54.5 -331.5t-152.5 -240.5t-231.5 -143t-294.5 -49t-294.5 49t-231.5 143t-152.5 240.5t-54.5 331.5q0 186 54.5 332.5t152.5 240t231.5 142.5t294.5 49zM811 1217
q-186 0 -297 -128.5t-111 -361.5q0 -232 111.5 -360.5t296.5 -128.5t296.5 128.5t111.5 360.5q0 233 -111 361.5t-297 128.5z" />
    <glyph glyph-name="Oacute" unicode="&#xd3;" horiz-adv-x="1622" 
d="M616 1581l164 313h375l-270 -313h-269zM811 1491q161 0 294.5 -49t231.5 -142.5t152.5 -240t54.5 -332.5q0 -185 -54.5 -331.5t-152.5 -240.5t-231.5 -143t-294.5 -49t-294.5 49t-231.5 143t-152.5 240.5t-54.5 331.5q0 186 54.5 332.5t152.5 240t231.5 142.5t294.5 49z
M811 1217q-186 0 -297 -128.5t-111 -361.5q0 -232 111.5 -360.5t296.5 -128.5t296.5 128.5t111.5 360.5q0 233 -111 361.5t-297 128.5z" />
    <glyph glyph-name="Ocircumflex" unicode="&#xd4;" horiz-adv-x="1622" 
d="M940 1602l-131 143l-129 -143h-307l239 292h396l241 -292h-309zM811 1491q161 0 294.5 -49t231.5 -142.5t152.5 -240t54.5 -332.5q0 -185 -54.5 -331.5t-152.5 -240.5t-231.5 -143t-294.5 -49t-294.5 49t-231.5 143t-152.5 240.5t-54.5 331.5q0 186 54.5 332.5t152.5 240
t231.5 142.5t294.5 49zM811 1217q-186 0 -297 -128.5t-111 -361.5q0 -232 111.5 -360.5t296.5 -128.5t296.5 128.5t111.5 360.5q0 233 -111 361.5t-297 128.5z" />
    <glyph glyph-name="Otilde" unicode="&#xd5;" horiz-adv-x="1622" 
d="M1214 1917q-6 -138 -69 -211.5t-166 -73.5q-79 0 -186 41q-93 35 -125 35q-26 0 -41.5 -17.5t-22.5 -62.5h-198q24 275 227 275q65 0 153 -31q120 -43 158 -43q32 0 49.5 19t24.5 69h196zM811 1491q161 0 294.5 -49t231.5 -142.5t152.5 -240t54.5 -332.5
q0 -185 -54.5 -331.5t-152.5 -240.5t-231.5 -143t-294.5 -49t-294.5 49t-231.5 143t-152.5 240.5t-54.5 331.5q0 186 54.5 332.5t152.5 240t231.5 142.5t294.5 49zM811 1217q-186 0 -297 -128.5t-111 -361.5q0 -232 111.5 -360.5t296.5 -128.5t296.5 128.5t111.5 360.5
q0 233 -111 361.5t-297 128.5z" />
    <glyph glyph-name="Odieresis" unicode="&#xd6;" horiz-adv-x="1622" 
d="M565 1882q71 0 117.5 -43t46.5 -123q0 -81 -47 -122.5t-119 -41.5q-71 0 -116.5 42.5t-45.5 123.5q0 79 46 121.5t118 42.5zM1055 1882q71 0 117.5 -43t46.5 -123q0 -81 -47 -122.5t-119 -41.5q-71 0 -116.5 42.5t-45.5 123.5q0 79 46 121.5t118 42.5zM811 1491
q161 0 294.5 -49t231.5 -142.5t152.5 -240t54.5 -332.5q0 -185 -54.5 -331.5t-152.5 -240.5t-231.5 -143t-294.5 -49t-294.5 49t-231.5 143t-152.5 240.5t-54.5 331.5q0 186 54.5 332.5t152.5 240t231.5 142.5t294.5 49zM811 1217q-186 0 -297 -128.5t-111 -361.5
q0 -232 111.5 -360.5t296.5 -128.5t296.5 128.5t111.5 360.5q0 233 -111 361.5t-297 128.5z" />
    <glyph glyph-name="multiply" unicode="&#xd7;" horiz-adv-x="1153" 
d="M578 352l-353 -352l-155 156l352 350l-352 348l155 156l350 -351l351 351l153 -158l-348 -348l350 -348l-153 -156z" />
    <glyph glyph-name="Oslash" unicode="&#xd8;" horiz-adv-x="1587" 
d="M1325 1305q213 -207 213 -578q0 -185 -54.5 -331.5t-152.5 -240.5t-231.5 -143t-294.5 -49q-233 0 -404 98l-96 -129l-137 103l98 133q-194 200 -194 559q0 186 54.5 332.5t152.5 240t231.5 142.5t294.5 49q217 0 381 -86l88 117l137 -103zM397 727q0 -169 66 -295
l547 733q-88 52 -205 52q-186 0 -297 -128.5t-111 -361.5zM805 238q185 0 296 128.5t111 360.5q0 196 -79 317l-553 -743q97 -63 225 -63z" />
    <glyph glyph-name="Ugrave" unicode="&#xd9;" horiz-adv-x="1497" 
d="M940 1581h-268l-271 313h375zM1362 547q0 -138 -46.5 -249t-128.5 -184t-194.5 -112t-244.5 -39t-243.5 39t-194 112t-129 184t-46.5 249v907h318v-907q0 -151 79.5 -230t215.5 -79q137 0 216.5 79t79.5 230v907h318v-907z" />
    <glyph glyph-name="Uacute" unicode="&#xda;" horiz-adv-x="1497" 
d="M553 1581l164 313h375l-271 -313h-268zM1362 547q0 -138 -46.5 -249t-128.5 -184t-194.5 -112t-244.5 -39t-243.5 39t-194 112t-129 184t-46.5 249v907h318v-907q0 -151 79.5 -230t215.5 -79q137 0 216.5 79t79.5 230v907h318v-907z" />
    <glyph glyph-name="Ucircumflex" unicode="&#xdb;" horiz-adv-x="1497" 
d="M877 1602l-132 143l-129 -143h-307l240 292h395l242 -292h-309zM1362 547q0 -138 -46.5 -249t-128.5 -184t-194.5 -112t-244.5 -39t-243.5 39t-194 112t-129 184t-46.5 249v907h318v-907q0 -151 79.5 -230t215.5 -79q137 0 216.5 79t79.5 230v907h318v-907z" />
    <glyph glyph-name="Udieresis" unicode="&#xdc;" horiz-adv-x="1497" 
d="M504 1882q71 0 117.5 -43t46.5 -123q0 -81 -47 -122.5t-119 -41.5q-71 0 -116.5 42.5t-45.5 123.5q0 79 46 121.5t118 42.5zM993 1882q71 0 117.5 -43t46.5 -123q0 -81 -47 -122.5t-119 -41.5q-71 0 -116.5 42.5t-45.5 123.5q0 79 46 121.5t118 42.5zM1362 547
q0 -138 -46.5 -249t-128.5 -184t-194.5 -112t-244.5 -39t-243.5 39t-194 112t-129 184t-46.5 249v907h318v-907q0 -151 79.5 -230t215.5 -79q137 0 216.5 79t79.5 230v907h318v-907z" />
    <glyph glyph-name="Yacute" unicode="&#xdd;" horiz-adv-x="1359" 
d="M496 1673l163 314h347l-271 -314h-239zM838 0h-318v571l-536 883h362l342 -580l348 580h340l-538 -883v-571z" />
    <glyph glyph-name="Thorn" unicode="&#xde;" horiz-adv-x="1331" 
d="M748 1245q142 0 248.5 -39t170 -108t94.5 -157.5t31 -195.5q0 -113 -33.5 -206.5t-99 -163.5t-170.5 -109t-241 -39h-285v-227h-318v1454h318v-209h285zM463 506h268q117 0 176.5 62.5t59.5 179.5q0 217 -240 217h-264v-459z" />
    <glyph glyph-name="germandbls" unicode="&#xdf;" horiz-adv-x="1300" 
d="M926 827q152 -49 231.5 -151.5t79.5 -245.5q0 -135 -69 -239.5t-185.5 -160t-259.5 -55.5q-160 0 -252 54l104 217q60 -37 148 -37q100 0 162.5 58.5t62.5 162.5q0 124 -90 184.5t-293 63.5v231q106 3 176 64t70 157q0 79 -46.5 120.5t-133.5 41.5q-105 0 -162 -73.5
t-57 -219.5v-999h-289v999q0 236 134 381.5t374 145.5q207 0 338 -111t131 -285q0 -89 -45.5 -167t-128.5 -136z" />
    <glyph glyph-name="agrave" unicode="&#xe0;" horiz-adv-x="1220" 
d="M799 1212h-240l-270 314h346zM539 1020q175 0 278 -115v88h279v-993h-279v88q-103 -115 -278 -115q-217 0 -348.5 144.5t-131.5 378.5t131.5 379t348.5 145zM596 784q-115 0 -181.5 -77.5t-66.5 -210.5t66.5 -211t181.5 -78q143 0 213 119v340q-70 118 -213 118z" />
    <glyph glyph-name="aacute" unicode="&#xe1;" horiz-adv-x="1220" 
d="M414 1212l164 314h346l-271 -314h-239zM539 1020q175 0 278 -115v88h279v-993h-279v88q-103 -115 -278 -115q-217 0 -348.5 144.5t-131.5 378.5t131.5 379t348.5 145zM596 784q-115 0 -181.5 -77.5t-66.5 -210.5t66.5 -211t181.5 -78q143 0 213 119v340q-70 118 -213 118
z" />
    <glyph glyph-name="acircumflex" unicode="&#xe2;" horiz-adv-x="1220" 
d="M737 1233l-131 143l-129 -143h-278l239 293h338l242 -293h-281zM539 1020q175 0 278 -115v88h279v-993h-279v88q-103 -115 -278 -115q-217 0 -348.5 144.5t-131.5 378.5t131.5 379t348.5 145zM596 784q-115 0 -181.5 -77.5t-66.5 -210.5t66.5 -211t181.5 -78
q143 0 213 119v340q-70 118 -213 118z" />
    <glyph glyph-name="atilde" unicode="&#xe3;" horiz-adv-x="1220" 
d="M1012 1507q-6 -138 -69 -211t-167 -73q-79 0 -186 41q-90 34 -125 34q-26 0 -41.5 -17t-22.5 -62h-198q24 274 227 274q66 0 154 -31q120 -43 157 -43q32 0 49.5 19t24.5 69h197zM539 1020q175 0 278 -115v88h279v-993h-279v88q-103 -115 -278 -115q-217 0 -348.5 144.5
t-131.5 378.5t131.5 379t348.5 145zM596 784q-115 0 -181.5 -77.5t-66.5 -210.5t66.5 -211t181.5 -78q143 0 213 119v340q-70 118 -213 118z" />
    <glyph glyph-name="adieresis" unicode="&#xe4;" horiz-adv-x="1220" 
d="M381 1507q67 0 111.5 -40.5t44.5 -116.5q0 -75 -45 -114.5t-113 -39.5t-111 40t-43 116q0 75 43.5 115t112.5 40zM834 1507q68 0 111.5 -40.5t43.5 -116.5t-44 -115t-111 -39q-68 0 -111 40t-43 116q0 75 43 115t111 40zM539 1020q175 0 278 -115v88h279v-993h-279v88
q-103 -115 -278 -115q-217 0 -348.5 144.5t-131.5 378.5t131.5 379t348.5 145zM596 784q-115 0 -181.5 -77.5t-66.5 -210.5t66.5 -211t181.5 -78q143 0 213 119v340q-70 118 -213 118z" />
    <glyph glyph-name="aring" unicode="&#xe5;" horiz-adv-x="1220" 
d="M606 1534q107 0 168.5 -60.5t61.5 -162.5q0 -101 -62 -161t-168 -60t-167.5 60t-61.5 161q0 102 61.5 162.5t167.5 60.5zM606 1421q-51 0 -78.5 -28.5t-27.5 -81.5q0 -51 27.5 -79t78.5 -28t81 28t30 79q0 52 -30 81t-81 29zM539 1020q175 0 278 -115v88h279v-993h-279
v88q-103 -115 -278 -115q-217 0 -348.5 144.5t-131.5 378.5t131.5 379t348.5 145zM596 784q-115 0 -181.5 -77.5t-66.5 -210.5t66.5 -211t181.5 -78q143 0 213 119v340q-70 118 -213 118z" />
    <glyph glyph-name="ae" unicode="&#xe6;" horiz-adv-x="1921" 
d="M1853 512q0 -65 -4 -96h-739q20 -109 89 -168.5t173 -59.5q160 0 252 121l203 -127q-150 -213 -438 -213q-188 0 -306 115v-84h-260v92q-104 -119 -278 -119q-217 0 -349.5 144.5t-132.5 378.5t132.5 379t349.5 145q173 0 278 -117v90h260v-78q110 107 281 107
q229 0 359 -141t130 -369zM1341 803q-89 0 -145.5 -51t-79.5 -136h449q-21 88 -78.5 137.5t-145.5 49.5zM813 666q-67 118 -213 118q-114 0 -180 -78t-66 -210t66 -210.5t180 -78.5q146 0 213 119v340z" />
    <glyph glyph-name="ccedilla" unicode="&#xe7;" horiz-adv-x="1075" 
d="M1034 211q-61 -107 -168 -169.5t-256 -66.5l-47 -79q38 0 67 -3t60.5 -14t52.5 -29t34.5 -50t13.5 -76q0 -69 -41.5 -116.5t-100.5 -67t-129 -19.5q-67 0 -129.5 17.5t-103.5 47.5l47 127q71 -43 168 -43q39 0 61.5 14t22.5 40q0 34 -64 52.5t-157 18.5l71 199
q-177 41 -275 174t-98 328q0 235 142.5 377.5t388.5 142.5q285 0 422 -211l-189 -162q-58 71 -109.5 101t-119.5 30q-118 0 -181 -74t-63 -200q0 -131 65 -207t177 -76q146 0 238 139z" />
    <glyph glyph-name="egrave" unicode="&#xe8;" horiz-adv-x="1157" 
d="M256 1526h346l164 -314h-240zM1090 512q0 -42 -7 -96h-739q20 -109 90 -168.5t174 -59.5q160 0 252 121l203 -127q-156 -213 -457 -213q-257 0 -402 146t-145 389q0 232 140 375t381 143q239 0 374.5 -141t135.5 -369zM578 803q-89 0 -147 -51t-81 -136h449
q-21 88 -77.5 137.5t-143.5 49.5z" />
    <glyph glyph-name="eacute" unicode="&#xe9;" horiz-adv-x="1157" 
d="M381 1212l164 314h346l-270 -314h-240zM1090 512q0 -42 -7 -96h-739q20 -109 90 -168.5t174 -59.5q160 0 252 121l203 -127q-156 -213 -457 -213q-257 0 -402 146t-145 389q0 232 140 375t381 143q239 0 374.5 -141t135.5 -369zM578 803q-89 0 -147 -51t-81 -136h449
q-21 88 -77.5 137.5t-143.5 49.5z" />
    <glyph glyph-name="ecircumflex" unicode="&#xea;" horiz-adv-x="1157" 
d="M166 1233l240 293h337l242 -293h-280l-132 143l-129 -143h-278zM1090 512q0 -42 -7 -96h-739q20 -109 90 -168.5t174 -59.5q160 0 252 121l203 -127q-156 -213 -457 -213q-257 0 -402 146t-145 389q0 232 140 375t381 143q239 0 374.5 -141t135.5 -369zM578 803
q-89 0 -147 -51t-81 -136h449q-21 88 -77.5 137.5t-143.5 49.5z" />
    <glyph glyph-name="edieresis" unicode="&#xeb;" horiz-adv-x="1157" 
d="M346 1196q-68 0 -110.5 40t-42.5 116q0 75 43 115t112 40q67 0 111.5 -40.5t44.5 -116.5q0 -75 -45 -114.5t-113 -39.5zM801 1196q-68 0 -111 40t-43 116q0 75 43 115t111 40t111.5 -40.5t43.5 -116.5t-44 -115t-111 -39zM1090 512q0 -42 -7 -96h-739q20 -109 90 -168.5
t174 -59.5q160 0 252 121l203 -127q-156 -213 -457 -213q-257 0 -402 146t-145 389q0 232 140 375t381 143q239 0 374.5 -141t135.5 -369zM578 803q-89 0 -147 -51t-81 -136h449q-21 88 -77.5 137.5t-143.5 49.5z" />
    <glyph glyph-name="igrave" unicode="&#xec;" horiz-adv-x="536" 
d="M459 1212h-240l-270 314h346zM123 0v993h289v-993h-289z" />
    <glyph glyph-name="iacute" unicode="&#xed;" horiz-adv-x="536" 
d="M74 1212l164 314h346l-271 -314h-239zM123 0v993h289v-993h-289z" />
    <glyph glyph-name="icircumflex" unicode="&#xee;" horiz-adv-x="536" 
d="M397 1233l-131 143l-129 -143h-278l239 293h338l242 -293h-281zM123 0v993h289v-993h-289z" />
    <glyph glyph-name="idieresis" unicode="&#xef;" horiz-adv-x="536" 
d="M41 1507q67 0 111.5 -40.5t44.5 -116.5q0 -75 -45 -114.5t-113 -39.5t-111 40t-43 116q0 75 43.5 115t112.5 40zM494 1507q68 0 111.5 -40.5t43.5 -116.5t-44 -115t-111 -39q-68 0 -111 40t-43 116q0 75 43 115t111 40zM123 0v993h289v-993h-289z" />
    <glyph glyph-name="eth" unicode="&#xf0;" horiz-adv-x="1216" 
d="M842 1274q311 -268 311 -703q0 -277 -149.5 -441.5t-413.5 -164.5q-241 0 -384 143.5t-143 368.5q0 218 147 359t374 141q135 0 225 -70l4 4q-83 143 -233 248l-340 -149l-82 182l209 92q-43 22 -125 59l104 199q162 -58 301 -133l256 113l82 -185zM592 201
q123 0 197.5 86.5t74.5 259.5q0 41 -6 76q-88 131 -248 131q-120 0 -188 -72t-68 -203q0 -133 62 -205.5t176 -72.5z" />
    <glyph glyph-name="ntilde" unicode="&#xf1;" horiz-adv-x="1245" 
d="M1026 1507q-6 -138 -68.5 -211t-166.5 -73q-80 0 -187 41q-90 34 -125 34q-26 0 -41 -17t-22 -62h-199q24 274 227 274q66 0 154 -31q120 -43 158 -43q32 0 49 18.5t24 69.5h197zM702 1020q209 0 324 -130t115 -364v-526h-289v494q0 125 -58 193.5t-163 68.5
q-72 0 -129.5 -33t-89.5 -88v-635h-289v993h280v-104q109 131 299 131z" />
    <glyph glyph-name="ograve" unicode="&#xf2;" horiz-adv-x="1185" 
d="M782 1212h-239l-271 314h346zM592 1020q253 0 393.5 -143t140.5 -381t-140.5 -381.5t-393.5 -143.5q-252 0 -392.5 143.5t-140.5 381.5t140.5 381t392.5 143zM592 784q-111 0 -177.5 -78t-66.5 -210t66.5 -210.5t177.5 -78.5t178.5 79t67.5 210t-67.5 209.5t-178.5 78.5z
" />
    <glyph glyph-name="oacute" unicode="&#xf3;" horiz-adv-x="1185" 
d="M397 1212l164 314h346l-270 -314h-240zM592 1020q253 0 393.5 -143t140.5 -381t-140.5 -381.5t-393.5 -143.5q-252 0 -392.5 143.5t-140.5 381.5t140.5 381t392.5 143zM592 784q-111 0 -177.5 -78t-66.5 -210t66.5 -210.5t177.5 -78.5t178.5 79t67.5 210t-67.5 209.5
t-178.5 78.5z" />
    <glyph glyph-name="ocircumflex" unicode="&#xf4;" horiz-adv-x="1185" 
d="M721 1233l-131 143l-129 -143h-279l240 293h338l241 -293h-280zM592 1020q253 0 393.5 -143t140.5 -381t-140.5 -381.5t-393.5 -143.5q-252 0 -392.5 143.5t-140.5 381.5t140.5 381t392.5 143zM592 784q-111 0 -177.5 -78t-66.5 -210t66.5 -210.5t177.5 -78.5t178.5 79
t67.5 210t-67.5 209.5t-178.5 78.5z" />
    <glyph glyph-name="otilde" unicode="&#xf5;" horiz-adv-x="1185" 
d="M995 1507q-6 -138 -68.5 -211t-166.5 -73q-80 0 -187 41q-90 34 -124 34q-26 0 -41.5 -17t-22.5 -62h-199q24 274 228 274q65 0 153 -31q120 -43 158 -43q32 0 49.5 19t24.5 69h196zM592 1020q253 0 393.5 -143t140.5 -381t-140.5 -381.5t-393.5 -143.5
q-252 0 -392.5 143.5t-140.5 381.5t140.5 381t392.5 143zM592 784q-111 0 -177.5 -78t-66.5 -210t66.5 -210.5t177.5 -78.5t178.5 79t67.5 210t-67.5 209.5t-178.5 78.5z" />
    <glyph glyph-name="odieresis" unicode="&#xf6;" horiz-adv-x="1185" 
d="M367 1507q67 0 111 -40.5t44 -116.5q0 -75 -44.5 -114.5t-112.5 -39.5t-111 40t-43 116q0 75 43.5 115t112.5 40zM819 1507q68 0 112 -40.5t44 -116.5t-44.5 -115t-111.5 -39q-68 0 -110.5 40t-42.5 116q0 75 42.5 115t110.5 40zM592 1020q253 0 393.5 -143t140.5 -381
t-140.5 -381.5t-393.5 -143.5q-252 0 -392.5 143.5t-140.5 381.5t140.5 381t392.5 143zM592 784q-111 0 -177.5 -78t-66.5 -210t66.5 -210.5t177.5 -78.5t178.5 79t67.5 210t-67.5 209.5t-178.5 78.5z" />
    <glyph glyph-name="divide" unicode="&#xf7;" horiz-adv-x="1220" 
d="M610 1077q80 0 126 -46.5t46 -125.5t-46 -125.5t-126 -46.5q-81 0 -126.5 46t-45.5 126t45.5 126t126.5 46zM70 410v227h1079v-227h-1079zM610 313q80 0 126 -46.5t46 -125.5q0 -81 -46 -126.5t-126 -45.5q-82 0 -127 45t-45 127q0 80 45.5 126t126.5 46z" />
    <glyph glyph-name="oslash" unicode="&#xf8;" horiz-adv-x="1198" 
d="M985 881q145 -142 145 -385q0 -238 -141 -381.5t-393 -143.5q-147 0 -254 49l-61 -83l-123 92l55 75q-152 143 -152 392q0 238 141 381t394 143q149 0 260 -51l66 86l122 -92zM350 496q0 -94 35 -162l317 426q-47 24 -106 24q-113 0 -179.5 -78t-66.5 -210zM596 207
q109 0 176.5 79t67.5 210q0 77 -31 151l-313 -420q41 -20 100 -20z" />
    <glyph glyph-name="ugrave" unicode="&#xf9;" horiz-adv-x="1224" 
d="M803 1212h-240l-270 314h346zM821 0v96q-107 -123 -291 -123q-202 0 -314 130t-112 364v526h289v-493q0 -125 55 -193.5t154 -68.5q70 0 125.5 30.5t85.5 81.5v643h289v-993h-281z" />
    <glyph glyph-name="uacute" unicode="&#xfa;" horiz-adv-x="1224" 
d="M418 1212l164 314h346l-271 -314h-239zM821 0v96q-107 -123 -291 -123q-202 0 -314 130t-112 364v526h289v-493q0 -125 55 -193.5t154 -68.5q70 0 125.5 30.5t85.5 81.5v643h289v-993h-281z" />
    <glyph glyph-name="ucircumflex" unicode="&#xfb;" horiz-adv-x="1224" 
d="M741 1233l-131 143l-129 -143h-278l239 293h338l242 -293h-281zM821 0v96q-107 -123 -291 -123q-202 0 -314 130t-112 364v526h289v-493q0 -125 55 -193.5t154 -68.5q70 0 125.5 30.5t85.5 81.5v643h289v-993h-281z" />
    <glyph glyph-name="udieresis" unicode="&#xfc;" horiz-adv-x="1224" 
d="M385 1507q67 0 111.5 -40.5t44.5 -116.5q0 -75 -45 -114.5t-113 -39.5t-111 40t-43 116q0 75 43.5 115t112.5 40zM838 1507q68 0 111.5 -40.5t43.5 -116.5t-44 -115t-111 -39q-68 0 -111 40t-43 116q0 75 43 115t111 40zM821 0v96q-107 -123 -291 -123q-202 0 -314 130
t-112 364v526h289v-493q0 -125 55 -193.5t154 -68.5q70 0 125.5 30.5t85.5 81.5v643h289v-993h-281z" />
    <glyph glyph-name="yacute" unicode="&#xfd;" horiz-adv-x="1183" 
d="M397 1212l164 314h346l-270 -314h-240zM563 -492h-307l199 443l-449 1042h316l278 -688l266 688h310z" />
    <glyph glyph-name="thorn" unicode="&#xfe;" horiz-adv-x="1226" 
d="M412 918q104 104 270 104q217 0 348 -144.5t131 -379.5t-131 -380t-348 -145q-174 0 -270 107v-572h-289v1952h289v-542zM625 786q-147 0 -213 -120v-338q32 -57 87.5 -88t125.5 -31q115 0 181 78t66 211t-66 210.5t-181 77.5z" />
    <glyph glyph-name="ydieresis" unicode="&#xff;" horiz-adv-x="1183" 
d="M365 1196q-68 0 -111 40t-43 116q0 75 43.5 115t112.5 40q67 0 111 -40.5t44 -116.5q0 -75 -44.5 -114.5t-112.5 -39.5zM819 1196q-68 0 -110.5 40t-42.5 116q0 75 42.5 115t110.5 40t112 -40.5t44 -116.5t-44.5 -115t-111.5 -39zM563 -492h-307l199 443l-449 1042h316
l278 -688l266 688h310z" />
    <glyph glyph-name="dotlessi" unicode="&#x131;" horiz-adv-x="536" 
d="M123 0v993h289v-993h-289z" />
    <glyph glyph-name="OE" unicode="&#x152;" horiz-adv-x="2213" 
d="M1444 881h598v-271h-598v-329h710v-281h-1024v72q-148 -109 -354 -109q-157 0 -287.5 49t-226.5 143t-149.5 240.5t-53.5 331.5q0 186 53.5 332.5t149.5 240t226.5 142.5t287.5 49q206 0 354 -109v72h1024v-280h-710v-293zM795 238q226 0 335 184v610q-110 185 -335 185
q-186 0 -297 -128.5t-111 -361.5q0 -232 111.5 -360.5t296.5 -128.5z" />
    <glyph glyph-name="oe" unicode="&#x153;" horiz-adv-x="1933" 
d="M1866 512q0 -50 -6 -96h-740q20 -109 90 -168.5t174 -59.5q160 0 252 121l203 -127q-156 -213 -457 -213q-261 0 -395 170q-133 -168 -389 -168q-252 0 -393.5 143.5t-141.5 381.5t141.5 381t393.5 143q253 0 385 -164q63 79 158 122.5t215 43.5q239 0 374.5 -141
t135.5 -369zM1354 803q-89 0 -147 -51t-81 -136h449q-21 88 -77.5 137.5t-143.5 49.5zM598 207q111 0 178.5 79t67.5 210t-67.5 209.5t-178.5 78.5t-177.5 -78t-66.5 -210t66.5 -210.5t177.5 -78.5z" />
    <glyph glyph-name="florin" unicode="&#x192;" horiz-adv-x="1126" 
d="M887 1524q136 0 235 -80l-114 -201q-50 37 -97 37q-49 0 -86.5 -36t-48.5 -105l-24 -146h229l-41 -217h-227l-86 -489q-14 -79 -53.5 -142.5t-93.5 -102t-115.5 -59t-124.5 -20.5q-134 0 -238 80l117 201q47 -37 94 -37q49 0 86.5 36t48.5 105l76 428h-188l38 217h189
l37 207q28 156 139.5 240t247.5 84z" />
    <glyph glyph-name="dotlessj" unicode="&#x237;" horiz-adv-x="536" 
d="M412 -109q0 -109 -32 -189.5t-87 -125t-120 -65.5t-140 -21q-118 0 -221 61l98 236q53 -33 108 -33q46 0 75.5 29t29.5 92v1118h289v-1102z" />
    <glyph glyph-name="circumflex" unicode="&#x2c6;" horiz-adv-x="905" 
d="M582 1233l-131 143l-129 -143h-279l240 293h338l241 -293h-280z" />
    <glyph glyph-name="caron" unicode="&#x2c7;" horiz-adv-x="905" 
d="M285 1233l-242 293h281l131 -144l129 144h278l-239 -293h-338z" />
    <glyph glyph-name="breve" unicode="&#x2d8;" horiz-adv-x="823" 
d="M780 1526q-18 -168 -111.5 -251t-252.5 -83q-163 0 -259.5 84.5t-113.5 249.5h193q13 -72 61.5 -106t116.5 -34q70 0 115.5 36t60.5 104h190z" />
    <glyph glyph-name="dotaccent" unicode="&#x2d9;" horiz-adv-x="415" 
d="M207 1516q72 0 118 -42.5t46 -123.5q0 -80 -47 -121t-119 -41t-117 41.5t-45 122.5q0 80 45.5 122t118.5 42z" />
    <glyph glyph-name="ring" unicode="&#x2da;" horiz-adv-x="544" 
d="M272 1534q107 0 168.5 -60.5t61.5 -162.5q0 -101 -62 -161t-168 -60t-167.5 60t-61.5 161q0 102 61.5 162.5t167.5 60.5zM272 1421q-51 0 -78.5 -28.5t-27.5 -81.5q0 -51 27.5 -79t78.5 -28t81 28t30 79q0 52 -30 81t-81 29z" />
    <glyph glyph-name="tilde" unicode="&#x2dc;" horiz-adv-x="894" 
d="M852 1507q-6 -138 -69 -211t-167 -73q-79 0 -186 41q-90 34 -125 34q-26 0 -41 -17t-22 -62h-199q24 274 227 274q66 0 154 -31q120 -43 158 -43q32 0 49 18.5t24 69.5h197z" />
    <glyph glyph-name="hungarumlaut" unicode="&#x2dd;" horiz-adv-x="997" 
d="M45 1212l164 314h346l-270 -314h-240zM446 1212l164 314h346l-270 -314h-240z" />
    <glyph glyph-name="uni0394" unicode="&#x394;" horiz-adv-x="1425" 
d="M12 0l527 1454h335l533 -1454h-1395zM1014 270l-305 852l-306 -852h611z" />
    <glyph glyph-name="uni03A9" unicode="&#x3a9;" horiz-adv-x="1464" 
d="M1382 807q0 -389 -239 -528h203v-279h-512v260q223 123 223 510q0 451 -326 451q-323 0 -323 -451q0 -384 219 -510v-260h-512v279l217 -7q-123 67 -186.5 203.5t-63.5 331.5q0 170 48 301.5t135.5 214.5t205 125.5t260.5 42.5q144 0 262 -42.5t205.5 -125.5
t135.5 -214.5t48 -301.5z" />
    <glyph glyph-name="pi" unicode="&#x3c0;" horiz-adv-x="1331" 
d="M1073 776v-440q0 -117 88 -117q35 0 68 10l49 -219q-70 -28 -160 -28q-166 0 -249 88t-83 252v454h-292v-776h-287v776h-182v217h1282v-217h-234z" />
    <glyph glyph-name="uni058F" unicode="&#x58f;" horiz-adv-x="1398" 
d="M1092 442h204v-166h-204v-276h-318v276h-287v166h287v129h-287v164h287v205q0 130 -58 199t-157 69q-98 0 -155.5 -69t-57.5 -199v-80h-317v80q0 255 148.5 399t381.5 144q114 0 211 -36t169 -103.5t112.5 -171.5t40.5 -232v-205h204v-164h-204v-129z" />
    <glyph glyph-name="uni09F3" unicode="&#x9f3;" horiz-adv-x="1243" 
d="M764 850q174 0 283.5 -110.5t109.5 -288.5q0 -99 -36.5 -186.5t-102.5 -153.5t-167 -104t-222 -38q-110 0 -194.5 33t-136 92t-77.5 136.5t-26 170.5v539h-125v231h125v19q0 123 -125 123v235q177 0 285 -94t108 -264v-19h493v-231h-493v-539q0 -102 38 -146t128 -44
q122 0 191 64.5t69 175.5q0 77 -40 117t-106 40q-55 0 -94 -28l-112 202q93 68 227 68z" />
    <glyph glyph-name="uni0E3F" unicode="&#xe3f;" horiz-adv-x="1378" 
d="M1059 731q119 -45 176 -132t57 -202q0 -173 -128 -285t-371 -112h-11v-131h-190v131h-442v1384h442v132h190v-132q123 -2 215.5 -31t146.5 -79.5t80.5 -113t26.5 -138.5q0 -187 -192 -291zM592 817v307h-148v-307h148zM946 975q0 133 -164 147v-303q164 18 164 156z
M592 582h-148v-336h148v336zM782 246q99 1 152 49t53 125q0 157 -205 162v-336z" />
    <glyph glyph-name="uni17DB" unicode="&#x17db;" horiz-adv-x="948" 
d="M690 688v-708q-68 -11 -117 -11q-213 0 -347 103.5t-134 261.5q0 110 60 179t165 69q54 0 105 -23v129h-309v170h309v49q-96 27 -176.5 97t-132.5 163l186 246q113 -49 242 -49q106 0 202 47l86 -188q-137 -70 -286 -70q-89 0 -146 23l-14 -19q83 -103 307 -115v-184h166
v-170h-166zM422 348q-21 55 -68 55q-55 0 -55 -69q0 -54 32 -91.5t91 -52.5v158z" />
    <glyph glyph-name="endash" unicode="&#x2013;" horiz-adv-x="1028" 
d="M2 434v228h1024v-228h-1024z" />
    <glyph glyph-name="emdash" unicode="&#x2014;" horiz-adv-x="2052" 
d="M2 434v228h2048v-228h-2048z" />
    <glyph glyph-name="quoteleft" unicode="&#x2018;" horiz-adv-x="598" 
d="M123 1042q0 152 76 267t190 174l68 -107q-118 -76 -154 -223q86 -1 126 -42.5t40 -127.5q0 -87 -45.5 -131.5t-132.5 -44.5q-89 0 -128.5 57.5t-39.5 177.5z" />
    <glyph glyph-name="quoteright" unicode="&#x2019;" horiz-adv-x="579" 
d="M457 1247q0 -152 -76 -266.5t-191 -173.5l-67 106q116 75 153 222q-86 3 -125.5 44.5t-39.5 127.5t46 131t132 45q89 0 128.5 -58t39.5 -178z" />
    <glyph glyph-name="quotesinglbase" unicode="&#x201a;" horiz-adv-x="598" 
d="M473 111q0 -152 -75.5 -267t-190.5 -174l-68 107q118 76 154 221q-86 3 -125 44t-39 128q0 86 45 131t133 45t127 -58t39 -177z" />
    <glyph glyph-name="quotedblleft" unicode="&#x201c;" horiz-adv-x="1034" 
d="M121 1042q0 152 75.5 267t190.5 174l68 -107q-118 -76 -154 -223q86 -1 126 -42.5t40 -127.5q0 -87 -45.5 -131.5t-132.5 -44.5q-89 0 -128.5 57.5t-39.5 177.5zM557 1042q0 152 76.5 267t191.5 174l66 -107q-118 -76 -154 -223q86 -1 126 -42.5t40 -127.5
q0 -176 -178 -176q-89 0 -128.5 57.5t-39.5 177.5z" />
    <glyph glyph-name="quotedblright" unicode="&#x201d;" horiz-adv-x="1034" 
d="M475 1247q0 -152 -75.5 -266.5t-190.5 -173.5l-66 106q118 78 154 222q-86 3 -126 44.5t-40 127.5t45 131t133 45q89 0 127.5 -58t38.5 -178zM913 1247q0 -152 -75.5 -266.5t-190.5 -173.5l-67 106q116 75 153 222q-86 3 -126 44.5t-40 127.5t46 131t132 45
q89 0 128.5 -58t39.5 -178z" />
    <glyph glyph-name="quotedblbase" unicode="&#x201e;" horiz-adv-x="1034" 
d="M473 111q0 -152 -75.5 -267t-190.5 -174l-68 107q118 76 154 221q-86 3 -125 44t-39 128q0 86 45 131t133 45t127 -58t39 -177zM911 111q0 -152 -76 -267t-190 -174l-67 107q117 75 153 221q-86 3 -126 44.5t-40 127.5t46 131t132 45q89 0 128.5 -57.5t39.5 -177.5z" />
    <glyph glyph-name="dagger" unicode="&#x2020;" horiz-adv-x="952" 
d="M590 -328h-228v1096h-307v225h307v461h228v-461h307v-225h-307v-1096z" />
    <glyph glyph-name="daggerdbl" unicode="&#x2021;" horiz-adv-x="952" 
d="M897 317v-225h-307v-420h-228v420h-307v225h307v451h-307v225h307v461h228v-461h307v-225h-307v-451h307z" />
    <glyph glyph-name="bullet" unicode="&#x2022;" horiz-adv-x="704" 
d="M350 1020q135 0 210 -75t75 -210q0 -133 -75 -206.5t-210 -73.5q-134 0 -207 73.5t-73 206.5q0 135 74 210t206 75z" />
    <glyph glyph-name="ellipsis" unicode="&#x2026;" horiz-adv-x="2052" 
d="M342 326q78 0 125 -47.5t47 -126.5q0 -80 -46.5 -126t-127.5 -46q-78 0 -124 46.5t-46 125.5t47 126.5t125 47.5zM1026 326q78 0 126 -47.5t48 -126.5q0 -80 -47 -126t-129 -46q-78 0 -124 46.5t-46 125.5t47 126.5t125 47.5zM1710 326q78 0 126 -47.5t48 -126.5
q0 -80 -47 -126t-129 -46q-78 0 -124 46.5t-46 125.5t47 126.5t125 47.5z" />
    <glyph glyph-name="perthousand" unicode="&#x2030;" horiz-adv-x="2230" 
d="M383 1481q147 0 230 -89.5t83 -236.5t-83 -236.5t-230 -89.5q-145 0 -228 89.5t-83 236.5t83 236.5t228 89.5zM68 125l1228 1335l156 -125l-1231 -1335zM383 1292q-55 0 -87 -37t-32 -100t31.5 -99t87.5 -36q57 0 89 36t32 99t-32 100t-89 37zM1141 625
q144 0 227.5 -89.5t83.5 -236.5t-83.5 -236.5t-227.5 -89.5q-147 0 -230.5 89.5t-83.5 236.5t83.5 236.5t230.5 89.5zM1851 625q146 0 229 -89.5t83 -236.5t-83 -236.5t-229 -89.5t-229.5 89.5t-83.5 236.5t83.5 236.5t229.5 89.5zM1141 436q-56 0 -87.5 -36.5t-31.5 -100.5
q0 -63 31 -99t88 -36q56 0 88.5 36t32.5 99t-32.5 100t-88.5 37zM1851 436q-55 0 -86.5 -37t-31.5 -100t31.5 -99t86.5 -36q56 0 88.5 36t32.5 99t-32.5 100t-88.5 37z" />
    <glyph glyph-name="guilsinglleft" unicode="&#x2039;" horiz-adv-x="591" 
d="M274 557l226 -164v-272l-410 338v196l410 338v-272z" />
    <glyph glyph-name="guilsinglright" unicode="&#x203a;" horiz-adv-x="591" 
d="M498 459l-410 -338v272l225 164l-225 164v272l410 -338v-196z" />
    <glyph glyph-name="fraction" unicode="&#x2044;" horiz-adv-x="339" 
d="M-408 -82l963 1536h193l-963 -1536h-193z" />
    <glyph glyph-name="uni2070" unicode="&#x2070;" horiz-adv-x="733" 
d="M369 1524q164 0 240.5 -105t76.5 -327t-76.5 -327.5t-240.5 -105.5q-162 0 -239 105.5t-77 327.5t76.5 327t239.5 105zM369 1323q-19 0 -31.5 -14.5t-21.5 -68t-9 -148.5q0 -97 9.5 -151t21.5 -68.5t31 -14.5t31 14.5t21 68.5t9 151q0 95 -9 148.5t-21 68t-31 14.5z" />
    <glyph glyph-name="uni2074" unicode="&#x2074;" horiz-adv-x="753" 
d="M604 811v-135h-246v135h-346v150l359 546h233v-532h103v-164h-103zM358 1231l-170 -256h170v256z" />
    <glyph glyph-name="uni2075" unicode="&#x2075;" horiz-adv-x="741" 
d="M367 1214q126 0 212.5 -74t86.5 -190q0 -130 -93 -210.5t-251 -80.5q-97 0 -170.5 37t-110.5 92l170 138q55 -70 113 -70q42 0 65 23t23 65t-23 64t-61 22q-56 0 -90 -45l-191 31l121 491h467v-196h-299l-25 -101q32 4 56 4z" />
    <glyph glyph-name="uni2076" unicode="&#x2076;" horiz-adv-x="743" 
d="M391 1221q131 0 214 -77t83 -190q0 -142 -90.5 -217t-241.5 -75q-140 0 -225.5 80t-85.5 212q0 235 244 553h270q-172 -220 -221 -293q28 7 53 7zM358 862q38 0 59 22.5t21 65.5q0 44 -21 69t-59 25t-60 -25t-22 -69q0 -42 21.5 -65t60.5 -23z" />
    <glyph glyph-name="uni2077" unicode="&#x2077;" horiz-adv-x="733" 
d="M676 1317l-264 -641h-236l264 612h-385v219h621v-190z" />
    <glyph glyph-name="uni2078" unicode="&#x2078;" horiz-adv-x="731" 
d="M563 1108q117 -63 117 -186q0 -116 -85.5 -189.5t-225.5 -73.5q-139 0 -224.5 73.5t-85.5 189.5q0 123 115 184q-98 61 -98 168t82 178.5t211 71.5q130 0 211.5 -71.5t81.5 -178.5q0 -108 -99 -166zM369 1333q-30 0 -48 -18.5t-18 -50.5q0 -33 18 -52.5t48 -19.5
t47.5 19.5t17.5 52.5q0 32 -17 50.5t-48 18.5zM369 850q31 0 49 20.5t18 55.5q0 38 -18 60t-49 22t-48.5 -22t-17.5 -60q0 -35 17.5 -55.5t48.5 -20.5z" />
    <glyph glyph-name="uni2079" unicode="&#x2079;" horiz-adv-x="743" 
d="M379 1522q141 0 227 -80.5t86 -212.5t-66 -268t-182 -285h-268q146 183 221 295q-21 -8 -53 -8q-132 0 -214.5 76.5t-82.5 187.5q0 144 90.5 219.5t241.5 75.5zM297 1231q0 -44 22 -69t60 -25t59 25t21 69q0 43 -21 66.5t-59 23.5t-60 -23.5t-22 -66.5z" />
    <glyph glyph-name="colonmonetary" unicode="&#x20a1;" horiz-adv-x="1554" 
d="M1479 358q-185 -322 -535 -376l-16 -113h-185l17 106q-46 3 -94 9l-17 -115h-182l25 162q-196 75 -305 243.5t-109 417.5q0 310 165.5 494t452.5 217l17 113h182l-16 -107q32 0 94 -8l16 115h185l-25 -164q178 -71 303 -242l-225 -197q-63 79 -125 129l-113 -763
q69 31 126.5 89t117.5 152zM707 256q48 -10 92 -10l131 880q-51 10 -92 13zM395 692q0 -239 142 -356l116 776q-123 -41 -190.5 -147.5t-67.5 -272.5z" />
    <glyph glyph-name="uni20A8" unicode="&#x20a8;" horiz-adv-x="2164" 
d="M1217 936q0 -137 -60.5 -246t-177.5 -168l281 -522h-342l-242 465h-205v-465h-317v1384h555q130 0 230 -36.5t159 -99.5t89 -142t30 -170zM719 739q90 0 138 52t48 139q0 180 -209 180h-225v-371h248zM1722 621q139 -30 193 -52q164 -68 175 -231q1 -12 1 -25
q0 -159 -121 -248.5t-301 -89.5q-261 0 -420 170l183 189q58 -69 116 -100t129 -31q131 0 131 88q0 12 -2.5 21.5t-9 17.5t-13 14t-19.5 12.5t-22.5 10.5t-29 9.5t-32 9t-37.5 10t-41 10.5q-47 12 -85.5 25.5t-82 38.5t-73.5 55.5t-49.5 77t-19.5 102.5q0 140 111.5 225.5
t292.5 85.5q230 0 387 -142l-156 -190q-107 104 -241 104q-111 0 -111 -71q0 -37 32.5 -56.5t114.5 -39.5z" />
    <glyph glyph-name="uni20A9" unicode="&#x20a9;" horiz-adv-x="1974" 
d="M1948 901v-166h-170l-37 -139h207v-166h-252l-113 -430h-362l-95 430h-274l-94 -430h-363l-112 430h-252v166h207l-37 139h-170v166h127l-127 483h317l105 -483h258l88 424h381l88 -424h260l102 483h318l-127 -483h127zM1024 901l-35 154l-33 -154h68zM647 596l29 139
h-189l31 -139h129zM1059 735h-139l-31 -139h201zM1303 735l28 -139h131l31 139h-190zM555 430l31 -139l28 139h-59zM1366 430l31 -145l30 145h-61z" />
    <glyph glyph-name="uni20AA" unicode="&#x20aa;" horiz-adv-x="1607" 
d="M684 1384q206 0 325 -125t119 -321v-539h-266v539q0 100 -43 147.5t-135 47.5h-319v-1133h-269v1384h588zM1511 446q0 -196 -119 -321t-325 -125h-588v985h266v-733h322q92 0 135 47t43 147v938h266v-938z" />
    <glyph glyph-name="dong" unicode="&#x20ab;" horiz-adv-x="1226" 
d="M1104 1186v-1186h-281v86q-103 -115 -276 -115q-218 0 -349.5 145t-131.5 380t131.5 379.5t349.5 144.5q169 0 268 -107v273h-391v164h391v145h289v-145h104v-164h-104zM815 666q-67 118 -213 118q-115 0 -180.5 -77.5t-65.5 -210.5t65.5 -211t180.5 -78q70 0 125.5 31
t87.5 88v340zM1102 -125v-164h-1008v164h1008z" />
    <glyph glyph-name="Euro" unicode="&#x20ac;" horiz-adv-x="1138" 
d="M1098 170q-92 -112 -196.5 -156.5t-231.5 -44.5q-442 0 -525 475h-106v164h88q-4 74 -4 113v18h-84v164h92q10 92 31.5 166.5t61 140t94.5 109.5t136 69t183 25q341 0 446 -270l-206 -125q-72 160 -228 160q-106 0 -158.5 -67.5t-68.5 -207.5h489v-164h-499v-41
q0 -61 2 -90h497v-164h-483q23 -132 82.5 -187.5t169.5 -55.5q83 0 132.5 28t111.5 99z" />
    <glyph glyph-name="uni20AD" unicode="&#x20ad;" horiz-adv-x="1458" 
d="M471 588v-588h-317v592h-95l95 262v530h317v-501h234l237 403h385l-250 -403h295l-106 -291h-287l440 -498h-545z" />
    <glyph glyph-name="uni20AE" unicode="&#x20ae;" horiz-adv-x="1255" 
d="M786 819l271 99v-175l-271 -98v-158l271 99v-174l-271 -99v-313h-315v244l-270 -99v174l270 99v157l-270 -98v174l270 99v354h-453v280h1219v-280h-451v-285z" />
    <glyph glyph-name="uni20B2" unicode="&#x20b2;" horiz-adv-x="1540" 
d="M1468 662q0 -135 -28.5 -244.5t-78.5 -185t-121 -129.5t-151.5 -83t-175.5 -40v-111h-200v108q-142 12 -258 63t-200 139t-130.5 218t-46.5 291q0 162 46.5 293t131 220t200.5 141.5t257 64.5v109h200v-111q351 -40 514 -309l-219 -168q-60 94 -132 144.5t-163 68.5v-379
h555v-100zM389 690q0 -189 84.5 -303.5t239.5 -142.5v897q-155 -28 -239.5 -144t-84.5 -307zM913 244q222 39 256 252h-256v-252z" />
    <glyph glyph-name="uni20B4" unicode="&#x20b4;" horiz-adv-x="1386" 
d="M1133 821q-69 -77 -205 -131h377v-164h-781q-35 -35 -35 -92q0 -94 58 -141t164 -47q96 0 171.5 48.5t151.5 156.5l240 -187q-187 -293 -563 -293q-244 0 -395.5 119.5t-151.5 329.5q0 56 12 106h-94v164h182q83 79 244 131h-426v164h795q14 22 14 62q0 161 -189 161
q-79 0 -146.5 -32.5t-139.5 -108.5l-219 211q184 205 514 205q233 0 367 -110t134 -304q0 -48 -8 -84h101v-164h-172z" />
    <glyph glyph-name="uni20B5" unicode="&#x20b5;" horiz-adv-x="1554" 
d="M1479 358q-196 -339 -566 -381v-108h-200v111q-293 28 -464 213t-171 499q0 316 170 499.5t465 213.5v111h200v-109q339 -28 539 -297l-225 -197q-75 96 -149.5 148t-164.5 69v-874q97 19 171 83t149 181zM395 692q0 -184 84.5 -296t233.5 -140v872q-150 -28 -234 -139.5
t-84 -296.5z" />
    <glyph glyph-name="uni20B8" unicode="&#x20b8;" horiz-adv-x="1175" 
d="M63 1139v245h1049v-245h-1049zM745 805v-805h-315v805h-367v246h1049v-246h-367z" />
    <glyph glyph-name="uni20B9" unicode="&#x20b9;" horiz-adv-x="1144" 
d="M768 1165q57 -59 86 -149h180v-219h-168q-18 -105 -76 -186.5t-155 -127.5l283 -483h-343l-239 430h-223v219h243q161 0 211 148h-454v219h456q-45 149 -233 149h-223v219h921v-219h-266z" />
    <glyph glyph-name="uni20BA" unicode="&#x20ba;" horiz-adv-x="1216" 
d="M1188 657q0 -162 -47 -288.5t-132 -206.5t-201 -121t-257 -41h-318v578l-163 -64v176l163 64v129l-163 -64v176l163 64v325h318v-204l328 125v-177l-328 -124v-130l328 125v-176l-328 -125v-424q157 0 238 90.5t81 292.5h318z" />
    <glyph glyph-name="ruble" unicode="&#x20bd;" horiz-adv-x="1347" 
d="M547 385h409v-207h-409v-178h-318v178h-143v207h143v129h-143v223h143v647h527q141 0 248 -33.5t170.5 -92.5t94.5 -134.5t31 -165.5q0 -97 -33.5 -177t-99 -140t-170.5 -93.5t-241 -33.5h-209v-129zM739 737q117 0 176.5 57.5t59.5 166.5q0 96 -56 147t-184 51h-188
v-422h192z" />
    <glyph glyph-name="trademark" unicode="&#x2122;" horiz-adv-x="1701" 
d="M694 1454v-180h-202v-627h-197v627h-250v180h649zM1462 1176l-166 -496h-194l-166 485l6 -518h-199l21 807h268l168 -506l166 506h268l23 -807h-203z" />
    <glyph glyph-name="Omega" unicode="&#x2126;" horiz-adv-x="1560" 
d="M780 1217q-175 0 -276 -92.5t-101 -268.5q0 -156 78.5 -250.5t208.5 -105.5v-500h-620v260h368v62q-171 58 -266.5 196.5t-95.5 337.5q0 121 34.5 223.5t97.5 177.5t150 128t194 79.5t228 26.5q152 0 280.5 -42t223 -121t148 -200.5t53.5 -271.5q0 -199 -96 -337.5
t-267 -196.5v-62h369v-260h-621v500q130 11 209.5 106t79.5 250q0 176 -102 268.5t-277 92.5z" />
    <glyph glyph-name="partialdiff" unicode="&#x2202;" horiz-adv-x="1122" 
d="M522 1522q263 0 397 -202t134 -583q0 -369 -137.5 -568.5t-405.5 -199.5q-217 0 -327.5 120.5t-110.5 336.5q0 157 56 279t168 194t265 72q145 0 234 -74q-12 206 -78.5 300.5t-188.5 94.5q-178 0 -209 -186l-237 33q13 81 45 148.5t84 121t131.5 83.5t179.5 30zM520 195
q113 0 178.5 88t63.5 221q-2 110 -56.5 174.5t-146.5 64.5q-103 0 -161 -83t-58 -224q0 -241 180 -241z" />
    <glyph glyph-name="Delta" unicode="&#x2206;" horiz-adv-x="1470" 
d="M12 0l520 1454h404l520 -1454h-1444zM1018 270l-289 854l-291 -854h580z" />
    <glyph glyph-name="product" unicode="&#x220f;" horiz-adv-x="1458" 
d="M1092 -348v1620h-725v-1620h-236v1843h1194v-1843h-233z" />
    <glyph glyph-name="summation" unicode="&#x2211;" horiz-adv-x="1423" 
d="M379 1272l442 -699l-442 -698h911v-223h-1175v223l450 698l-450 699v223h1175v-223h-911z" />
    <glyph glyph-name="minus" unicode="&#x2212;" horiz-adv-x="1220" 
d="M70 410v227h1079v-227h-1079z" />
    <glyph glyph-name="radical" unicode="&#x221a;" horiz-adv-x="1232" 
d="M1225 1272h-189l-368 -1710h-174l-496 925l184 84l346 -651l324 1575h373v-223z" />
    <glyph glyph-name="infinity" unicode="&#x221e;" horiz-adv-x="1976" 
d="M1485 973q204 0 322 -119t118 -332q0 -214 -117.5 -332t-322.5 -118q-143 0 -262.5 70.5t-235.5 197.5q-114 -126 -233 -197t-262 -71q-205 0 -324 118t-119 332q0 213 119 332t324 119q143 0 262 -71t233 -197q116 127 235.5 197.5t262.5 70.5zM492 305q87 0 164.5 52
t177.5 165q-100 113 -177.5 165t-164.5 52q-197 0 -197 -217t197 -217zM1485 305q196 0 196 217t-196 217q-87 0 -165 -52t-179 -165q101 -113 179 -165t165 -52z" />
    <glyph glyph-name="integral" unicode="&#x222b;" horiz-adv-x="976" 
d="M694 1524q128 0 232 -72l-82 -209q-53 37 -101 37q-49 0 -79.5 -35t-30.5 -102v-1301q0 -91 -29.5 -162.5t-79 -114.5t-111 -65t-130.5 -22q-131 0 -234 71l82 209q56 -37 102 -37q49 0 80 35.5t31 102.5v1300q0 91 29.5 162.5t79 115t111 65.5t130.5 22z" />
    <glyph glyph-name="approxequal" unicode="&#x2248;" horiz-adv-x="1220" 
d="M416 918q48 0 104.5 -19t99 -42.5t94.5 -42.5t91 -19q118 0 137 118h203q-6 -93 -44.5 -171.5t-116 -131.5t-181.5 -53q-47 0 -103 19t-99 42.5t-94.5 42.5t-90.5 19q-118 0 -137 -119h-203q5 68 28.5 131t64.5 114t105 81.5t142 30.5zM416 487q60 0 132.5 -30.5t140 -61
t116.5 -30.5q118 0 137 118h203q-6 -93 -44.5 -171.5t-116 -131.5t-181.5 -53q-47 0 -103 19t-99 42.5t-94.5 42.5t-90.5 19q-118 0 -137 -119h-203q5 68 28.5 131t64.5 113.5t105 81t142 30.5z" />
    <glyph glyph-name="notequal" unicode="&#x2260;" horiz-adv-x="1220" 
d="M664 416h487v-228h-582l-80 -188l-163 70l49 118h-301v228h397l90 213h-487v227h583l78 186l164 -69l-49 -117h301v-227h-397z" />
    <glyph glyph-name="lessequal" unicode="&#x2264;" horiz-adv-x="1185" 
d="M446 694l666 -180v-244l-1044 299v248l1044 299v-242zM1112 227v-227h-1044v227h1044z" />
    <glyph glyph-name="greaterequal" unicode="&#x2265;" horiz-adv-x="1185" 
d="M1114 569l-1044 -299v244l665 180l-665 180v242l1044 -299v-248zM1114 227v-227h-1044v227h1044z" />
    <glyph glyph-name="zero.lf" horiz-adv-x="1191" 
d="M1096 727q0 -756 -496 -756q-254 0 -375 178.5t-121 577.5t121 577.5t375 178.5q496 0 496 -756zM412 727q0 -188 22.5 -301t62.5 -158t103 -45q38 0 66 12t52.5 44.5t40 88.5t24 145.5t8.5 213.5t-8.5 213.5t-24 145.5t-40 88.5t-52.5 44.5t-66 12q-63 0 -103 -45
t-62.5 -158t-22.5 -301z" />
    <glyph glyph-name="one.lf" horiz-adv-x="1001" 
d="M954 246v-246h-821v246h270v839q-40 -51 -103 -96t-124 -69l-90 237q100 39 188 118t138 179h276v-1208h266z" />
    <glyph glyph-name="two.lf" horiz-adv-x="1165" 
d="M1049 0h-969v193q93 108 197.5 224t163 180t118.5 134.5t89 116t47 94.5t18 98q0 89 -51.5 140t-139.5 51t-155 -36t-136 -126l-174 164q165 250 492 250q219 0 345 -116t126 -312q0 -62 -13 -120t-42.5 -114.5t-61 -104.5t-84 -109t-96.5 -108.5t-112.5 -122
t-118.5 -130.5h557v-246z" />
    <glyph glyph-name="three.lf" 
d="M813 768q104 -49 160.5 -143t56.5 -217q0 -199 -135.5 -318t-362.5 -119q-175 0 -307 79t-198 224l221 160q52 -114 117 -162.5t165 -48.5q92 0 143.5 51t51.5 142q0 103 -59.5 152.5t-182.5 49.5h-125v246h99q106 0 168.5 51.5t62.5 141.5q0 78 -46 126t-124 48
t-138 -37.5t-124 -128.5l-188 170q62 117 181 182.5t271 65.5q210 0 340.5 -116.5t130.5 -301.5q0 -92 -48 -171.5t-130 -125.5z" />
    <glyph glyph-name="four.lf" horiz-adv-x="1169" 
d="M940 319v-319h-293v319h-594v222l590 913h297v-913h160v-222h-160zM647 1069l-330 -528h330v528z" />
    <glyph glyph-name="five.lf" horiz-adv-x="1140" 
d="M575 952q209 0 336 -132.5t127 -352.5q0 -221 -143 -358.5t-375 -137.5q-145 0 -264 61t-201 177l207 174q67 -88 126 -125t130 -37q97 0 155 65.5t58 174.5q0 117 -51 178t-148 61q-118 0 -192 -77l-234 34l187 801l692 -2v-246l-475 2l-70 -280q61 20 135 20z" />
    <glyph glyph-name="six.lf" horiz-adv-x="1146" 
d="M623 946q210 0 337 -132t127 -335q0 -234 -139 -369t-364 -135q-221 0 -354.5 135.5t-133.5 364.5q0 126 31.5 250t96 249.5t134.5 232.5t174 247h326q-243 -318 -371 -532q61 24 136 24zM582 227q100 0 152 62.5t52 183.5q0 119 -52 181.5t-152 62.5q-99 0 -151 -62
t-52 -182q0 -121 52 -183.5t151 -62.5z" />
    <glyph glyph-name="seven.lf" horiz-adv-x="1075" 
d="M1024 1223l-489 -1223h-302l484 1178h-668v276h975v-231z" />
    <glyph glyph-name="eight.lf" horiz-adv-x="1185" 
d="M907 752q86 -52 132 -139t46 -195q0 -200 -135.5 -323.5t-353.5 -123.5t-354 124t-136 323q0 109 46.5 195.5t134.5 138.5q-72 53 -112 131t-40 170q0 190 128.5 310t332.5 120t332.5 -120t128.5 -310q0 -91 -39.5 -169.5t-110.5 -131.5zM422 1049q0 -83 48 -138t126 -55
q76 0 125 55.5t49 135.5q0 83 -48 137.5t-126 54.5q-76 0 -125 -55t-49 -135zM596 215q86 0 139 57t53 148q0 93 -52.5 149t-139.5 56q-88 0 -140.5 -55.5t-52.5 -149.5q0 -91 53.5 -148t139.5 -57z" />
    <glyph glyph-name="nine.lf" horiz-adv-x="1144" 
d="M561 1483q224 0 359 -137.5t135 -364.5q0 -202 -98 -424t-334 -557h-316q209 270 361 541q-65 -29 -142 -29q-206 0 -335.5 130t-129.5 337q0 230 135.5 367t364.5 137zM365 985q0 -119 52 -181.5t150 -62.5t150.5 63t52.5 181t-52.5 181t-150.5 63t-150 -62.5
t-52 -181.5z" />
    <glyph glyph-name="zero.tf" 
d="M1061 727q0 -756 -496 -756q-254 0 -374.5 178.5t-120.5 577.5t120.5 577.5t374.5 178.5q496 0 496 -756zM377 727q0 -188 22.5 -301t62.5 -158t103 -45q38 0 66 12t52.5 44.5t40 88.5t24 145.5t8.5 213.5t-8.5 213.5t-24 145.5t-40 88.5t-52.5 44.5t-66 12
q-63 0 -103 -45t-62.5 -158t-22.5 -301z" />
    <glyph glyph-name="one.tf" 
d="M997 246v-246h-821v246h270v839q-40 -51 -103 -96t-124 -69l-90 237q100 39 188 118t138 179h276v-1208h266z" />
    <glyph glyph-name="two.tf" 
d="M1030 0h-969v193q93 108 197.5 224t163 180t118.5 134.5t89 116t47 94.5t18 98q0 89 -51 140t-139 51t-155 -36t-136 -126l-174 164q165 250 491 250q219 0 345 -116t126 -312q0 -62 -13 -120t-42.5 -114.5t-61 -104.5t-84 -109t-96.5 -108.5t-112.5 -122t-118.5 -130.5
h557v-246z" />
    <glyph glyph-name="three.tf" 
d="M793 768q104 -49 160.5 -143t56.5 -217q0 -199 -135.5 -318t-362.5 -119q-175 0 -307.5 79t-198.5 224l221 160q52 -114 117.5 -162.5t165.5 -48.5q92 0 143.5 51t51.5 142q0 103 -59.5 152.5t-182.5 49.5h-125v246h98q107 0 169.5 51.5t62.5 141.5q0 78 -46 126t-124 48
t-138 -37.5t-124 -128.5l-189 170q62 117 181.5 182.5t271.5 65.5q210 0 340.5 -116.5t130.5 -301.5q0 -92 -48 -171.5t-130 -125.5z" />
    <glyph glyph-name="four.tf" 
d="M901 319v-319h-293v319h-594v222l590 913h297v-913h160v-222h-160zM608 1069l-329 -528h329v528z" />
    <glyph glyph-name="five.tf" 
d="M555 952q209 0 336 -132.5t127 -352.5q0 -221 -143 -358.5t-375 -137.5q-145 0 -264 61t-201 177l207 174q67 -88 126 -125t130 -37q97 0 155 65.5t58 174.5q0 117 -51 178t-148 61q-119 0 -193 -77l-233 34l186 801l693 -2v-246l-476 2l-69 -280q61 20 135 20z" />
    <glyph glyph-name="six.tf" 
d="M584 946q210 0 337.5 -132t127.5 -335q0 -234 -139.5 -369t-364.5 -135q-221 0 -354.5 135.5t-133.5 364.5q0 102 23 205t59 193.5t96 194.5t118.5 190t140.5 196h325q-238 -312 -370 -532q62 24 135 24zM543 227q100 0 152.5 62.5t52.5 183.5q0 119 -52.5 181.5
t-152.5 62.5q-99 0 -151 -62t-52 -182q0 -121 52 -183.5t151 -62.5z" />
    <glyph glyph-name="seven.tf" 
d="M1049 1223l-490 -1223h-301l483 1178h-667v276h975v-231z" />
    <glyph glyph-name="eight.tf" 
d="M877 752q86 -52 132 -139t46 -195q0 -199 -136 -323t-354 -124t-353.5 123.5t-135.5 323.5q0 109 46.5 195.5t133.5 138.5q-72 53 -112 131t-40 170q0 190 128.5 310t332.5 120t332.5 -120t128.5 -310q0 -92 -39 -170t-110 -131zM391 1049q0 -83 48 -138t126 -55
q76 0 125 55.5t49 135.5q0 83 -48 137.5t-126 54.5q-76 0 -125 -55t-49 -135zM565 215q86 0 139.5 57t53.5 148q0 92 -52.5 148.5t-140.5 56.5t-140 -55.5t-52 -149.5q0 -91 53 -148t139 -57z" />
    <glyph glyph-name="nine.tf" 
d="M561 1483q224 0 359 -137.5t135 -364.5q0 -202 -98 -424t-334 -557h-316q209 270 361 541q-65 -29 -142 -29q-206 0 -335.5 130t-129.5 337q0 230 135.5 367t364.5 137zM365 985q0 -119 52 -181.5t150 -62.5t150.5 63t52.5 181t-52.5 181t-150.5 63t-150 -62.5
t-52 -181.5z" />
    <glyph glyph-name="zero.dnom" horiz-adv-x="733" 
d="M367 848q164 0 240.5 -105t76.5 -327t-76.5 -327t-240.5 -105t-240 105t-76 327t76 327t240 105zM367 647q-20 0 -32.5 -14.5t-22 -68t-9.5 -148.5q0 -97 9.5 -151t22 -68.5t32.5 -14.5q19 0 31 14.5t21 68.5t9 151q0 95 -9 148.5t-21 68t-31 14.5z" />
    <glyph glyph-name="one.dnom" horiz-adv-x="788" 
d="M680 195v-195h-574v195h168v354q-55 -55 -122 -86l-74 182q63 29 114 77t80 109h240v-636h168z" />
    <glyph glyph-name="two.dnom" horiz-adv-x="749" 
d="M680 0h-621v156q58 60 126.5 126t101 98t64.5 68t43.5 62t11.5 55q0 38 -26.5 60t-70.5 22q-85 0 -159 -74l-121 140q112 135 321 135q144 0 228 -73t84 -195q0 -23 -3.5 -45t-13.5 -45t-18 -40t-28 -42t-30.5 -39t-38.5 -42.5t-40 -40.5t-47 -45t-48 -46h285v-195z" />
    <glyph glyph-name="three.dnom" horiz-adv-x="747" 
d="M551 438q111 -65 111 -188q0 -120 -89.5 -193t-240.5 -73q-126 0 -210 52.5t-118 125.5l176 123q32 -58 63 -80.5t87 -22.5q38 0 59 20t21 54q0 36 -24.5 53t-86.5 17h-80v192h64q104 0 104 72q0 57 -65 57q-41 0 -71.5 -18t-70.5 -64l-151 131q106 152 295 152
q144 0 229.5 -72.5t85.5 -181.5q0 -95 -88 -156z" />
    <glyph glyph-name="four.dnom" horiz-adv-x="753" 
d="M602 135v-135h-246v135h-346v150l359 546h233v-532h103v-164h-103zM356 559l-172 -260h172v260z" />
    <glyph glyph-name="five.dnom" horiz-adv-x="741" 
d="M365 539q125 0 211 -74.5t86 -190.5q0 -130 -93 -210t-250 -80q-97 0 -170 37t-110 92l170 137q55 -70 110 -70q42 0 66.5 23t24.5 65t-23 64t-61 22q-56 0 -90 -45l-191 31l121 491h465v-196h-297l-27 -100q36 4 58 4z" />
    <glyph glyph-name="six.dnom" horiz-adv-x="743" 
d="M389 545q131 0 214 -77t83 -189q0 -142 -90.5 -217.5t-241.5 -75.5q-140 0 -226.5 80.5t-86.5 212.5q0 130 65.5 266t180.5 286h270q-176 -226 -221 -292q24 6 53 6zM356 186q38 0 59 22.5t21 65.5q0 45 -21 70t-59 25t-60 -25.5t-22 -69.5q0 -42 21.5 -65t60.5 -23z" />
    <glyph glyph-name="seven.dnom" horiz-adv-x="733" 
d="M674 641l-266 -641h-234l264 612h-385v219h621v-190z" />
    <glyph glyph-name="eight.dnom" horiz-adv-x="731" 
d="M561 432q117 -63 117 -186q0 -116 -85.5 -189t-225.5 -73q-139 0 -225.5 73t-86.5 189q0 124 117 184q-100 62 -100 168q0 107 83 178.5t212 71.5q130 0 211 -71.5t81 -178.5q0 -108 -98 -166zM367 657q-30 0 -48 -18.5t-18 -50.5q0 -33 18 -52.5t48 -19.5q29 0 47 20
t18 52t-17.5 50.5t-47.5 18.5zM367 174q31 0 49 20.5t18 55.5q0 38 -18 60t-49 22t-48.5 -22t-17.5 -60q0 -35 17.5 -55.5t48.5 -20.5z" />
    <glyph glyph-name="nine.dnom" horiz-adv-x="743" 
d="M375 846q141 0 228 -80.5t87 -212.5t-66 -268t-182 -285h-268q146 183 221 295q-21 -8 -53 -8q-132 0 -214.5 76.5t-82.5 187.5q0 143 90 219t240 76zM293 555q0 -44 22 -69t60 -25q39 0 60.5 24.5t21.5 69.5q0 43 -21 66.5t-61 23.5q-38 0 -60 -23.5t-22 -66.5z" />
    <glyph glyph-name="zero.numr" horiz-adv-x="733" 
d="M369 1401q164 0 240.5 -105t76.5 -327t-76.5 -327t-240.5 -105q-163 0 -239.5 105t-76.5 327t76.5 327t239.5 105zM369 1200q-19 0 -31.5 -14.5t-21.5 -68t-9 -148.5q0 -97 9.5 -151t21.5 -68.5t31 -14.5t31 14.5t21 68.5t9 151q0 95 -9 148.5t-21 68t-31 14.5z" />
    <glyph glyph-name="one.numr" horiz-adv-x="784" 
d="M682 748v-195h-573v195h167v354q-55 -55 -122 -86l-72 182q63 29 114 77t78 109h240v-636h168z" />
    <glyph glyph-name="two.numr" horiz-adv-x="749" 
d="M682 553h-619v156q58 60 125.5 126t100.5 98t64.5 68t43 62t11.5 55q0 38 -26.5 60t-70.5 22q-86 0 -157 -74l-123 140q113 135 321 135q145 0 229.5 -73t84.5 -195q0 -23 -3.5 -45t-13.5 -45t-18 -40t-28 -42t-30.5 -39t-38.5 -42.5t-40 -40.5t-47 -45t-48 -46h283v-195
z" />
    <glyph glyph-name="three.numr" horiz-adv-x="747" 
d="M553 991q113 -66 113 -188q0 -119 -90.5 -192.5t-241.5 -73.5q-126 0 -210 53t-116 125l174 123q32 -58 63 -80.5t87 -22.5q38 0 59 20t21 54q0 36 -24.5 53t-86.5 17h-80v192h64q104 0 104 72q0 57 -65 57q-41 0 -71.5 -18t-70.5 -64l-151 131q106 152 295 152
q144 0 230.5 -72.5t86.5 -181.5q0 -96 -90 -156z" />
    <glyph glyph-name="four.numr" horiz-adv-x="753" 
d="M604 688v-135h-246v135h-346v150l359 546h233v-532h103v-164h-103zM358 1108l-170 -256h170v256z" />
    <glyph glyph-name="five.numr" horiz-adv-x="741" 
d="M367 1092q126 0 212.5 -74.5t86.5 -190.5q0 -130 -93 -210t-251 -80q-97 0 -170.5 37t-110.5 92l170 137q55 -70 113 -70q42 0 65 23t23 65t-23 64t-61 22q-56 0 -90 -45l-191 31l121 491h467v-196h-299l-25 -101q40 5 56 5z" />
    <glyph glyph-name="six.numr" horiz-adv-x="743" 
d="M391 1098q131 0 214 -77t83 -190q0 -142 -90.5 -217t-241.5 -75q-140 0 -225.5 80t-85.5 212q0 235 244 553h270q-176 -226 -221 -292q24 6 53 6zM358 739q38 0 59 22.5t21 65.5q0 45 -21 70t-59 25t-60 -25.5t-22 -69.5q0 -42 21.5 -65t60.5 -23z" />
    <glyph glyph-name="seven.numr" horiz-adv-x="733" 
d="M676 1194l-264 -641h-236l264 612h-385v219h621v-190z" />
    <glyph glyph-name="eight.numr" horiz-adv-x="731" 
d="M563 985q117 -63 117 -186q0 -116 -85.5 -189t-225.5 -73q-139 0 -224.5 73t-85.5 189q0 123 115 184q-98 61 -98 168t82 178.5t211 71.5q130 0 211.5 -71.5t81.5 -178.5q0 -108 -99 -166zM369 1210q-30 0 -48 -18.5t-18 -50.5q0 -33 18 -52.5t48 -19.5t47.5 19.5
t17.5 52.5q0 32 -17 50.5t-48 18.5zM369 727q31 0 49 20.5t18 55.5q0 38 -18 60t-49 22t-48.5 -22t-17.5 -60q0 -35 17.5 -55.5t48.5 -20.5z" />
    <glyph glyph-name="nine.numr" horiz-adv-x="743" 
d="M379 1399q141 0 227 -80.5t86 -212.5t-66 -268t-182 -285h-268q146 183 221 295q-21 -8 -53 -8q-132 0 -214.5 76.5t-82.5 187.5q0 144 90.5 219.5t241.5 75.5zM297 1108q0 -44 22 -69t60 -25t59 25t21 69q0 43 -21 66.5t-59 23.5t-60 -23.5t-22 -66.5z" />
    <glyph glyph-name="acute.case" horiz-adv-x="595" 
d="M43 1581l164 313h375l-271 -313h-268z" />
    <glyph glyph-name="breve.case" horiz-adv-x="823" 
d="M780 1894q-18 -168 -111.5 -250.5t-252.5 -82.5q-163 0 -259.5 84t-113.5 249h193q13 -72 61 -105.5t117 -33.5q70 0 115.5 35.5t60.5 103.5h190z" />
    <glyph glyph-name="caron.case" horiz-adv-x="905" 
d="M256 1602l-242 292h310l131 -143l129 143h307l-240 -292h-395z" />
    <glyph glyph-name="circumflex.case" horiz-adv-x="905" 
d="M582 1602l-131 143l-129 -143h-308l240 292h395l242 -292h-309z" />
    <glyph glyph-name="dieresis.case" horiz-adv-x="851" 
d="M180 1882q71 0 117.5 -43t46.5 -123q0 -81 -47 -122.5t-119 -41.5q-71 0 -116.5 42.5t-45.5 123.5q0 79 46 121.5t118 42.5zM670 1882q71 0 117.5 -43t46.5 -123q0 -81 -47 -122.5t-119 -41.5q-71 0 -116.5 42.5t-45.5 123.5q0 79 46 121.5t118 42.5z" />
    <glyph glyph-name="dotaccent.case" horiz-adv-x="415" 
d="M207 1890q76 0 125 -45t49 -129q0 -85 -49.5 -128.5t-126.5 -43.5q-75 0 -122.5 44.5t-47.5 129.5q0 83 48 127.5t124 44.5z" />
    <glyph glyph-name="grave.case" horiz-adv-x="595" 
d="M553 1581h-268l-271 313h375z" />
    <glyph glyph-name="hungarumlaut.case" horiz-adv-x="997" 
d="M43 1581l164 313h375l-271 -313h-268zM473 1581l164 313h375l-271 -313h-268z" />
    <glyph glyph-name="macron.case" horiz-adv-x="700" 
d="M43 1653v196h614v-196h-614z" />
    <glyph glyph-name="ring.case" horiz-adv-x="544" 
d="M272 1985q106 0 168 -61t62 -163q0 -101 -62 -161t-168 -60t-167.5 60t-61.5 161q0 102 61.5 163t167.5 61zM272 1872q-51 0 -78.5 -29t-27.5 -82q0 -51 27.5 -78.5t78.5 -27.5q52 0 81.5 28t29.5 78q0 52 -30 81.5t-81 29.5z" />
    <glyph glyph-name="tilde.case" horiz-adv-x="894" 
d="M852 1917q-6 -138 -69 -211.5t-167 -73.5q-79 0 -186 41q-93 35 -125 35q-26 0 -41 -17.5t-22 -62.5h-199q24 275 227 275q66 0 154 -31q120 -43 158 -43q32 0 49 18.5t24 69.5h197z" />
    </font>
</defs>
</svg>
