<svg width="112" height="112" viewBox="0 0 112 112" fill="none" xmlns="http://www.w3.org/2000/svg">
<g id="Icon">
<path id="Help" fill-rule="evenodd" clip-rule="evenodd" d="M75.942 16C87.0197 16 96 24.9803 96 36.058V44.5307C96 60.2878 83.2263 73.0615 67.4693 73.0615H56.1025V96L38.5563 85.9636C24.6071 77.9847 16 63.1458 16 47.0759V35.942C16 24.9283 24.9283 16 35.942 16H75.942ZM75.942 18.8H35.942C26.6469 18.8 19.0797 26.1982 18.8076 35.4274L18.8 35.942V47.0759C18.8 61.8724 26.5836 75.5557 39.2508 83.1263L39.9465 83.5331L53.302 91.172L53.3025 70.2615H67.4693C81.474 70.2615 92.8655 59.0729 93.1928 45.1469L93.2 44.5307V36.058C93.2 26.7 85.7517 19.0816 76.46 18.8076L75.942 18.8Z" fill="#6200D0"/>
</g>
</svg>
