<svg width="56" height="56" viewBox="0 0 56 56" fill="none" xmlns="http://www.w3.org/2000/svg">
<g id="Icon">
<path id="Help" fill-rule="evenodd" clip-rule="evenodd" d="M37.971 8C43.5099 8 48 12.4901 48 18.029V22.2654C48 30.1439 41.6132 36.5307 33.7346 36.5307H28.0513V48L19.2782 42.9818C12.3036 38.9924 8 31.5729 8 23.5379V17.971C8 12.4642 12.4642 8 17.971 8H37.971ZM37.971 9.4H17.971C13.3234 9.4 9.53984 13.0991 9.40379 17.7137L9.4 17.971V23.5379C9.4 30.9362 13.2918 37.7779 19.6254 41.5631L19.9733 41.7666L26.651 45.586L26.6513 35.1307H33.7346C40.737 35.1307 46.4328 29.5365 46.5964 22.5734L46.6 22.2654V18.029C46.6 13.35 42.8759 9.54078 38.23 9.40381L37.971 9.4Z" fill="#6200D0"/>
</g>
</svg>
